<?xml version="1.0" encoding="UTF-8"?>
<svg width="430px" height="70px" viewBox="0 0 430 70" version="1.1" xmlns="http://www.w3.org/2000/svg" xmlns:xlink="http://www.w3.org/1999/xlink">
    <!-- Generator: sketchtool 63.1 (101010) - https://sketch.com -->
    <title>DE673476-CBEE-4495-BBE9-8ED5FBBD29C6@1.5x</title>
    <desc>Created with sketchtool.</desc>
    <g id="Home" stroke="none" stroke-width="1" fill="none" fill-rule="evenodd" opacity="0.5">
        <g id="3.0_web_home_2" transform="translate(-895.000000, -5146.000000)" fill="#663399">
            <g id="accounting_dots" transform="translate(895.000000, 5146.000000)">
                <circle id="Oval" opacity="0.3" cx="265" cy="25" r="5"></circle>
                <circle id="Oval-Copy-13" opacity="0.3" cx="285" cy="25" r="5"></circle>
                <circle id="Oval-Copy-14" opacity="0.3" cx="305" cy="25" r="5"></circle>
                <circle id="Oval-Copy-15" opacity="0.3" cx="325" cy="25" r="5"></circle>
                <circle id="Oval-Copy-16" opacity="0.3" cx="345" cy="25" r="5"></circle>
                <circle id="Oval-Copy-17" opacity="0.3" cx="365" cy="25" r="5"></circle>
                <circle id="Oval-Copy-18" opacity="0.3" cx="385" cy="25" r="5"></circle>
                <circle id="Oval-Copy-19" opacity="0.3" cx="405" cy="25" r="5"></circle>
                <circle id="Oval-Copy-20" opacity="0.3" cx="425" cy="25" r="5"></circle>
                <circle id="Oval-Copy-31" opacity="0.3" cx="265" cy="45" r="5"></circle>
                <circle id="Oval-Copy-30" opacity="0.3" cx="285" cy="45" r="5"></circle>
                <circle id="Oval-Copy-29" opacity="0.3" cx="305" cy="45" r="5"></circle>
                <circle id="Oval-Copy-28" opacity="0.3" cx="325" cy="45" r="5"></circle>
                <circle id="Oval-Copy-27" opacity="0.3" cx="345" cy="45" r="5"></circle>
                <circle id="Oval-Copy-26" opacity="0.3" cx="365" cy="45" r="5"></circle>
                <circle id="Oval-Copy-25" opacity="0.3" cx="385" cy="45" r="5"></circle>
                <circle id="Oval-Copy-24" opacity="0.3" cx="405" cy="45" r="5"></circle>
                <circle id="Oval-Copy-23" opacity="0.3" cx="425" cy="45" r="5"></circle>
                <circle id="Oval-Copy-41" opacity="0.3" cx="265" cy="65" r="5"></circle>
                <circle id="Oval-Copy-40" opacity="0.3" cx="285" cy="65" r="5"></circle>
                <circle id="Oval-Copy-39" opacity="0.3" cx="305" cy="65" r="5"></circle>
                <circle id="Oval-Copy-38" opacity="0.3" cx="325" cy="65" r="5"></circle>
                <circle id="Oval-Copy-37" opacity="0.3" cx="345" cy="65" r="5"></circle>
                <circle id="Oval-Copy-36" opacity="0.3" cx="365" cy="65" r="5"></circle>
                <circle id="Oval-Copy-35" opacity="0.3" cx="385" cy="65" r="5"></circle>
                <circle id="Oval-Copy-34" opacity="0.3" cx="405" cy="65" r="5"></circle>
                <circle id="Oval-Copy-33" opacity="0.3" cx="425" cy="65" r="5"></circle>
                <circle id="Oval" opacity="0.3" cx="85" cy="25" r="5"></circle>
                <circle id="Oval-Copy-13" opacity="0.3" cx="105" cy="25" r="5"></circle>
                <circle id="Oval-Copy-14" opacity="0.3" cx="125" cy="25" r="5"></circle>
                <circle id="Oval-Copy-15" opacity="0.3" cx="145" cy="25" r="5"></circle>
                <circle id="Oval-Copy-16" opacity="0.3" cx="165" cy="25" r="5"></circle>
                <circle id="Oval-Copy-17" opacity="0.3" cx="185" cy="25" r="5"></circle>
                <circle id="Oval-Copy-18" opacity="0.3" cx="205" cy="25" r="5"></circle>
                <circle id="Oval-Copy-19" opacity="0.3" cx="225" cy="25" r="5"></circle>
                <circle id="Oval-Copy-20" opacity="0.3" cx="245" cy="25" r="5"></circle>
                <circle id="Oval-Copy-31" opacity="0.3" cx="85" cy="45" r="5"></circle>
                <circle id="Oval-Copy-30" opacity="0.3" cx="105" cy="45" r="5"></circle>
                <circle id="Oval-Copy-29" opacity="0.3" cx="125" cy="45" r="5"></circle>
                <circle id="Oval-Copy-28" opacity="0.3" cx="145" cy="45" r="5"></circle>
                <circle id="Oval-Copy-27" opacity="0.3" cx="165" cy="45" r="5"></circle>
                <circle id="Oval-Copy-26" opacity="0.3" cx="185" cy="45" r="5"></circle>
                <circle id="Oval-Copy-25" opacity="0.3" cx="205" cy="45" r="5"></circle>
                <circle id="Oval-Copy-24" opacity="0.3" cx="225" cy="45" r="5"></circle>
                <circle id="Oval-Copy-23" opacity="0.3" cx="245" cy="45" r="5"></circle>
                <circle id="Oval-Copy-41" opacity="0.3" cx="85" cy="65" r="5"></circle>
                <circle id="Oval-Copy-40" opacity="0.3" cx="105" cy="65" r="5"></circle>
                <circle id="Oval-Copy-39" opacity="0.3" cx="125" cy="65" r="5"></circle>
                <circle id="Oval-Copy-38" opacity="0.3" cx="145" cy="65" r="5"></circle>
                <circle id="Oval-Copy-37" opacity="0.3" cx="165" cy="65" r="5"></circle>
                <circle id="Oval-Copy-36" opacity="0.3" cx="185" cy="65" r="5"></circle>
                <circle id="Oval-Copy-35" opacity="0.3" cx="205" cy="65" r="5"></circle>
                <circle id="Oval-Copy-34" opacity="0.3" cx="225" cy="65" r="5"></circle>
                <circle id="Oval-Copy-33" opacity="0.3" cx="245" cy="65" r="5"></circle>
                <circle id="Oval-Copy-17" opacity="0.3" cx="5" cy="25" r="5"></circle>
                <circle id="Oval-Copy-18" opacity="0.3" cx="25" cy="25" r="5"></circle>
                <circle id="Oval-Copy-19" opacity="0.3" cx="45" cy="25" r="5"></circle>
                <circle id="Oval-Copy-20" opacity="0.3" cx="65" cy="25" r="5"></circle>
                <circle id="Oval-Copy-26" opacity="0.3" cx="5" cy="45" r="5"></circle>
                <circle id="Oval-Copy-25" opacity="0.3" cx="25" cy="45" r="5"></circle>
                <circle id="Oval-Copy-24" opacity="0.3" cx="45" cy="45" r="5"></circle>
                <circle id="Oval-Copy-23" opacity="0.3" cx="65" cy="45" r="5"></circle>
                <circle id="Oval-Copy-36" opacity="0.3" cx="5" cy="65" r="5"></circle>
                <circle id="Oval-Copy-35" opacity="0.3" cx="25" cy="65" r="5"></circle>
                <circle id="Oval-Copy-34" opacity="0.3" cx="45" cy="65" r="5"></circle>
                <circle id="Oval-Copy-33" opacity="0.3" cx="65" cy="65" r="5"></circle>
                <circle id="Oval-Copy-41" opacity="0.3" cx="265" cy="5" r="5"></circle>
                <circle id="Oval-Copy-40" opacity="0.3" cx="285" cy="5" r="5"></circle>
                <circle id="Oval-Copy-39" opacity="0.3" cx="305" cy="5" r="5"></circle>
                <circle id="Oval-Copy-38" opacity="0.3" cx="325" cy="5" r="5"></circle>
                <circle id="Oval-Copy-37" opacity="0.3" cx="345" cy="5" r="5"></circle>
                <circle id="Oval-Copy-36" opacity="0.3" cx="365" cy="5" r="5"></circle>
                <circle id="Oval-Copy-35" opacity="0.3" cx="385" cy="5" r="5"></circle>
                <circle id="Oval-Copy-34" opacity="0.3" cx="405" cy="5" r="5"></circle>
                <circle id="Oval-Copy-33" opacity="0.3" cx="425" cy="5" r="5"></circle>
                <circle id="Oval-Copy-41" opacity="0.3" cx="85" cy="5" r="5"></circle>
                <circle id="Oval-Copy-40" opacity="0.3" cx="105" cy="5" r="5"></circle>
                <circle id="Oval-Copy-39" opacity="0.3" cx="125" cy="5" r="5"></circle>
                <circle id="Oval-Copy-38" opacity="0.3" cx="145" cy="5" r="5"></circle>
                <circle id="Oval-Copy-37" opacity="0.3" cx="165" cy="5" r="5"></circle>
                <circle id="Oval-Copy-36" opacity="0.3" cx="185" cy="5" r="5"></circle>
                <circle id="Oval-Copy-35" opacity="0.3" cx="205" cy="5" r="5"></circle>
                <circle id="Oval-Copy-34" opacity="0.3" cx="225" cy="5" r="5"></circle>
                <circle id="Oval-Copy-33" opacity="0.3" cx="245" cy="5" r="5"></circle>
                <circle id="Oval-Copy-36" opacity="0.3" cx="5" cy="5" r="5"></circle>
                <circle id="Oval-Copy-35" opacity="0.3" cx="25" cy="5" r="5"></circle>
                <circle id="Oval-Copy-34" opacity="0.3" cx="45" cy="5" r="5"></circle>
                <circle id="Oval-Copy-33" opacity="0.3" cx="65" cy="5" r="5"></circle>
            </g>
        </g>
    </g>
</svg>