<?xml version="1.0" encoding="UTF-8"?>
<svg width="64px" height="64px" viewBox="0 0 64 64" version="1.1" xmlns="http://www.w3.org/2000/svg" xmlns:xlink="http://www.w3.org/1999/xlink">
    <title>AF66D549-980A-4C50-B0CB-BCA28E7F6D66</title>
    <g id="Page-1" stroke="none" stroke-width="1" fill="none" fill-rule="evenodd">
        <g id="open-copy-24" transform="translate(-1058.000000, -4547.000000)" fill-rule="nonzero">
            <g id="API" transform="translate(1058.000000, 4547.000000)">
                <rect id="Rectangle_2178" fill-opacity="0" fill="#FFFFFF" x="0" y="0" width="64" height="64"></rect>
                <g id="Group_1177" transform="translate(2.000000, 9.000000)">
                    <circle id="Ellipse_1130" fill="#ED2891" opacity="0.4" cx="51.327" cy="9.673" r="9.673"></circle>
                    <path d="M46.656,5.83 L8,5.83 C2.4771525,5.83 -2,10.3071525 -2,15.83 L-2,37.178 C-2,42.7008475 2.4771525,47.178 8,47.178 L46.656,47.178 C52.1788475,47.178 56.656,42.7008475 56.656,37.178 L56.656,15.83 C56.656,10.3071525 52.1788475,5.83 46.656,5.83 Z M8,9.83 L46.656,9.83 C49.9697085,9.83 52.656,12.5162915 52.656,15.83 L52.656,37.178 C52.656,40.4917085 49.9697085,43.178 46.656,43.178 L8,43.178 C4.6862915,43.178 2,40.4917085 2,37.178 L2,15.83 C2,12.5162915 4.6862915,9.83 8,9.83 Z" id="Rectangle_2158" fill="#6861AB"></path>
                    <path d="M17.4550733,17.4838411 C18.3829994,16.8846526 19.6209704,17.1511471 20.2201589,18.0790733 C20.789388,18.9606031 20.5773381,20.1219484 19.7591294,20.7496084 L19.6249267,20.8441589 L12.959,25.148 L19.6931702,29.9009258 C20.5505207,30.5059601 20.7877038,31.6624342 20.2632352,32.5503279 L20.1740742,32.6881702 C19.5690399,33.5455207 18.4125658,33.7827038 17.5246721,33.2582352 L17.3868298,33.1690742 L8.23282985,26.7090742 C7.11964537,25.9234972 7.10973855,24.2951113 8.16885071,23.4876851 L8.30107326,23.3948411 L17.4550733,17.4838411 Z" id="Path_256" fill="#6861AB"></path>
                    <path d="M29.0450466,17.4732234 C29.4353885,16.4399243 30.5894776,15.9187046 31.6227766,16.3090466 C32.606871,16.6808008 33.1264942,17.7452962 32.8365586,18.7384363 L32.7869534,18.8867766 L27.1809534,33.7267766 C26.7906115,34.7600757 25.6365224,35.2812954 24.6032234,34.8909534 C23.619129,34.5191992 23.0995058,33.4547038 23.3894414,32.4615637 L23.4390466,32.3132234 L29.0450466,17.4732234 Z" id="Path_258" fill="#6861AB"></path>
                    <path d="M35.0298411,18.9900733 C35.5990702,18.1085434 36.7448004,17.8239556 37.6535311,18.3114299 L37.7949267,18.3948411 L46.9489267,24.3058411 C48.0935056,25.0449284 48.1704358,26.6715263 47.1454587,27.521866 L47.0171702,27.6200742 L37.8631702,34.0800742 C36.9606959,34.7169525 35.7128041,34.5016444 35.0759258,33.5991702 C34.4708914,32.7418196 34.6349552,31.5727297 35.4266331,30.9119206 L35.5568298,30.8119258 L42.29,26.059 L35.6250733,21.7551589 C34.7435434,21.1859298 34.4589556,20.0401996 34.9464299,19.1314689 L35.0298411,18.9900733 Z" id="Path_257" fill="#6861AB"></path>
                </g>
            </g>
        </g>
    </g>
</svg>