<svg width="48" height="48" viewBox="0 0 48 48" fill="none" xmlns="http://www.w3.org/2000/svg">
<g clip-path="url(#clip0)">
<path opacity="0.4" d="M7.5 22.3921C11.6421 22.3921 15 19.0342 15 14.8921C15 10.75 11.6421 7.39209 7.5 7.39209C3.35786 7.39209 0 10.75 0 14.8921C0 19.0342 3.35786 22.3921 7.5 22.3921Z" fill="#FF1391"/>
<path d="M29.25 11.2505H12.75C8.60786 11.2505 5.25 14.6084 5.25 18.7505V32.2505C5.25 36.3926 8.60786 39.7505 12.75 39.7505H38.25C42.3921 39.7505 45.75 36.3926 45.75 32.2505V25.5005" stroke="#6861AB" stroke-width="3" stroke-linecap="round" stroke-linejoin="round"/>
<path d="M13.3616 29.5453V28.6557C13.3568 28.4004 13.4485 28.1534 13.6165 27.9685C13.7846 27.7835 14.0156 27.6755 14.2592 27.668C14.3841 27.6667 14.5079 27.6914 14.6234 27.7408C14.739 27.7902 14.844 27.8633 14.9322 27.9558C15.0205 28.0482 15.0902 28.1582 15.1374 28.2793C15.1846 28.4003 15.2082 28.53 15.2069 28.6608V29.3576C15.9124 29.0565 16.6599 28.6709 17.0037 29.6163C17.4073 30.675 16.5049 30.9 15.7865 31.2111C16.2353 31.8504 16.9682 32.4339 16.1675 33.2406C15.7187 33.7108 15.3183 33.5231 14.3448 32.5016C14.1963 32.7366 14.0623 32.9717 13.896 33.1882C13.8329 33.2971 13.7493 33.3915 13.6504 33.4655C13.5514 33.5396 13.4391 33.5918 13.3203 33.619C13.2015 33.6462 13.0786 33.6479 12.9592 33.6238C12.8397 33.5998 12.7262 33.5505 12.6255 33.4791C12.5231 33.4115 12.4344 33.3235 12.3646 33.22C12.2947 33.1165 12.245 32.9997 12.2183 32.876C12.1916 32.7524 12.1884 32.6245 12.209 32.4996C12.2296 32.3747 12.2734 32.2552 12.3381 32.1481C12.4543 31.9215 12.5948 31.7067 12.7562 31.4327C12.4995 31.3532 12.2719 31.2873 12.0378 31.2111C11.9101 31.1905 11.7878 31.1421 11.6789 31.0691C11.57 30.9962 11.4768 30.9002 11.4053 30.7874C11.3338 30.6746 11.2855 30.5474 11.2635 30.414C11.2416 30.2805 11.2464 30.1438 11.2777 30.0124C11.309 29.881 11.3662 29.7579 11.4455 29.6509C11.5248 29.544 11.6245 29.4555 11.7382 29.3912C11.852 29.3269 11.9773 29.2881 12.1061 29.2774C12.235 29.2666 12.3646 29.2842 12.4866 29.3288C12.7869 29.3762 13.0258 29.4557 13.3616 29.5453Z" fill="#6861AB"/>
<path d="M23.86 31.2182C24.666 32.4045 24.7348 32.8113 24.2384 33.2519C23.742 33.6925 23.3718 33.5349 22.3692 32.5164C22.2283 32.7333 22.1006 32.9502 21.9629 33.1536C21.8988 33.2686 21.8127 33.3689 21.7099 33.4483C21.607 33.5277 21.4896 33.5846 21.3648 33.6154C21.24 33.6463 21.1104 33.6505 20.984 33.6278C20.8575 33.6051 20.7369 33.5559 20.6295 33.4833C20.522 33.4107 20.43 33.3162 20.3591 33.2056C20.2882 33.0949 20.2398 32.9705 20.217 32.8398C20.1941 32.7092 20.1973 32.5751 20.2262 32.4458C20.2552 32.3164 20.3093 32.1946 20.3853 32.0876C20.4951 31.8944 20.6229 31.7012 20.7769 31.4419L20.0888 31.2386C19.9585 31.2157 19.8342 31.165 19.724 31.0895C19.6137 31.0141 19.5199 30.9156 19.4486 30.8005C19.3773 30.6853 19.33 30.5561 19.3098 30.4209C19.2897 30.2858 19.297 30.1478 19.3314 30.0157C19.3658 29.8837 19.4265 29.7605 19.5096 29.6542C19.5927 29.5478 19.6964 29.4606 19.814 29.3982C19.9316 29.3357 20.0605 29.2994 20.1925 29.2915C20.3244 29.2836 20.4565 29.3043 20.5803 29.3523L21.3371 29.5455V28.6456C21.3345 28.3917 21.4286 28.1469 21.599 27.9643C21.7695 27.7816 22.0026 27.6757 22.248 27.6694C22.4923 27.6705 22.7268 27.7691 22.9026 27.9447C23.0783 28.1202 23.1819 28.3592 23.1916 28.6117V29.3337C23.9304 29.0371 24.7593 28.627 25.0821 29.7252C25.4146 30.7522 24.494 30.9013 23.86 31.2182Z" fill="#6861AB"/>
<path d="M29.4559 29.5617V28.6787C29.4467 28.5462 29.4638 28.4131 29.5061 28.2878C29.5485 28.1625 29.6152 28.0477 29.7021 27.9504C29.789 27.8531 29.8942 27.7756 30.0111 27.7225C30.1281 27.6695 30.2543 27.6421 30.3818 27.6421C30.5094 27.6421 30.6356 27.6695 30.7526 27.7225C30.8695 27.7756 30.9747 27.8531 31.0616 27.9504C31.1485 28.0477 31.2152 28.1625 31.2576 28.2878C31.2999 28.4131 31.317 28.5462 31.3078 28.6787V29.3636C32.0122 29.0648 32.7585 28.6821 33.1018 29.6204C33.5048 30.6712 32.5989 30.8945 31.8865 31.2034C32.3346 31.8379 33.0615 32.417 32.2637 33.2177C31.8156 33.6844 31.4207 33.4981 30.4439 32.4842C30.2956 32.7175 30.1618 32.9508 29.9958 33.1657C29.9328 33.2738 29.8494 33.3675 29.7506 33.441C29.6518 33.5145 29.5396 33.5663 29.421 33.5933C29.3024 33.6203 29.1797 33.6219 29.0604 33.5981C28.9412 33.5742 28.8278 33.5253 28.7273 33.4544C28.521 33.3189 28.3746 33.104 28.32 32.8565C28.2653 32.609 28.3069 32.349 28.4355 32.1333C28.5564 31.9084 28.6951 31.6952 28.8562 31.4233L28.1341 31.2034C28.0066 31.1828 27.8846 31.1348 27.7758 31.0624C27.6671 30.99 27.5741 30.8948 27.5026 30.7828C27.4312 30.6708 27.383 30.5446 27.3611 30.4122C27.3391 30.2797 27.344 30.1439 27.3752 30.0135C27.4065 29.8831 27.4636 29.7609 27.5427 29.6548C27.6219 29.5486 27.7214 29.4608 27.835 29.397C27.9486 29.3331 28.0737 29.2947 28.2024 29.284C28.331 29.2733 28.4604 29.2907 28.5822 29.3351C28.903 29.3972 29.119 29.4727 29.4559 29.5617Z" fill="#6861AB"/>
<path d="M39.9503 31.2121C40.7526 32.3944 40.826 32.7998 40.327 33.239C39.8279 33.6781 39.4692 33.521 38.4662 32.5059C38.3308 32.7221 38.2036 32.9383 38.0617 33.141C38.002 33.2568 37.9196 33.3583 37.8197 33.439C37.7198 33.5198 37.6047 33.5779 37.4818 33.6098C37.3589 33.6416 37.2309 33.6464 37.106 33.6238C36.9812 33.6013 36.8623 33.5519 36.7571 33.4788C36.6447 33.4093 36.5477 33.316 36.4725 33.2049C36.3974 33.0939 36.3457 32.9677 36.3209 32.8345C36.2961 32.7014 36.2988 32.5643 36.3287 32.4323C36.3586 32.3002 36.4151 32.1763 36.4945 32.0684C36.6086 31.8759 36.731 31.6833 36.8892 31.4249L36.1993 31.2222C36.0672 31.2011 35.941 31.1513 35.8288 31.0761C35.7167 31.0009 35.6211 30.9019 35.5485 30.7858C35.4759 30.6696 35.4278 30.5389 35.4074 30.4021C35.387 30.2653 35.3948 30.1256 35.4302 29.9922C35.4656 29.8588 35.5279 29.7346 35.6129 29.6278C35.698 29.5211 35.8038 29.4342 35.9236 29.3728C36.0433 29.3114 36.1743 29.277 36.3078 29.2717C36.4413 29.2665 36.5744 29.2905 36.6983 29.3423L37.4469 29.5348V28.6379C37.4425 28.5118 37.4627 28.386 37.5063 28.2682C37.5499 28.1503 37.616 28.0427 37.7007 27.9519C37.7853 27.8611 37.8868 27.7889 37.9989 27.7396C38.1111 27.6903 38.2318 27.665 38.3537 27.665C38.5975 27.6657 38.8317 27.7636 39.0076 27.9385C39.1834 28.1135 39.2874 28.3519 39.2979 28.6042C39.2979 28.8153 39.2979 29.0315 39.2979 29.3237C40.0367 29.0281 40.8586 28.6194 41.1848 29.7139C41.5028 30.7391 40.5863 30.8878 39.9503 31.2121Z" fill="#6861AB"/>
<path d="M5.25 18.6421H29.25" stroke="#6861AB" stroke-width="3" stroke-linecap="round"/>
<path d="M43.7207 12.1982C44.1686 12.7525 44.4704 13.412 44.5996 14.119C44.7288 14.826 44.6815 15.5587 44.4617 16.2528C44.2419 16.947 43.8565 17.5812 43.3393 18.0999C42.822 18.6186 42.1888 19.0058 41.4953 19.2275L41.1724 19.3334L41.1371 21.9205L41.7003 21.7836C42.879 21.5024 43.9727 20.9214 44.8741 20.0977C45.7756 19.2739 46.4537 18.2358 46.8419 17.0851C47.2301 15.9345 47.315 14.711 47.0884 13.5348C46.8617 12.3585 46.3312 11.2701 45.549 10.3763L47.7683 8.15693L41.6152 8.24274L41.5263 14.3927L43.7207 12.1982Z" fill="#6861AB"/>
<path d="M35.1602 19.7865L32.9377 22.009L39.0923 21.9232L39.1774 15.7694L36.9845 17.9622C36.5379 17.408 36.2371 16.7488 36.1087 16.0424C35.9802 15.3361 36.028 14.6041 36.2477 13.9108C36.4675 13.2175 36.8525 12.5839 37.3691 12.0657C37.8857 11.5475 38.518 11.1604 39.2107 10.9384L39.5336 10.8326L39.5689 8.24546L39.0057 8.38237C37.827 8.66355 36.7333 9.24454 35.8319 10.0683C34.9304 10.892 34.2523 11.9302 33.8641 13.0809C33.4759 14.2315 33.391 15.455 33.6176 16.6312C33.8443 17.8074 34.3748 18.8959 35.157 19.7897L35.1602 19.7865Z" fill="#6861AB"/>
</g>
<defs>
<clipPath id="clip0">
<rect width="48" height="48" fill="white"/>
</clipPath>
</defs>
</svg>
