<?xml version="1.0" encoding="UTF-8"?>
<svg width="66px" height="64px" viewBox="0 0 66 64" version="1.1" xmlns="http://www.w3.org/2000/svg" xmlns:xlink="http://www.w3.org/1999/xlink">
    <title>C7D935BB-AE34-4C57-AEB5-9781048A60D2</title>
    <g id="Page-1" stroke="none" stroke-width="1" fill="none" fill-rule="evenodd">
        <g id="open-copy-24" transform="translate(-193.000000, -4547.000000)" fill-rule="nonzero">
            <g id="Beneficiary" transform="translate(194.000000, 4547.000000)">
                <rect id="Rectangle_2177" fill-opacity="0" fill="#FFFFFF" x="0.205" y="0" width="64" height="64"></rect>
                <g id="signup" transform="translate(1.000000, 10.000000)">
                    <circle id="Ellipse_1101" fill="#ED2891" opacity="0.4" cx="53.504" cy="9.395" r="9.371"></circle>
                    <g id="Group_1172" transform="translate(22.116000, 22.025000)" fill="#6861AB">
                        <circle id="Ellipse_1111" cx="6.59" cy="3.5" r="3.5"></circle>
                        <path d="M6.659,8.283 C10.337,8.283 13.318,10.668 13.318,13.61 L0,13.61 C0,10.668 2.981,8.283 6.659,8.283 Z" id="Path_148"></path>
                    </g>
                    <g id="Group_1174" transform="translate(6.560000, 22.025000)" fill="#6861AB">
                        <circle id="Ellipse_1111-2" cx="6.145" cy="3.5" r="3.5"></circle>
                        <path d="M6.659,8.283 C10.337,8.283 13.318,10.668 13.318,13.61 L0,13.61 C0,10.668 2.981,8.283 6.659,8.283 Z" id="Path_148-2"></path>
                    </g>
                    <g id="Group_1173" transform="translate(37.671000, 22.025000)" fill="#6861AB">
                        <circle id="Ellipse_1111-3" cx="7.034" cy="3.5" r="3.5"></circle>
                        <path d="M6.659,8.283 C10.337,8.283 13.318,10.668 13.318,13.61 L0,13.61 C0,10.668 2.981,8.283 6.659,8.283 Z" id="Path_148-3"></path>
                    </g>
                    <path d="M48.229,3.981 L8,3.981 C2.4771525,3.981 -2,8.4581525 -2,13.981 L-2,36.404 C-2,41.9268475 2.4771525,46.404 8,46.404 L48.229,46.404 C53.7518475,46.404 58.229,41.9268475 58.229,36.404 L58.229,13.981 C58.229,8.4581525 53.7518475,3.981 48.229,3.981 Z M8,7.981 L48.229,7.981 C51.5427085,7.981 54.229,10.6672915 54.229,13.981 L54.229,36.404 C54.229,39.7177085 51.5427085,42.404 48.229,42.404 L8,42.404 C4.6862915,42.404 2,39.7177085 2,36.404 L2,13.981 C2,10.6672915 4.6862915,7.981 8,7.981 Z" id="Rectangle_2158" fill="#6861AB"></path>
                    <path d="M55.676,35.407 C56.5044271,35.407 57.176,36.0785729 57.176,36.907 C57.176,37.6866961 56.5811119,38.3274487 55.82046,38.4001334 L55.676,38.407 L1.617,38.407 C0.788572875,38.407 0.117,37.7354271 0.117,36.907 C0.117,36.1273039 0.711888083,35.4865513 1.47253999,35.4138666 L1.617,35.407 L55.676,35.407 Z" id="Path_129" fill="#6861AB"></path>
                    <path d="M16.498,1.878 C17.3264271,1.878 17.998,2.54957288 17.998,3.378 C17.998,4.15769612 17.4031119,4.79844868 16.64246,4.87113342 L16.498,4.878 L9.742,4.878 C8.91357288,4.878 8.242,4.20642712 8.242,3.378 C8.242,2.59830388 8.83688808,1.95755132 9.59753999,1.88486658 L9.742,1.878 L16.498,1.878 Z" id="Path_129-2" fill="#6861AB" transform="translate(13.120000, 3.378000) rotate(90.000000) translate(-13.120000, -3.378000) "></path>
                    <path d="M31.493,1.878 C32.3214271,1.878 32.993,2.54957288 32.993,3.378 C32.993,4.15769612 32.3981119,4.79844868 31.63746,4.87113342 L31.493,4.878 L24.737,4.878 C23.9085729,4.878 23.237,4.20642712 23.237,3.378 C23.237,2.59830388 23.8318881,1.95755132 24.59254,1.88486658 L24.737,1.878 L31.493,1.878 Z" id="Path_129-3" fill="#6861AB" transform="translate(28.115000, 3.378000) rotate(90.000000) translate(-28.115000, -3.378000) "></path>
                    <path d="M45.55,1.878 C46.3784271,1.878 47.05,2.54957288 47.05,3.378 C47.05,4.15769612 46.4551119,4.79844868 45.69446,4.87113342 L45.55,4.878 L38.794,4.878 C37.9655729,4.878 37.294,4.20642712 37.294,3.378 C37.294,2.59830388 37.8888881,1.95755132 38.64954,1.88486658 L38.794,1.878 L45.55,1.878 Z" id="Path_129-4" fill="#6861AB" transform="translate(42.172000, 3.378000) rotate(90.000000) translate(-42.172000, -3.378000) "></path>
                    <polygon id="Path_128" fill="#6861AB" transform="translate(13.021534, 12.087688) rotate(128.015660) translate(-13.021534, -12.087688) " points="10.4080115 9.17860636 11.9423182 11.0789863 7.39740951 14.5156735 7.39740951 14.5156735 9.07274448 16.5970896 13.4056108 13.1023909 14.8989094 14.8797462 18.6456585 7.57828639"></polygon>
                    <polygon id="Path_245" fill="#6861AB" transform="translate(28.016534, 12.087688) rotate(128.015660) translate(-28.016534, -12.087688) " points="25.4030115 9.17860636 26.9373182 11.0789863 22.3924095 14.5156735 22.3924095 14.5156735 24.0677445 16.5970896 28.4006108 13.1023909 29.8939094 14.8797462 33.6406585 7.57828639"></polygon>
                    <polygon id="Path_246" fill="#6861AB" transform="translate(42.073534, 12.087688) rotate(128.015660) translate(-42.073534, -12.087688) " points="39.4600115 9.17860636 40.9943182 11.0789863 36.4494095 14.5156735 36.4494095 14.5156735 38.1247445 16.5970896 42.4576108 13.1023909 43.9509094 14.8797462 47.6976585 7.57828639"></polygon>
                </g>
            </g>
        </g>
    </g>
</svg>