<svg width="48" height="48" viewBox="0 0 48 48" fill="none" xmlns="http://www.w3.org/2000/svg">
<path opacity="0.4" d="M6.843 18.936C10.6223 18.936 13.686 15.8723 13.686 12.093C13.686 8.31371 10.6223 5.25 6.843 5.25C3.06371 5.25 0 8.31371 0 12.093C0 15.8723 3.06371 18.936 6.843 18.936Z" fill="#FF1391"/>
<path d="M27.75 9H13.5C9.35786 9 6 12.3579 6 16.5V30C6 34.1421 9.35786 37.5 13.5 37.5H39C43.1421 37.5 46.5 34.1421 46.5 30V21.75" stroke="#6861AB" stroke-width="3" stroke-linecap="round" stroke-linejoin="round"/>
<path d="M24 18.75H28.5" stroke="#6861AB" stroke-width="2.25" stroke-linecap="round"/>
<path d="M24 24.75H36" stroke="#6861AB" stroke-width="2.25" stroke-linecap="round"/>
<path d="M24 30.75H36" stroke="#6861AB" stroke-width="2.25" stroke-linecap="round"/>
<path d="M19.2842 20.3326H18.0722C17.9554 19.899 17.7805 19.483 17.5522 19.0959H19.37C19.4917 19.0896 19.611 19.0595 19.7211 19.0073C19.8311 18.9551 19.9298 18.8819 20.0114 18.7918C20.093 18.7017 20.1559 18.5965 20.1967 18.4821C20.2374 18.3678 20.2551 18.2466 20.2487 18.1255C20.2424 18.0044 20.2121 17.8857 20.1597 17.7762C20.1073 17.6667 20.0336 17.5686 19.9431 17.4874C19.8525 17.4062 19.7468 17.3436 19.6319 17.3031C19.517 17.2626 19.3952 17.2449 19.2734 17.2513H12.177C11.9312 17.2513 11.6954 17.3484 11.5215 17.5214C11.3477 17.6944 11.25 17.929 11.25 18.1736C11.25 18.4182 11.3477 18.6528 11.5215 18.8257C11.6954 18.9987 11.9312 19.0959 12.177 19.0959H14.2165C14.6195 19.1042 15.0121 19.2244 15.35 19.443C15.688 19.6615 15.9579 19.9696 16.1293 20.3326H12.177C11.9312 20.3326 11.6954 20.4297 11.5215 20.6027C11.3477 20.7757 11.25 21.0103 11.25 21.2549C11.25 21.4995 11.3477 21.7341 11.5215 21.907C11.6954 22.08 11.9312 22.1772 12.177 22.1772H16.13C16.0183 22.3926 15.8803 22.5934 15.7191 22.7751C15.5241 22.9752 15.2912 23.1346 15.0338 23.2443C14.7763 23.3539 14.4996 23.4116 14.2196 23.4138H12.1631C11.9263 23.4108 11.6979 23.501 11.5277 23.6649C11.3575 23.8287 11.2593 24.0529 11.2546 24.2885C11.2502 24.4175 11.2735 24.546 11.323 24.6653C11.3726 24.7846 11.4473 24.892 11.542 24.9802L16.6306 29.754C16.8028 29.912 17.0284 29.9998 17.2626 29.9999C17.3925 30.0014 17.5213 29.9761 17.6409 29.9257C17.7605 29.8753 17.8684 29.8009 17.9578 29.7071C18.1227 29.5301 18.2112 29.2958 18.2044 29.0545C18.1976 28.8132 18.0961 28.5842 17.9215 28.4166L14.5054 25.2078C15.3494 25.1461 16.1519 24.8194 16.7973 24.2748C17.4426 23.7301 17.8974 22.9956 18.0961 22.1772H19.3082C19.5541 22.1772 19.7899 22.08 19.9637 21.907C20.1376 21.7341 20.2352 21.4995 20.2352 21.2549C20.2352 21.0103 20.1376 20.7757 19.9637 20.6027C19.7899 20.4297 19.5541 20.3326 19.3082 20.3326H19.2842Z" fill="#6861AB"/>
<path d="M15.7538 42.5142H39.009" stroke="#6861AB" stroke-width="3" stroke-linecap="round"/>
<path d="M45.233 15.042L44.6472 14.204C45.3755 13.3075 45.8218 12.196 45.9247 11.0222L46.9028 10.8752C47.2384 10.8247 47.5412 10.6361 47.7446 10.3511C47.9479 10.066 48.0352 9.70772 47.9871 9.35508C47.939 9.00243 47.7596 8.6843 47.4882 8.47066C47.2169 8.25701 46.8759 8.16536 46.5403 8.21587L45.5426 8.36822C45.1686 7.39683 44.546 6.55314 43.7438 5.9306L44.1752 4.85652C44.306 4.52934 44.3078 4.16093 44.1801 3.83236C44.0525 3.50379 43.8058 3.24197 43.4944 3.10448C43.1829 2.967 42.8323 2.96513 42.5196 3.09927C42.2068 3.23341 41.9576 3.49259 41.8268 3.81977L41.3961 4.89233C40.3894 4.72172 39.3573 4.85376 38.4191 5.27321L37.7731 4.33853C37.6754 4.19312 37.5511 4.06962 37.4075 3.97525C37.2639 3.88088 37.1038 3.81753 36.9367 3.7889C36.7695 3.76027 36.5985 3.76693 36.4338 3.80851C36.2691 3.85008 36.114 3.92573 35.9774 4.03102C35.8409 4.13632 35.7257 4.26916 35.6385 4.42178C35.5514 4.57439 35.4941 4.74372 35.47 4.91987C35.4458 5.09602 35.4554 5.27545 35.498 5.44769C35.5406 5.61992 35.6155 5.78151 35.7183 5.92299L36.3708 6.86452C35.6798 7.73524 35.2528 8.80338 35.1448 9.93135L34.0398 10.0967C33.7167 10.1604 33.4295 10.3528 33.2382 10.6337C33.0469 10.9146 32.9662 11.2623 33.013 11.6041C33.0597 11.946 33.2304 12.2557 33.4892 12.4686C33.7481 12.6815 34.0752 12.7812 34.4023 12.7468L35.4899 12.5815C35.8629 13.5747 36.4946 14.4374 37.3126 15.0709L36.882 16.1435C36.7511 16.4707 36.7493 16.8391 36.877 17.1676C37.0047 17.4962 37.2514 17.758 37.5628 17.8955C37.8742 18.033 38.2249 18.0349 38.5376 17.9007C38.8503 17.7666 39.0995 17.5074 39.2304 17.1802L39.6611 16.1077C40.6444 16.2799 41.6538 16.1631 42.5779 15.7702L43.1724 16.6234C43.2701 16.7688 43.3944 16.8923 43.538 16.9867C43.6816 17.081 43.8417 17.1444 44.0088 17.173C44.176 17.2016 44.3469 17.195 44.5116 17.1534C44.6763 17.1118 44.8315 17.0362 44.9681 16.9309C45.1046 16.8256 45.2198 16.6928 45.307 16.5401C45.3941 16.3875 45.4514 16.2182 45.4755 16.042C45.4996 15.8659 45.4901 15.6865 45.4475 15.5142C45.4048 15.342 45.33 15.1804 45.2272 15.0389L45.233 15.042ZM39.4211 13.2854C38.8988 13.0545 38.4533 12.6661 38.1411 12.1693C37.8288 11.6725 37.6638 11.0895 37.6669 10.4942C37.6699 9.89885 37.8409 9.31783 38.1583 8.82459C38.4756 8.33135 38.925 7.94803 39.4497 7.72311C39.9743 7.49819 40.5507 7.44176 41.1059 7.56095C41.6611 7.68015 42.1701 7.96962 42.5688 8.39276C42.9674 8.81591 43.2376 9.35373 43.3453 9.93823C43.453 10.5227 43.3934 11.1277 43.1739 11.6765C43.0282 12.0412 42.8155 12.3721 42.548 12.6504C42.2805 12.9286 41.9634 13.1488 41.6149 13.2983C41.2664 13.4478 40.8933 13.5236 40.5168 13.5215C40.1404 13.5194 39.7681 13.4395 39.4211 13.2861V13.2854Z" fill="#6861AB"/>
</svg>
