<svg width="48" height="48" viewBox="0 0 48 48" fill="none" xmlns="http://www.w3.org/2000/svg">
<path opacity="0.4" d="M7.5 18C11.6421 18 15 14.6421 15 10.5C15 6.35786 11.6421 3 7.5 3C3.35786 3 0 6.35786 0 10.5C0 14.6421 3.35786 18 7.5 18Z" fill="#FF1391"/>
<path d="M33.75 27L35.25 28.5L38.25 25.5" stroke="#6861AB" stroke-width="2.4" stroke-linecap="round" stroke-linejoin="round"/>
<path d="M42 27.0107C41.9978 28.2575 41.6072 29.4726 40.8825 30.4872C40.1579 31.5018 39.1352 32.2655 37.9565 32.672C36.7778 33.0786 35.5018 33.1079 34.3057 32.7558C33.1097 32.4037 32.053 31.6878 31.2826 30.7075C30.5121 29.7272 30.0662 28.5313 30.0068 27.2859C29.9474 26.0405 30.2774 24.8075 30.9511 23.7584C31.6247 22.7092 32.6084 21.8959 33.7655 21.4316C34.9227 20.9673 36.1957 20.875 37.4077 21.1675C38.7184 21.4838 39.8843 22.2324 40.7175 23.2925C41.5506 24.3526 42.0024 25.6624 42 27.0107Z" stroke="#6861AB" stroke-width="2.4"/>
<path d="M22.1717 6H7.82954C6.15194 6.00113 4.5433 6.66777 3.35665 7.85362C2.17 9.03946 1.50227 10.6476 1.5 12.3253V19.9211C1.50178 21.5988 2.16899 23.2074 3.35524 24.3939C4.54149 25.5804 6.14993 26.2479 7.8277 26.25H22.1698C23.8477 26.2479 25.4563 25.5804 26.6427 24.394C27.8292 23.2075 28.4967 21.599 28.4988 19.9211V12.3253C28.496 10.6482 27.8285 9.04069 26.6425 7.85502C25.4564 6.66935 23.8487 6.00227 22.1717 6V6ZM7.82954 8.10842H22.1717C23.1859 8.10959 24.1659 8.47555 24.9327 9.13946C25.6995 9.80338 26.2018 10.7209 26.3481 11.7246H3.65255C3.79839 10.721 4.30049 9.80337 5.06707 9.13942C5.83366 8.47546 6.81356 8.1095 7.8277 8.10842H7.82954ZM22.1717 24.1397H7.82954C6.71108 24.1384 5.6388 23.6936 4.84793 22.9027C4.05705 22.1118 3.61217 21.0395 3.61087 19.9211V13.8349H26.3904V19.9211C26.3891 21.0395 25.9442 22.1118 25.1533 22.9027C24.3624 23.6936 23.2901 24.1384 22.1717 24.1397V24.1397Z" fill="#6861AB" stroke="#6861AB" stroke-width="0.75"/>
<path d="M7.29877 19.0813V18.5775C7.29674 18.4338 7.35088 18.295 7.44967 18.1906C7.54846 18.0862 7.6841 18.0245 7.82772 18.0186C7.90164 18.0182 7.9749 18.0324 8.04328 18.0605C8.11165 18.0886 8.17377 18.13 8.22605 18.1823C8.27832 18.2345 8.3197 18.2967 8.3478 18.365C8.3759 18.4334 8.39016 18.5067 8.38976 18.5806V18.9735C8.80776 18.797 9.25335 18.5837 9.46664 19.12C9.70629 19.7194 9.17061 19.8463 8.74586 20.0222C9.02106 20.3838 9.45071 20.7129 8.97141 21.1695C8.70357 21.427 8.46882 21.3264 7.89084 20.7503C7.80259 20.8827 7.71433 21.0126 7.63342 21.1383C7.59556 21.1993 7.54584 21.2522 7.4872 21.2937C7.42857 21.3352 7.36221 21.3645 7.29204 21.38C7.22187 21.3954 7.14933 21.3966 7.07869 21.3835C7.00805 21.3704 6.94075 21.3433 6.88076 21.3038C6.75782 21.2271 6.67023 21.1049 6.63715 20.9639C6.60407 20.8228 6.62819 20.6744 6.70425 20.5511C6.77657 20.4224 6.85748 20.301 6.95248 20.146C6.79925 20.1018 6.66134 20.0651 6.52344 20.0234C6.44503 20.0143 6.36949 19.9886 6.30189 19.9478C6.2343 19.9071 6.17624 19.8523 6.13164 19.7871C6.08704 19.722 6.05693 19.6481 6.04334 19.5704C6.02976 19.4926 6.03302 19.4129 6.0529 19.3365C6.07278 19.2601 6.10882 19.1889 6.15859 19.1276C6.20836 19.0663 6.27069 19.0165 6.34138 18.9814C6.41207 18.9463 6.48947 18.9267 6.56835 18.9241C6.64723 18.9215 6.72577 18.9358 6.79864 18.9661C6.96768 18.9936 7.13475 19.0321 7.29877 19.0813Z" fill="#6861AB"/>
<path d="M12.8714 20.0252C13.3403 20.6932 13.3825 20.9243 13.0902 21.1689C12.7978 21.4134 12.5864 21.3294 12.001 20.7545C11.9201 20.8771 11.8441 20.9997 11.7632 21.107C11.7273 21.1748 11.6777 21.2344 11.6175 21.2819C11.5572 21.3295 11.4877 21.3639 11.4134 21.3831C11.3391 21.4023 11.2617 21.4057 11.1859 21.3932C11.1102 21.3807 11.038 21.3526 10.9737 21.3106C10.9095 21.2686 10.8548 21.2137 10.813 21.1493C10.7712 21.0849 10.7433 21.0126 10.7311 20.9368C10.7189 20.8611 10.7226 20.7836 10.742 20.7094C10.7614 20.6351 10.7961 20.5658 10.8439 20.5057C10.9107 20.3947 10.983 20.2869 11.0749 20.1379L10.671 20.0215C10.5961 20.0078 10.5248 19.9792 10.4613 19.9371C10.3978 19.8951 10.3435 19.8407 10.3017 19.7771C10.2598 19.7135 10.2314 19.6421 10.2179 19.5671C10.2045 19.4922 10.2064 19.4153 10.2236 19.3411C10.2455 19.2663 10.2823 19.1967 10.3318 19.1365C10.3813 19.0763 10.4425 19.0268 10.5117 18.9909C10.5809 18.955 10.6566 18.9335 10.7344 18.9276C10.8121 18.9218 10.8902 18.9317 10.964 18.9569L11.4028 19.0678V18.5585C11.4015 18.4136 11.4578 18.2741 11.5593 18.1706C11.6608 18.0672 11.7991 18.0083 11.944 18.0068C12.0889 18.0068 12.2279 18.0638 12.3311 18.1654C12.4343 18.267 12.4934 18.4051 12.4957 18.5499C12.4957 18.6725 12.4957 18.795 12.4957 18.9569C12.9247 18.7914 13.4107 18.5603 13.5989 19.1787C13.7828 19.7628 13.2416 19.8419 12.8714 20.0252Z" fill="#6861AB"/>
<path d="M15.4546 19.0813V18.5775C15.4526 18.4338 15.5067 18.295 15.6055 18.1906C15.7043 18.0862 15.84 18.0245 15.9836 18.0186C16.0575 18.0182 16.1308 18.0324 16.1992 18.0605C16.2675 18.0886 16.3296 18.13 16.3819 18.1823C16.4342 18.2345 16.4756 18.2967 16.5037 18.365C16.5318 18.4334 16.546 18.5067 16.5456 18.5806V18.9735C16.9636 18.797 17.4111 18.5837 17.6244 19.12C17.864 19.7194 17.3283 19.8463 16.9036 20.0222C17.1788 20.3838 17.6084 20.7129 17.1291 21.1695C16.8613 21.427 16.6265 21.3264 16.0486 20.7503C15.9603 20.8827 15.872 21.0126 15.7911 21.1383C15.7533 21.1993 15.7036 21.2522 15.6449 21.2937C15.5863 21.3352 15.5199 21.3645 15.4498 21.38C15.3796 21.3954 15.307 21.3966 15.2364 21.3835C15.1658 21.3704 15.0985 21.3433 15.0385 21.3038C14.9773 21.2661 14.9242 21.2167 14.8821 21.1584C14.8401 21.1001 14.81 21.0341 14.7936 20.9642C14.7772 20.8942 14.7748 20.8217 14.7865 20.7508C14.7983 20.6799 14.8239 20.6121 14.862 20.5511C14.9324 20.4224 15.0152 20.301 15.1102 20.146C14.957 20.1018 14.8197 20.0651 14.6811 20.0234C14.6027 20.0143 14.5272 19.9886 14.4596 19.9478C14.392 19.9071 14.334 19.8523 14.2894 19.7871C14.2447 19.722 14.2146 19.6481 14.2011 19.5704C14.1875 19.4926 14.1907 19.4129 14.2106 19.3365C14.2305 19.2601 14.2665 19.1889 14.3163 19.1276C14.3661 19.0663 14.4284 19.0165 14.4991 18.9814C14.5698 18.9463 14.6472 18.9267 14.7261 18.9241C14.8049 18.9215 14.8835 18.9358 14.9563 18.9661C15.1247 18.994 15.2911 19.0325 15.4546 19.0813Z" fill="#6861AB"/>
<path d="M21.0277 20.0256C21.4985 20.6937 21.5389 20.9248 21.2478 21.1693C20.9566 21.4139 20.744 21.3299 20.1568 20.755C20.0777 20.8776 20.0017 21.0002 19.9208 21.1074C19.8849 21.1753 19.8353 21.2349 19.7751 21.2824C19.7148 21.33 19.6453 21.3644 19.571 21.3836C19.4967 21.4027 19.4192 21.4062 19.3435 21.3937C19.2678 21.3812 19.1955 21.3531 19.1313 21.3111C19.0671 21.2691 19.0123 21.2142 18.9706 21.1498C18.9288 21.0854 18.9009 21.0131 18.8887 20.9373C18.8764 20.8616 18.8802 20.7841 18.8996 20.7098C18.919 20.6356 18.9537 20.5662 19.0014 20.5062C19.0683 20.3952 19.1387 20.2874 19.2325 20.1384L18.8286 20.022C18.7537 20.0083 18.6824 19.9796 18.6189 19.9376C18.5554 19.8956 18.5011 19.8412 18.4593 19.7776C18.4174 19.714 18.3889 19.6426 18.3755 19.5676C18.3621 19.4927 18.364 19.4158 18.3812 19.3416C18.4031 19.2668 18.4399 19.1972 18.4894 19.137C18.5389 19.0768 18.6001 19.0273 18.6693 18.9914C18.7385 18.9555 18.8142 18.9339 18.892 18.9281C18.9697 18.9222 19.0478 18.9322 19.1216 18.9573L19.5659 19.0701V18.5608C19.565 18.4156 19.6217 18.276 19.7237 18.1727C19.8256 18.0694 19.9644 18.0108 20.1096 18.0098C20.2548 18.0088 20.3944 18.0655 20.4977 18.1675C20.601 18.2694 20.6596 18.4083 20.6606 18.5534V18.9604C21.0896 18.7949 21.5757 18.5639 21.7638 19.1823C21.933 19.7633 21.3998 19.8424 21.0277 20.0256Z" fill="#6861AB"/>
<path d="M15.7538 42.5142H39.009" stroke="#6861AB" stroke-width="3" stroke-linecap="round"/>
<path d="M6 29.0625V30C6 34.1421 9.35786 37.5 13.5 37.5H39C43.1421 37.5 46.5 34.1421 46.5 30V16.5C46.5 12.3579 43.1421 9 39 9H36.375H31.3125" stroke="#6861AB" stroke-width="3"/>
</svg>
