<?xml version="1.0" encoding="UTF-8"?>
<svg width="20px" height="21px" viewBox="0 0 20 21" version="1.1" xmlns="http://www.w3.org/2000/svg" xmlns:xlink="http://www.w3.org/1999/xlink">
    <!-- Generator: sketchtool 63.1 (101010) - https://sketch.com -->
    <title>3C754619-B702-4C07-BF25-3A1F0A4C5265@1.5x</title>
    <desc>Created with sketchtool.</desc>
    <g id="Home+Pricing+About-Us" stroke="none" stroke-width="1" fill="none" fill-rule="evenodd">
        <g id="top_tab_dropdown" transform="translate(-735.000000, -522.000000)" fill-rule="nonzero">
            <g id="developers_menu_icon" transform="translate(735.000000, 522.000000)">
                <path d="M3.1084507,17.7042254 C3.1084507,16.8485729 3.80209405,16.1549296 4.65774648,16.1549296 L2.33098592,16.1549296 C1.47261096,16.1549296 0.776760563,16.85078 0.776760563,17.7091549 C0.776760563,18.5675299 1.47261096,19.2633907 2.33098592,19.2633907 L4.66338028,19.2633907 C4.24979201,19.2648926 3.85276799,19.1009745 3.56071205,18.808125 C3.2686561,18.5152754 3.105816,18.117808 3.1084507,17.7042254 L3.1084507,17.7042254 Z" id="Path" fill="#C89FF0" opacity="0.2"></path>
                <path d="M17.5633803,14.0126761 C17.135643,14.0126761 16.7882402,13.6671675 16.7859155,13.2394366 L16.7859155,7.52394366 C16.7865103,6.48846639 16.2709879,5.52080546 15.4112676,4.94366197 C15.0550051,4.70369036 14.9607326,4.22034707 15.2007042,3.86408451 C15.4406758,3.50782196 15.9240191,3.41354952 16.2802817,3.65352113 C17.5688476,4.51998949 18.3414267,5.9711497 18.3408454,7.52394366 L18.3408454,13.2394366 C18.3385204,13.6671675 17.9911175,14.0126761 17.5633803,14.0126761 L17.5633803,14.0126761 Z M3.1084507,13.2394366 L3.1084507,7.52394366 C3.10785592,6.48846639 3.62337833,5.52080546 4.48309859,4.94366197 C4.7184621,4.79072467 4.85311561,4.52279652 4.83539933,4.24266809 C4.81768304,3.96253967 4.65034802,3.71371031 4.39759229,3.59164334 C4.14483656,3.46957638 3.84590895,3.4932268 3.61549296,3.65352113 C2.32420901,4.51818524 1.54922267,5.96989789 1.54929577,7.52394366 L1.54929577,13.2394366 C1.52432634,13.5319634 1.6662711,13.8136077 1.91625948,13.9675597 C2.16624787,14.1215116 2.48163945,14.1215116 2.73162784,13.9675597 C2.98161623,13.8136077 3.12356099,13.5319634 3.09859155,13.2394366 L3.1084507,13.2394366 Z M19.8943662,17.7042254 C19.8935892,16.4171793 18.8504263,15.3740164 17.5633803,15.3732394 L2.33098592,15.3732394 C1.04361797,15.3732394 6.94687945e-08,16.4168574 6.94687945e-08,17.7042254 C6.94687945e-08,18.9915933 1.04361797,20.0352113 2.33098592,20.0352113 L17.5633803,20.0352113 C18.8504263,20.0344343 19.8935892,18.9912714 19.8943662,17.7042254 Z M17.5633803,16.9267606 C17.9656679,16.9610989 18.2747228,17.2976579 18.2747228,17.7014085 C18.2747228,18.105159 17.9656679,18.441718 17.5633803,18.4760563 L2.33098592,18.4760563 C1.92869826,18.441718 1.61964335,18.105159 1.61964335,17.7014085 C1.61964335,17.2976579 1.92869826,16.9610989 2.33098592,16.9267606 L17.5633803,16.9267606 Z" id="Shape" fill="#663399"></path>
                <path d="M13.6887324,6.11971831 L13.171831,5.8084507 C13.3802503,5.15470723 13.3802503,4.45233502 13.171831,3.79859155 L13.6887324,3.48873239 C13.9366104,3.3506101 14.0895486,3.08841054 14.0877641,2.80465353 C14.0859481,2.52089653 13.9296953,2.2606586 13.6800847,2.12569258 C13.4304741,1.99072656 13.1271579,2.0024726 12.8887324,2.15633803 L12.3619718,2.47183099 C11.9331472,2.04111614 11.3935277,1.7374278 10.8028169,1.5943662 L10.8028169,0.918309859 C10.8277863,0.625783076 10.6858416,0.344138734 10.4358532,0.190186799 C10.1858648,0.0362348636 9.87047322,0.0362348636 9.62048484,0.190186799 C9.37049645,0.344138734 9.22855169,0.625783076 9.25352113,0.918309859 L9.25352113,1.5943662 C8.64946437,1.74097671 8.09918275,2.05542335 7.66619718,2.50140845 L7.08873239,2.15492958 C6.72041292,1.93401568 6.24274489,2.05351151 6.02183099,2.42183099 C5.80091709,2.79015046 5.92041292,3.26781849 6.28873239,3.48873239 L6.87183099,3.83802817 C6.68024072,4.46743311 6.68024072,5.13960914 6.87183099,5.76901408 L6.28873239,6.11971831 C6.04085438,6.2578406 5.88791614,6.52004017 5.88970069,6.80379717 C5.89151668,7.08755417 6.04776948,7.3477921 6.29738007,7.48275813 C6.54699067,7.61772415 6.85030692,7.6059781 7.08873239,7.45211268 L7.66619718,7.1056338 C8.09751138,7.55116018 8.64572077,7.86602666 9.24788732,8.01408451 L9.24788732,8.69014085 C9.2822257,9.0924285 9.61878469,9.40148341 10.0225352,9.40148341 C10.4262857,9.40148341 10.7628447,9.0924285 10.7971831,8.69014085 L10.7971831,8.01408451 C11.3877775,7.8699388 11.9272373,7.56585307 12.356338,7.13521127 L12.8830986,7.45211268 C13.2496262,7.65634875 13.7120894,7.53290322 13.9280779,7.17317582 C14.1440665,6.81344842 14.0356491,6.34723314 13.6830986,6.11971831 L13.6887324,6.11971831 Z M10.0267606,6.55211496 C9.31885311,6.5532524 8.68004323,6.12762107 8.40848028,5.47387202 C8.13691732,4.82012297 8.28614185,4.06714746 8.78650686,3.56637893 C9.28687187,3.0656104 10.0397268,2.91577893 10.6936946,3.18681479 C11.3476623,3.45785065 11.7738085,4.09631721 11.77324,4.80422535 C11.7716885,5.76891371 10.9900405,6.55056173 10.0253521,6.55211496 L10.0267606,6.55211496 Z" id="Shape" fill="#C89FF0"></path>
            </g>
        </g>
    </g>
</svg>