<svg width="48" height="48" viewBox="0 0 48 48" fill="none" xmlns="http://www.w3.org/2000/svg">
<path opacity="0.4" d="M41.157 21.0781C37.3777 21.0781 34.314 18.0144 34.314 14.2351C34.314 10.4558 37.3777 7.39209 41.157 7.39209C44.9363 7.39209 48 10.4558 48 14.2351C48 18.0144 44.9363 21.0781 41.157 21.0781Z" fill="#FF1391"/>
<path d="M42.75 20.25H41.25C37.1079 20.25 33.75 16.8921 33.75 12.75V11.25M33.75 11.25H36.75C40.0637 11.25 42.75 13.9363 42.75 17.25V33.75C42.75 37.0637 40.0637 39.75 36.75 39.75H8.25C4.93629 39.75 2.25 37.0637 2.25 33.75V30.75M33.75 11.25H19.875M42.75 30.75H41.25C37.1079 30.75 33.75 34.1079 33.75 38.25V39.75M2.25 30.75H3.75C7.89214 30.75 11.25 34.1079 11.25 38.25V39.75M2.25 30.75V24.75M22.5 21C20.0147 21 18 23.0147 18 25.5C18 27.9853 20.0147 30 22.5 30C24.9853 30 27 27.9853 27 25.5C27 23.0147 24.9853 21 22.5 21Z" stroke="#6861AB" stroke-width="3" stroke-linecap="round" stroke-linejoin="round"/>
<path d="M3.04369 17.7462L3.68811 16.8244C2.88694 15.8382 2.39604 14.6155 2.28283 13.3244L1.20694 13.1627C0.837731 13.1071 0.504646 12.8997 0.280966 12.5862C0.0572858 12.2726 -0.0386695 11.8785 0.0142111 11.4906C0.0670917 11.1027 0.264476 10.7527 0.562941 10.5177C0.861405 10.2827 1.2365 10.1819 1.60572 10.2375L2.70314 10.405C3.11452 9.33651 3.79937 8.40845 4.68185 7.72366L4.20731 6.54218C4.06337 6.18227 4.06141 5.77703 4.20185 5.4156C4.3423 5.05417 4.61365 4.76616 4.95621 4.61493C5.29877 4.4637 5.68448 4.46164 6.02849 4.6092C6.37249 4.75675 6.64662 5.04184 6.79056 5.40175L7.26431 6.58156C8.37165 6.39389 9.50692 6.53914 10.539 7.00053L11.2496 5.97238C11.3571 5.81243 11.4938 5.67659 11.6517 5.57278C11.8097 5.46897 11.9858 5.39928 12.1697 5.36779C12.3536 5.33629 12.5416 5.34363 12.7228 5.38936C12.9039 5.43509 13.0746 5.5183 13.2248 5.63413C13.375 5.74996 13.5018 5.89608 13.5976 6.06396C13.6935 6.23183 13.7565 6.4181 13.783 6.61186C13.8096 6.80562 13.7991 7.003 13.7522 7.19246C13.7053 7.38192 13.6229 7.55966 13.5099 7.71528L12.7921 8.75097C13.5522 9.70876 14.0219 10.8837 14.1407 12.1245L15.3562 12.3063C15.7116 12.3765 16.0275 12.5881 16.238 12.8971C16.4484 13.2061 16.5372 13.5885 16.4857 13.9646C16.4343 14.3406 16.2466 14.6813 15.9619 14.9155C15.6771 15.1497 15.3173 15.2593 14.9574 15.2215L13.7611 15.0396C13.3508 16.1321 12.6559 17.0812 11.7561 17.778L12.2298 18.9578C12.3738 19.3177 12.3757 19.723 12.2353 20.0844C12.0948 20.4458 11.8235 20.7338 11.4809 20.8851C11.1384 21.0363 10.7527 21.0384 10.4087 20.8908C10.0646 20.7432 9.79052 20.4582 9.64658 20.0983L9.17283 18.9184C8.09121 19.1079 6.98077 18.9795 5.96431 18.5472L5.31032 19.4857C5.20289 19.6457 5.0662 19.7815 4.90823 19.8853C4.75026 19.9891 4.57418 20.0588 4.39028 20.0903C4.20638 20.1218 4.01836 20.1145 3.83719 20.0687C3.65602 20.023 3.48534 19.9398 3.33513 19.824C3.18492 19.7081 3.05819 19.562 2.96235 19.3942C2.86651 19.2263 2.80347 19.04 2.77693 18.8462C2.75039 18.6525 2.76088 18.4551 2.80778 18.2656C2.85468 18.0762 2.93704 17.8984 3.05007 17.7428L3.04369 17.7462ZM9.43682 15.8139C10.0114 15.5599 10.5014 15.1327 10.8448 14.5862C11.1883 14.0397 11.3698 13.3985 11.3664 12.7436C11.3631 12.0887 11.175 11.4496 10.8259 10.907C10.4768 10.3645 9.98249 9.94283 9.40536 9.69542C8.82823 9.44801 8.19424 9.38593 7.58353 9.51705C6.97283 9.64816 6.41284 9.96658 5.97437 10.432C5.53589 10.8975 5.23862 11.4891 5.12014 12.1321C5.00166 12.775 5.06728 13.4404 5.30872 14.0442C5.46902 14.4453 5.70298 14.8093 5.99722 15.1154C6.29147 15.4215 6.64024 15.6637 7.0236 15.8281C7.40696 15.9925 7.81741 16.076 8.23148 16.0737C8.64555 16.0714 9.05513 15.9834 9.43682 15.8147V15.8139Z" fill="#6861AB"/>
</svg>
