<?xml version="1.0" encoding="UTF-8"?>
<svg width="16px" height="20px" viewBox="0 0 16 20" version="1.1" xmlns="http://www.w3.org/2000/svg" xmlns:xlink="http://www.w3.org/1999/xlink">
    <!-- Generator: sketchtool 63.1 (101010) - https://sketch.com -->
    <title>FB2CBF9A-3BA8-47B1-BAF5-E6AC92893172@1.5x</title>
    <desc>Created with sketchtool.</desc>
    <g id="Home+Pricing+About-Us" stroke="none" stroke-width="1" fill="none" fill-rule="evenodd">
        <g id="top_tab_dropdown" transform="translate(-737.000000, -319.000000)" fill-rule="nonzero">
            <g id="freelancer_menu_icon" transform="translate(737.000000, 319.000000)">
                <path d="M5.58591549,5.24225352 C5.58597053,3.30693913 6.8324691,1.59186629 8.67323944,0.994366197 C6.83417133,0.399208857 4.82098251,1.0550804 3.68542322,2.61933385 C2.54986393,4.1835873 2.54986393,6.30091974 3.68542322,7.86517319 C4.82098251,9.42942665 6.83417133,10.0852982 8.67323944,9.49014085 C6.8324691,8.89264076 5.58597053,7.17756791 5.58591549,5.24225352 Z" id="Path" fill="#C89FF0" opacity="0.2"></path>
                <path d="M14.6633803,19.8816901 C14.4573131,19.8816905 14.2597064,19.7997343 14.114127,19.6538908 C13.9685477,19.5080472 13.88695,19.3102922 13.8873239,19.1042254 C13.8834441,16.0604891 11.4169757,13.5940207 8.37323944,13.5901408 L7.2084507,13.5901408 C4.16306448,13.5916921 1.69402487,16.0588412 1.69014085,19.1042254 C1.71511028,19.3967521 1.57316552,19.6783965 1.32317714,19.8323484 C1.07318875,19.9863003 0.757797167,19.9863003 0.50780878,19.8323484 C0.257820393,19.6783965 0.115875634,19.3967521 0.14084507,19.1042254 C0.145503114,15.2030537 3.30727817,12.0419087 7.2084507,12.0380282 L8.37323944,12.0380282 C12.273862,12.0426847 15.4347801,15.2036028 15.4394379,19.1042254 C15.4398106,19.3102922 15.3582129,19.5080472 15.2126335,19.6538908 C15.0670542,19.7997343 14.8694475,19.8816905 14.6633803,19.8816901 Z M12.9577465,5.24225352 C12.9577465,2.34740363 10.6112813,0.000519073762 7.71643142,7.54985674e-07 C4.82158157,-0.00051739211 2.47427666,2.34552689 2.47323943,5.2403766 C2.47220289,8.1352263 4.81782658,10.4829515 7.71267606,10.484507 C10.6073843,10.4821796 12.953864,8.13696013 12.9577465,5.24225352 Z M11.4084507,5.24225352 C11.4061151,7.27801503 9.75501041,8.92701494 7.71924758,8.92675381 C5.68348474,8.92649268 4.03280318,7.27706925 4.03098831,5.24130721 C4.02917644,3.20554516 5.67691692,1.55318364 7.71267606,1.5492947 C8.69259732,1.54854831 9.6326394,1.93729667 10.3258127,2.62994163 C11.018986,3.32258658 11.4084507,4.26233198 11.4084507,5.24225352 Z" id="Shape" fill="#663399"></path>
                <path d="M7.74647887,19.8816901 C7.60933937,19.881896 7.47463967,19.845425 7.35633803,19.7760563 L4.21126761,17.9450704 C4.03190981,17.8400168 3.90282383,17.6667163 3.85352113,17.4647887 C3.80274446,17.2621309 3.83520605,17.04758 3.94366197,16.8690141 L5.1084507,14.9661972 C5.25311811,14.7294458 5.51310165,14.5878577 5.79046803,14.5947677 C6.06783442,14.6016776 6.32044511,14.7560359 6.45314409,14.9996973 C6.58584307,15.2433586 6.57847022,15.539305 6.43380282,15.7760563 L5.68450704,17.0014085 L7.75633803,18.2042254 L9.88169014,17 L9.11408451,15.7859155 C8.92995575,15.4279875 9.05004439,14.9886915 9.39065092,14.7742084 C9.73125746,14.5597252 10.1793147,14.6412545 10.4225352,14.9619718 L11.6267606,16.8647887 C11.74072,17.0441438 11.775998,17.2624378 11.7243346,17.4685589 C11.6726712,17.6746799 11.538603,17.850528 11.3535211,17.9549296 L8.12957746,19.7859155 C8.01331969,19.8523082 7.88176733,19.8872594 7.74788732,19.8873239 L7.74647887,19.8816901 Z" id="Path" fill="#C89FF0"></path>
            </g>
        </g>
    </g>
</svg>