<?xml version="1.0" encoding="UTF-8"?>
<svg width="50px" height="50px" viewBox="0 0 50 50" version="1.1" xmlns="http://www.w3.org/2000/svg" xmlns:xlink="http://www.w3.org/1999/xlink">
    <title>207873DC-A0AC-426F-A26E-377AA18060F5</title>
    <g id="Page-1" stroke="none" stroke-width="1" fill="none" fill-rule="evenodd">
        <g id="open-copy-24" transform="translate(-114.000000, -5413.000000)" fill-rule="nonzero">
            <g id="Income-&amp;-Expenses" transform="translate(114.000000, 5413.000000)">
                <rect id="Rectangle_2179" fill-opacity="0" fill="#FFFFFF" x="0" y="0" width="50" height="50"></rect>
                <g id="Expense_Management" transform="translate(7.587500, 0.858594)">
                    <circle id="Ellipse_1123" fill="#ED2891" opacity="0.4" cx="25.6320312" cy="9.40859375" r="9.40859375"></circle>
                    <path d="M23.6578125,20.3421875 C25.5080006,23.1035083 27.0534821,26.0572115 28.2671875,29.1515625 C29.7671875,33.3953125 29.2984375,34.1085937 29.3226562,35.8851563 C29.3226562,38.6125 28.6554687,44.9601563 22.4710937,44.9601563 L10.4734375,44.9601563 C5.0828125,44.9601563 3.17578125,40.0710938 3.17578125,35.8851563 C3.17578125,28.8757813 7.91875,19.4960938 13.1429688,16.1492187 L19.3539063,16.1492187 C19.8784365,16.4895866 20.3778936,16.8671166 20.8484375,17.2789062 L20.8484375,17.2789062 C21.8913634,18.197937 22.8341122,19.2247476 23.6609375,20.3421875 C24.5821552,19.7782198 25.544508,19.2843774 26.5398438,18.8648438 C26.3359375,18.5890625 26.1320313,18.3179688 25.9234375,18.0492188 L25.8828125,17.9960938 C25.74375,17.8210938 25.6046875,17.6484375 25.4632812,17.4804688 C25.4203125,17.4273438 25.3765625,17.3726563 25.33125,17.3242188 L25.2953125,17.2789063 L25.2953125,17.2789063 C24.9640625,16.8882813 24.6234375,16.5085937 24.2796875,16.1515625 L27.175,16.1515625 L27.175,12.9726563 L24.0992188,12.9726563 L26.60625,10.9671875 C27.7320187,10.0798178 28.1707076,8.57587206 27.6985726,7.22240666 C27.2264376,5.86894125 25.9475028,4.96416137 24.5140625,4.96948633 L7.9859375,4.96948633 C6.55163368,4.96214536 5.27085046,5.86621666 4.79748483,7.2201764 C4.3241192,8.57413613 4.76259971,10.0792891 5.8890625,10.9671875 L8.3984375,12.9726563 L5.33046875,12.9726563 L5.33046875,16.1492188 L8.2421875,16.1492188 C3.44453125,21.1492188 -0.003125,29.3429688 -0.003125,35.8851563 C-0.003125,41.9828125 3.23515625,48.134375 10.4703125,48.134375 L22.4648438,48.134375 C28.1578125,48.134375 31.8640625,44.1570313 32.4179688,37.6320313 L32.4179688,37.6320313 C32.4876598,37.0659808 32.5285978,36.4967601 32.540625,35.9265625 C32.4544175,32.7257118 31.8166809,29.5637223 30.6554688,26.5796875 C29.4953125,23.5851563 26.8398438,19.8609375 26.5367187,18.8640625 C21.4445312,16.8554688 24.7539062,20.1734375 23.6578125,20.3414063 L23.6578125,20.3421875 Z M7.87109375,8.48671875 L7.87109375,8.48671875 C7.8001036,8.44321584 7.77401394,8.35274909 7.8109375,8.278125 C7.82672359,8.19757642 7.90214293,8.14297418 7.98359375,8.153125 L24.509375,8.153125 C24.5907308,8.14443476 24.6650139,8.1999767 24.6796875,8.28046875 C24.7150282,8.3557695 24.6881122,8.44560157 24.6171875,8.4890625 L19.0109375,12.9726562 L13.4820312,12.9726562 L7.87109375,8.48671875 Z" id="Path_126" fill="#6861AB"></path>
                    <path d="M20.865625,28.1367187 L19.1703125,28.1367187 C19.0072136,27.5270701 18.7628341,26.9421359 18.44375,26.3976562 L20.9867187,26.3976562 C21.6758832,26.329888 22.1898557,25.7320546 22.1534813,25.0405222 C22.1171068,24.3489898 21.5432522,23.8083758 20.8507813,23.8132481 L10.9195312,23.8132481 C10.2039342,23.8132481 9.62382812,24.3933873 9.62382812,25.1089844 C9.62382812,25.8245815 10.2039342,26.4046875 10.9195312,26.4046875 L13.7726562,26.4046875 C14.9226832,26.4284861 15.9596988,27.1024706 16.4484375,28.14375 L10.9195313,28.14375 C10.2163262,28.1610186 9.65525606,28.7360361 9.65525606,29.4394531 C9.65525606,30.1428701 10.2163262,30.7178877 10.9195313,30.7351563 L16.4484375,30.7351563 C16.2908755,31.038167 16.0964298,31.32052 15.8695313,31.5757813 C15.3188382,32.1440814 14.563194,32.4677279 13.771875,32.4742188 L10.8945313,32.4742188 C10.2042602,32.4646347 9.63591504,33.0144773 9.62265625,33.7046875 C9.6110599,34.0704672 9.75768136,34.4234975 10.025,34.6734375 L17.1429688,41.384375 C17.383658,41.6064938 17.6990447,41.7300273 18.0265625,41.7306009 C18.393762,41.7356626 18.7465154,41.5875967 19,41.321875 C19.4785969,40.8037638 19.4560505,39.9983384 18.9492188,39.5078125 L14.1710938,34.9960937 C16.5945903,34.8179208 18.6250596,33.0938063 19.19375,30.73125 L20.8890625,30.73125 C21.6046596,30.73125 22.1847656,30.151144 22.1847656,29.4355469 C22.1847656,28.7199498 21.6046596,28.1398437 20.8890625,28.1398437 L20.865625,28.1367187 Z" id="Path_124" fill="#6861AB"></path>
                </g>
            </g>
        </g>
    </g>
</svg>