<?xml version="1.0" encoding="UTF-8"?>
<svg width="20px" height="20px" viewBox="0 0 20 20" version="1.1" xmlns="http://www.w3.org/2000/svg" xmlns:xlink="http://www.w3.org/1999/xlink">
    <title>F6150C5D-5CEE-417B-9477-310C799E3AC8@1.5x</title>
    <defs>
        <circle id="path-1" cx="10" cy="10" r="10"></circle>
    </defs>
    <g id="Home+Pricing+About-Us" stroke="none" stroke-width="1" fill="none" fill-rule="evenodd">
        <g id="home_1" transform="translate(-145.000000, -9629.000000)">
            <g id="Group-2" transform="translate(0.000000, 9490.000000)">
                <g id="india_flag" transform="translate(145.000000, 139.000000)">
                    <mask id="mask-2" fill="white">
                        <use xlink:href="#path-1"></use>
                    </mask>
                    <use id="Oval" fill="#D8D8D8" xlink:href="#path-1"></use>
                    <g id="india" mask="url(#mask-2)" fill-rule="nonzero">
                        <path d="M15.9303516,0.01078125 L4.06964844,0.01078125 C1.79589844,0.167578125 0,2.06140625 0,4.375 L0,6.67027344 L20,6.67027344 L20,4.375 C20,2.06140625 18.2041016,0.167578125 15.9303516,0.01078125 Z" id="Path" fill="#FF9933"></path>
                        <path d="M0,15.625 C0,17.9385938 1.7959375,19.8324609 4.0696875,19.9892188 L15.9303125,19.9892188 C18.2040625,19.8324609 20,17.9385938 20,15.625 L20,13.3297266 L0,13.3297266 L0,15.625 Z" id="Path" fill="#138808"></path>
                        <rect id="Rectangle" fill="#FAFAFA" x="0" y="6.6703125" width="20" height="6.659375"></rect>
                        <g id="Group" transform="translate(6.870000, 6.860000)" fill="#000080">
                            <path d="M3.134375,6.239425 C1.42220938,6.239425 0.029325,4.84654063 0.029325,3.134375 C0.029325,1.42220937 1.42220938,0.029325 3.134375,0.029325 C4.84654063,0.029325 6.239425,1.42220937 6.239425,3.134375 C6.239425,4.84654063 4.84654063,6.239425 3.134375,6.239425 Z M3.134375,0.60700625 C1.74064063,0.60700625 0.60700625,1.74064062 0.60700625,3.134375 C0.60700625,4.52810937 1.74064063,5.66174375 3.134375,5.66174375 C4.52810938,5.66174375 5.66174375,4.52810937 5.66174375,3.134375 C5.66174375,1.74064062 4.52810938,0.60700625 3.134375,0.60700625 Z" id="Shape"></path>
                            <circle id="Oval" cx="3.134375" cy="3.134375" r="1"></circle>
                            <polygon id="Path" points="3.134375 3.18718125 2.23980313 3.27749375 0.318165625 3.18718125 0.318165625 3.08156875 2.23980313 2.99125625 3.134375 3.08156875"></polygon>
                            <polygon id="Path" points="3.134375 3.18718125 4.02894687 3.27749375 5.95058438 3.18718125 5.95058438 3.08156875 4.02894687 2.99125625 3.134375 3.08156875"></polygon>
                            <polygon id="Path" points="3.08156875 3.134375 2.99125625 2.23980313 3.08156875 0.318165625 3.18718125 0.318165625 3.27749375 2.23980313 3.18718125 3.134375"></polygon>
                            <polygon id="Path" points="3.08156875 3.134375 2.99125625 4.02894687 3.08156875 5.95058438 3.18718125 5.95058438 3.27749375 4.02894687 3.18718125 3.134375"></polygon>
                            <polygon id="Path" points="3.09702813 3.17172188 2.4006125 2.60301875 1.10569063 1.18033125 1.18033125 1.10569063 2.60301875 2.4006125 3.17172188 3.09702813"></polygon>
                            <polygon id="Path" points="3.09702813 3.17172188 3.66573125 3.8681375 5.08841875 5.1631125 5.16305938 5.08841875 3.8681375 3.66573125 3.17172188 3.09702813"></polygon>
                            <polygon id="Path" points="3.09702813 3.09702813 3.66573125 2.4006125 5.08841875 1.10569063 5.16305938 1.18033125 3.8681375 2.60301875 3.17172188 3.17172188"></polygon>
                            <polygon id="Path" points="3.09702813 3.09702813 2.4006125 3.66573125 1.10569063 5.08841875 1.18033125 5.1631125 2.60301875 3.8681375 3.17172188 3.17172188"></polygon>
                            <polygon id="Path" points="3.1545625 3.18314375 2.36268125 3.60894063 0.5527125 4.26089063 0.5123375 4.1633 2.2531375 3.34448438 3.1141875 3.08560625"></polygon>
                            <polygon id="Path" points="3.1545625 3.18314375 4.0156125 2.92426562 5.7564125 2.10545 5.7160375 2.00785937 3.90606875 2.65980938 3.1141875 3.08560625"></polygon>
                            <polygon id="Path" points="3.08560625 3.1545625 2.65980938 2.36268125 2.00785937 0.5527125 2.10545 0.5123375 2.92426562 2.2531375 3.18314375 3.1141875"></polygon>
                            <polygon id="Path" points="3.08560625 3.1545625 3.34448438 4.0156125 4.1633 5.7564125 4.26089063 5.7160375 3.60894063 3.90606875 3.18314375 3.1141875"></polygon>
                            <polygon id="Path" points="3.1141875 3.18314375 2.2531375 2.92426562 0.5123375 2.10545 0.5527125 2.00785937 2.36268125 2.65980938 3.1545625 3.08560625"></polygon>
                            <polygon id="Path" points="3.1141875 3.18314375 3.90606875 3.60894063 5.7160375 4.26089063 5.7564125 4.1633 4.0156125 3.34448438 3.1545625 3.08560625"></polygon>
                            <polygon id="Path" points="3.08560625 3.1141875 3.34448438 2.2531375 4.1633 0.5123375 4.26089063 0.5527125 3.60894063 2.36268125 3.18314375 3.1545625"></polygon>
                            <polygon id="Path" points="3.08560625 3.1141875 2.65980938 3.90606875 2.00785937 5.7160375 2.10545 5.7564125 2.92426562 4.0156125 3.18314375 3.1545625"></polygon>
                            <circle id="Oval" cx="3.134375" cy="3.134375" r="1"></circle>
                            <circle id="Oval" cx="3.134375" cy="3.134375" r="1"></circle>
                        </g>
                    </g>
                </g>
            </g>
        </g>
    </g>
</svg>