<svg width="49" height="48" viewBox="0 0 49 48" fill="none" xmlns="http://www.w3.org/2000/svg">
<g clip-path="url(#clip0)">
<path opacity="0.4" d="M41 22.5C45.1421 22.5 48.5 19.1421 48.5 15C48.5 10.8579 45.1421 7.5 41 7.5C36.8579 7.5 33.5 10.8579 33.5 15C33.5 19.1421 36.8579 22.5 41 22.5Z" fill="#FF1391"/>
<path d="M11 39.75H36.5C40.6421 39.75 44 36.3921 44 32.25V18.75C44 14.6079 40.6421 11.25 36.5 11.25H11C6.85786 11.25 3.5 14.6079 3.5 18.75V32.25C3.5 36.3921 6.85786 39.75 11 39.75Z" stroke="#6861AB" stroke-width="3" stroke-linecap="round" stroke-linejoin="round"/>
<path d="M3.5 18.75H44" stroke="#6861AB" stroke-width="3" stroke-linecap="round"/>
<path d="M11.3296 29.8856V28.9911C11.3255 28.736 11.4187 28.4894 11.5891 28.3042C11.7595 28.1189 11.9937 28.0097 12.2413 28C12.3689 27.9991 12.4953 28.0243 12.6133 28.0742C12.7314 28.124 12.8386 28.1975 12.9288 28.2903C13.0189 28.3831 13.0903 28.4935 13.1387 28.6149C13.1871 28.7364 13.2116 28.8666 13.2108 28.9978V29.6953C13.9311 29.3824 14.6979 29.0045 15.0697 29.9545C15.4833 31.0174 14.5594 31.2431 13.827 31.555C14.301 32.196 15.0418 32.7805 14.2155 33.5908C13.7508 34.0472 13.3492 33.8692 12.3566 32.8465C12.2051 33.0809 12.0527 33.3124 11.9133 33.5344C11.8477 33.6429 11.7617 33.7369 11.6603 33.8107C11.5589 33.8845 11.4442 33.9366 11.3229 33.964C11.2016 33.9913 11.0762 33.9934 10.9541 33.9701C10.832 33.9467 10.7157 33.8985 10.612 33.8281C10.3993 33.6919 10.2477 33.4743 10.1907 33.2232C10.1337 32.972 10.176 32.7079 10.3081 32.4887C10.4327 32.2601 10.5721 32.0448 10.7366 31.7693C10.4726 31.6909 10.2356 31.6258 10.0014 31.5502C9.86629 31.5341 9.73612 31.4884 9.61966 31.4161C9.50321 31.3438 9.40318 31.2466 9.32633 31.1311C9.24948 31.0156 9.19759 30.8845 9.17417 30.7466C9.15076 30.6087 9.15635 30.4672 9.19058 30.3317C9.22481 30.1962 9.28689 30.0699 9.37261 29.9612C9.45833 29.8525 9.5657 29.764 9.68748 29.7017C9.80927 29.6394 9.94262 29.6047 10.0785 29.5999C10.2145 29.5952 10.3498 29.6205 10.4754 29.6742C10.7643 29.7256 11.0496 29.7962 11.3296 29.8856V29.8856Z" fill="#6861AB"/>
<path d="M22.0126 31.5581C22.8203 32.7434 22.8937 33.1529 22.3891 33.5872C21.8844 34.0215 21.52 33.8742 20.5116 32.8525C20.3722 33.0687 20.2411 33.2839 20.1017 33.4781C20.0377 33.5941 19.9513 33.6954 19.8478 33.7756C19.7443 33.8559 19.6259 33.9135 19.5 33.9449C19.374 33.9763 19.2432 33.9808 19.1155 33.9582C18.9878 33.9355 18.8659 33.8862 18.7574 33.8132C18.649 33.7403 18.5562 33.6452 18.4848 33.5339C18.4133 33.4226 18.3648 33.2974 18.3422 33.1661C18.3196 33.0347 18.3234 32.9 18.3533 32.7702C18.3832 32.6405 18.4386 32.5183 18.5161 32.4114C18.6313 32.2144 18.7559 32.024 18.9139 31.7638L18.2186 31.5571C18.0895 31.533 17.9664 31.4822 17.8569 31.4077C17.7474 31.3331 17.6537 31.2365 17.5816 31.1236C17.5095 31.0107 17.4603 30.8839 17.4372 30.7509C17.4141 30.6179 17.4175 30.4814 17.4472 30.3498C17.4849 30.2171 17.5484 30.0936 17.6337 29.9868C17.7191 29.88 17.8246 29.7921 17.9438 29.7283C18.063 29.6646 18.1936 29.6264 18.3275 29.6159C18.4615 29.6055 18.5961 29.6231 18.7233 29.6677L19.4799 29.8648V28.9626C19.4782 28.7066 19.5749 28.4602 19.7491 28.2774C19.9232 28.0946 20.1606 27.9901 20.4093 27.9868C20.6587 27.9875 20.8979 28.0888 21.0757 28.2689C21.2534 28.4489 21.3555 28.6935 21.3602 28.9502C21.3602 29.1664 21.3602 29.3817 21.3602 29.6725C22.1037 29.3788 22.9402 28.9693 23.2646 30.0666C23.5834 31.0922 22.6502 31.2328 22.0126 31.5581Z" fill="#6861AB"/>
<path d="M27.7487 29.8851V28.9906C27.7446 28.7355 27.8378 28.489 28.0082 28.3037C28.1786 28.1184 28.4128 28.0093 28.6605 27.9995C28.788 27.9986 28.9145 28.0238 29.0325 28.0737C29.1505 28.1235 29.2577 28.197 29.3479 28.2898C29.4381 28.3826 29.5094 28.493 29.5578 28.6144C29.6063 28.7359 29.6307 28.8661 29.6299 28.9973V29.6948C30.3502 29.3819 31.117 29.004 31.4888 29.954C31.9024 31.0169 30.9785 31.2427 30.2461 31.5545C30.7201 32.1955 31.4609 32.78 30.6346 33.5903C30.1699 34.0467 29.7684 33.8687 28.7757 32.846C28.6242 33.0804 28.4718 33.3119 28.3324 33.5339C28.2668 33.6425 28.1808 33.7364 28.0794 33.8102C27.978 33.884 27.8633 33.9361 27.742 33.9635C27.6207 33.9909 27.4953 33.9929 27.3732 33.9696C27.2511 33.9463 27.1348 33.898 27.0312 33.8276C26.9251 33.7608 26.8331 33.673 26.7603 33.5692C26.6875 33.4655 26.6355 33.3479 26.6072 33.2233C26.5789 33.0987 26.575 32.9696 26.5956 32.8434C26.6162 32.7172 26.6609 32.5965 26.7272 32.4883C26.849 32.2596 26.9912 32.0444 27.1557 31.7688C26.8917 31.6904 26.6547 31.6253 26.4205 31.5498C26.2854 31.5336 26.1552 31.4879 26.0388 31.4156C25.9223 31.3433 25.8223 31.2461 25.7454 31.1306C25.6686 31.0151 25.6167 30.884 25.5933 30.7461C25.5699 30.6082 25.5755 30.4667 25.6097 30.3312C25.6439 30.1958 25.706 30.0694 25.7917 29.9607C25.8774 29.8521 25.9848 29.7636 26.1066 29.7012C26.2284 29.6389 26.3617 29.6042 26.4977 29.5995C26.6336 29.5947 26.7689 29.62 26.8945 29.6737C27.1833 29.7257 27.4686 29.7963 27.7487 29.8851Z" fill="#6861AB"/>
<path d="M38.429 31.5576C39.2404 32.7429 39.3101 33.1524 38.8091 33.5867C38.3082 34.021 37.9401 33.8737 36.9289 32.852C36.7922 33.0682 36.6612 33.2834 36.5218 33.4776C36.4578 33.5936 36.3713 33.6949 36.2679 33.7752C36.1644 33.8554 36.046 33.913 35.9201 33.9444C35.7941 33.9758 35.6633 33.9803 35.5356 33.9577C35.4079 33.935 35.286 33.8857 35.1775 33.8127C35.0691 33.7398 34.9763 33.6447 34.9048 33.5334C34.8334 33.4221 34.7849 33.2969 34.7623 33.1656C34.7397 33.0342 34.7434 32.8995 34.7733 32.7697C34.8032 32.64 34.8587 32.5179 34.9362 32.411C35.0514 32.2139 35.1732 32.0235 35.3339 31.7633L34.6378 31.5566C34.5086 31.5326 34.3856 31.4817 34.2761 31.4072C34.1665 31.3327 34.0729 31.236 34.0008 31.1231C33.9286 31.0102 33.8795 30.8834 33.8564 30.7504C33.8333 30.6174 33.8367 30.4809 33.8664 30.3493C33.9041 30.2166 33.9676 30.0931 34.0529 29.9863C34.1382 29.8795 34.2437 29.7916 34.363 29.7278C34.4822 29.6641 34.6127 29.6259 34.7467 29.6155C34.8807 29.6051 35.0153 29.6226 35.1425 29.6672L35.9084 29.8672V28.9631C35.9068 28.7056 36.0046 28.4579 36.1804 28.2747C36.3562 28.0914 36.5955 27.9875 36.8457 27.9859C37.0959 27.9842 37.3365 28.0849 37.5145 28.2659C37.6926 28.4468 37.7935 28.6931 37.7951 28.9507V29.6729C38.5387 29.3792 39.3752 28.9698 39.6996 30.0671C39.9923 31.0917 39.0694 31.2323 38.429 31.5576Z" fill="#6861AB"/>
</g>
<defs>
<clipPath id="clip0">
<rect width="48" height="48" fill="white" transform="translate(0.5)"/>
</clipPath>
</defs>
</svg>
