<?xml version="1.0" encoding="UTF-8"?>
<svg width="50px" height="50px" viewBox="0 0 50 50" version="1.1" xmlns="http://www.w3.org/2000/svg" xmlns:xlink="http://www.w3.org/1999/xlink">
    <title>5A5D57C3-129A-4510-95A7-E46D4BC6E954</title>
    <g id="Page-1" stroke="none" stroke-width="1" fill="none" fill-rule="evenodd">
        <g id="open-copy-24" transform="translate(-620.000000, -3849.000000)" fill-rule="nonzero">
            <g id="integrate-sdk" transform="translate(620.000000, 3849.000000)">
                <g transform="translate(0.000000, 5.833333)">
                    <path d="M41.6666667,38.3333333 C46.269,38.3333333 50,34.6023333 50,30 C50,25.3976667 46.269,21.6666667 41.6666667,21.6666667 C37.0643333,21.6666667 33.3333333,25.3976667 33.3333333,30 C33.3333333,34.6023333 37.0643333,38.3333333 41.6666667,38.3333333 Z" id="Ellipse-1128" fill="#ED2891" opacity="0.4"></path>
                    <path d="M41.6666667,-1.66666667 C46.1910513,-1.66666667 49.873277,1.93887461 49.9967985,6.43341173 L50,6.66666667 L50,23.3333333 C50,27.857718 46.3944587,31.5399437 41.8999216,31.6634652 L41.6666667,31.6666667 L19.5833333,31.6666667 L19.5833333,28.3333333 L41.6666667,28.3333333 C44.3653487,28.3333333 46.5646439,26.1953718 46.663218,23.5207831 L46.6666667,23.3333333 L46.6666667,6.66666667 C46.6666667,3.96798463 44.5287051,1.76868938 41.8541164,1.67011537 L41.6666667,1.66666667 L11.6666667,1.66666667 C8.96797283,1.66666667 6.76868885,3.80457609 6.67011535,6.47913559 L6.66666667,6.66658333 L6.66666667,14.1666667 L3.33333333,14.1666667 L3.33333333,6.66658333 C3.33333333,2.14221303 6.93887664,-1.53994602 11.4334118,-1.66346524 L11.6666667,-1.66666667 L41.6666667,-1.66666667 Z" id="Rectangle-2202" fill="#6861AB"></path>
                    <path d="M14.9538333,30.724 L14.2380833,29.7444167 C15.12725,28.6955 15.672,27.39525 15.7975,26.0221667 L16.9915,25.8538333 C17.1946667,25.8246667 17.3900833,25.7555 17.5666667,25.6503333 C17.74325,25.5451667 17.8975,25.4059167 18.0206667,25.24075 C18.1438333,25.0755833 18.2334167,24.8875833 18.2844167,24.6875 C18.3353333,24.4874167 18.3466667,24.27925 18.3176667,24.07475 C18.2886667,23.8703333 18.2199167,23.6736667 18.1154167,23.4959167 C18.0109167,23.3181667 17.8726667,23.1629167 17.7085,23.039 C17.5443333,22.915 17.3575833,22.8248333 17.1588333,22.7735833 C16.96,22.72225 16.7531667,22.7109167 16.55,22.7400833 L15.3325833,22.9176667 C14.8755,21.7823333 14.11525,20.7964167 13.136,20.0689167 L13.6619167,18.8141667 C13.8136667,18.433 13.8105,18.0070833 13.6531667,17.62825 C13.4958333,17.2494167 13.1969167,16.948 12.82075,16.7889167 C12.4446667,16.6298333 12.0215,16.6258333 11.6425833,16.7778333 C11.2635833,16.9298333 10.9590833,17.2256667 10.79475,17.6015 L10.2663333,18.8579167 C9.037,18.6590833 7.7769,18.8143333 6.631525,19.3056667 L5.84219167,18.2115833 C5.72420833,18.0386667 5.572925,17.8914167 5.39730833,17.7785 C5.22169167,17.6655 5.025325,17.58925 4.81985833,17.5541667 C4.61439167,17.5190833 4.40401667,17.5258333 4.20120833,17.5741667 C3.9984,17.6224167 3.8073,17.71125 3.63924167,17.83525 C3.47118333,17.9593333 3.32959167,18.1160833 3.222875,18.29625 C3.11615,18.4764167 3.046475,18.6763333 3.01798333,18.8840833 C2.98948333,19.0918333 3.00275,19.30325 3.05698333,19.5058333 C3.111225,19.7083333 3.205325,19.8978333 3.33371667,20.0630833 L4.13308333,21.1646667 C3.28941667,22.18325 2.768125,23.43275 2.63635833,24.75225 L1.2868,24.9458333 C0.888358333,25.0164167 0.532894167,25.2404167 0.2956875,25.5703333 C0.0584808333,25.9001667 -0.0418341667,26.31 0.01599,26.713 C0.0738141667,27.116 0.285234167,27.4805833 0.605473333,27.7294167 C0.925708333,27.97825 1.32961667,28.0918333 1.73164167,28.0461667 L3.0628,27.8525833 C3.51805,29.01425 4.28915833,30.0233333 5.28781667,30.7644167 L4.761875,32.0191667 C4.61013333,32.4003333 4.613275,32.82625 4.77061667,33.2050833 C4.92796667,33.5839167 5.22690833,33.8853333 5.60301667,34.0444167 C5.979125,34.2035 6.402275,34.2075 6.78126667,34.0555 C7.16025833,33.9035 7.464725,33.6076667 7.62905833,33.2318333 L8.155,31.9770833 C9.3555,32.1785 10.588,32.0419167 11.7161667,31.5824167 L12.442,32.5805 C12.6910833,32.9010833 13.0544167,33.1114167 13.4549167,33.1670833 C13.8555,33.22275 14.2618333,33.11925 14.5879167,32.8785833 C14.914,32.6379167 15.1341667,32.279 15.2018333,31.87775 C15.2695,31.4765 15.1793333,31.0645 14.9504167,30.7290833 L14.9538333,30.724 Z M7.85481667,28.66975 C7.2171,28.39975 6.673225,27.9455833 6.29196667,27.3645 C5.9107,26.7835 5.70915833,26.10175 5.71277584,25.4054167 C5.71649167,24.7090833 5.92519167,24.0295 6.31255,23.4525833 C6.69991667,22.8756667 7.24853333,22.42725 7.88905833,22.1640833 C8.52958333,21.9009167 9.23325,21.8348333 9.91108333,21.9741667 C10.589,22.1134167 11.2105833,22.4518333 11.6973333,22.9466667 C12.1840833,23.4415 12.5141667,24.0704167 12.6458333,24.754 C12.7775,25.4375833 12.70475,26.1451667 12.437,26.7871667 C12.259,27.2136667 11.9993333,27.60075 11.67275,27.9261667 C11.3460833,28.2516667 10.959,28.5091667 10.5335,28.684 C10.1079167,28.8588333 9.65233333,28.9475833 9.19275,28.9451347 C8.73308333,28.9426667 8.27848333,28.8490833 7.85481667,28.66975 Z" id="Path-240" fill="#6861AB"></path>
                    <polygon id="Path-247" fill="#6861AB" points="46.6666667 6.66666667 46.6666667 10 6.66666667 10 6.66666667 6.66666667"></polygon>
                    <g id="Group-1207" transform="translate(20.000000, 18.333333)" fill="#6861AB">
                        <path d="M4.65158333,2.97725 C5.3695,3.965 5.43483333,4.30616667 4.98616667,4.66808333 C4.53758333,5.03008333 4.21366667,4.90725 3.31725,4.05583333 C3.19333333,4.236 3.07683333,4.41541667 2.95291667,4.57725 C2.896,4.67383333 2.81916667,4.75825 2.72716667,4.82516667 C2.63516667,4.89208333 2.53,4.94008333 2.418,4.96625 C2.30608333,4.99241667 2.18975,4.99616667 2.07625,4.97725 C1.96275,4.95841667 1.85441667,4.91725 1.758,4.8565 C1.66158333,4.79566667 1.57908333,4.71641667 1.51558333,4.62366667 C1.45208333,4.53091667 1.409,4.42658333 1.38883333,4.31716667 C1.36875,4.20775 1.37208333,4.0955 1.39866667,3.98733333 C1.42525,3.87916667 1.4745,3.77741667 1.54341667,3.68833333 C1.64583333,3.52408333 1.75658333,3.3655 1.897,3.14858333 L1.279,2.97641667 C1.16416667,2.95633333 1.05483333,2.914 0.9575,2.85183333 C0.860083333,2.78975 0.776833333,2.70925 0.71275,2.61516667 C0.648583333,2.52108333 0.605,2.41541667 0.584416667,2.30458333 C0.563916667,2.19375 0.566916667,2.08 0.59325,1.97033333 C0.626833333,1.85975 0.68325,1.75683333 0.759083333,1.66783333 C0.835,1.57883333 0.92875,1.50558333 1.03466667,1.4525 C1.14066667,1.39933333 1.25675,1.3675 1.37583333,1.35883333 C1.49491667,1.35008333 1.61458333,1.36483333 1.72766667,1.40191667 L2.40016667,1.56616667 L2.40016667,0.814416667 C2.39866667,0.601 2.48466667,0.39575 2.63941667,0.243333333 C2.79425,0.091 3.00525,0.00391666667 3.22633333,0.00125 C3.44808333,0.00183333333 3.66066667,0.0861666667 3.81866667,0.23625 C3.97666667,0.386333333 4.0675,0.590166667 4.07158333,0.804 C4.07158333,0.984166667 4.07158333,1.16358333 4.07158333,1.40591667 C4.7325,1.16116667 5.47608333,0.82 5.76441667,1.73433333 C6.04783333,2.589 5.21833333,2.70616667 4.65158333,2.97725 Z" id="Path-86"></path>
                        <path d="M9.43458333,1.58325 L9.43458333,0.837916667 C9.431,0.625333333 9.51375,0.419833333 9.66525,0.265416667 C9.81675,0.111083333 10.0249167,0.0200833333 10.2450833,0.011980597 C10.3584167,0.01125 10.4708333,0.03225 10.57575,0.07375 C10.6806667,0.11525 10.7759167,0.1765 10.8561667,0.253833333 C10.9363333,0.33125 10.99975,0.423166667 11.04275,0.524416667 C11.0858333,0.625583333 11.1075833,0.734083333 11.1068333,0.8435 L11.1068333,1.42466667 C11.7470833,1.16391667 12.42875,0.849083333 12.7591667,1.64066667 C13.1268333,2.52641667 12.3055833,2.7145 11.6545833,2.97441667 C12.0759167,3.5085 12.7344167,3.99566667 11.9999167,4.67091667 C11.5868333,5.05116667 11.2299167,4.90283333 10.3475,4.05066667 C10.2128333,4.246 10.0773333,4.43891667 9.95341667,4.62383333 C9.89516667,4.71433333 9.81875,4.79258333 9.72858333,4.85408333 C9.63841667,4.91558333 9.5365,4.959 9.42866667,4.98183333 C9.32083333,5.00466667 9.20933333,5.00633333 9.10083333,4.98691667 C8.99233333,4.9675 8.88891667,4.92725 8.79675,4.86858333 C8.7025,4.81291667 8.62066667,4.73975 8.556,4.65333333 C8.49133333,4.56683333 8.445,4.46883333 8.41991667,4.365 C8.39475,4.26116667 8.39125,4.15358333 8.40958333,4.04841667 C8.42791667,3.94325 8.46766667,3.84266667 8.52658333,3.7525 C8.63483333,3.562 8.76125,3.38258333 8.9075,3.153 C8.67283333,3.08758333 8.46216667,3.03341667 8.25391667,2.97041667 C8.13383333,2.957 8.01816667,2.91891667 7.91466667,2.85866667 C7.81108333,2.79833333 7.72216667,2.71741667 7.65383333,2.62116667 C7.58558333,2.52491667 7.53941667,2.41566667 7.51866667,2.30075 C7.49783333,2.18583333 7.50275,2.06791667 7.53325,1.955 C7.56366667,1.84208333 7.61883333,1.73683333 7.695,1.64625 C7.77116667,1.55566667 7.86666667,1.482 7.97491667,1.43 C8.08316667,1.37808333 8.20166667,1.34916667 8.3225,1.34525 C8.44333333,1.34125 8.56366667,1.36233333 8.67533333,1.40708333 C8.932,1.45041667 9.18558333,1.50925 9.43458333,1.58325 Z" id="Path-87"></path>
                        <path d="M18.8209167,2.97641667 C19.5421667,3.96416667 19.6041667,4.30533333 19.1588333,4.66733333 C18.7135,5.02925 18.3863333,4.9065 17.4874167,4.05508333 C17.366,4.23525 17.2495,4.41458333 17.1255833,4.57641667 C17.0686667,4.67308333 16.9918333,4.75741667 16.8998333,4.82433333 C16.8078333,4.89125 16.7026667,4.93925 16.5906667,4.96541667 C16.47875,4.99158333 16.3624167,4.99533333 16.2489167,4.97641667 C16.1354167,4.95758333 16.0270833,4.9165 15.9306667,4.85566667 C15.83425,4.79483333 15.75175,4.71558333 15.68825,4.62283333 C15.62475,4.53008333 15.5816667,4.42583333 15.5615833,4.31633333 C15.5414167,4.20691667 15.54475,4.09466667 15.5713333,3.9865 C15.5979167,3.87833333 15.6471667,3.77658333 15.7160833,3.6875 C15.8185,3.52333333 15.92675,3.36466667 16.0696667,3.14783333 L15.4509167,2.97558333 C15.3360833,2.9555 15.2266667,2.91316667 15.1293333,2.85108333 C15.032,2.789 14.94875,2.70841667 14.8845833,2.61433333 C14.8205,2.52025 14.7768333,2.41458333 14.75625,2.30375 C14.73575,2.19291667 14.73875,2.07925 14.7651667,1.9695 C14.7986667,1.85891667 14.8550833,1.756 14.9309167,1.667 C15.0068333,1.578 15.1005833,1.50475 15.2065833,1.45166667 C15.3125833,1.3985 15.4285833,1.36666667 15.5476667,1.358 C15.66675,1.34933333 15.7864167,1.364 15.8995,1.40108333 L16.5803333,1.56775 L16.5803333,0.814333333 C16.5788333,0.59975 16.6658333,0.393416667 16.8220833,0.240666667 C16.9783333,0.088 17.1910833,0.00141666667 17.4135,-1.56490924e-05 C17.6359167,-0.00133333333 17.84975,0.0825833333 18.0080833,0.233333333 C18.1663333,0.384083333 18.2560833,0.589416667 18.2575,0.804 L18.2575,1.40591667 C18.9184167,1.16116667 19.662,0.819916667 19.9503333,1.73433333 C20.2105833,2.58816667 19.3901667,2.70533333 18.8209167,2.97641667 Z" id="Path-88"></path>
                    </g>
                </g>
            </g>
        </g>
    </g>
</svg>