<?xml version="1.0" encoding="UTF-8"?>
<svg width="50px" height="50px" viewBox="0 0 50 50" version="1.1" xmlns="http://www.w3.org/2000/svg" xmlns:xlink="http://www.w3.org/1999/xlink">
    <title>B9AD5946-80CE-45F5-8B0F-6B2E9454B6E3</title>
    <g id="Page-1" stroke="none" stroke-width="1" fill="none" fill-rule="evenodd">
        <g id="open-copy-24" transform="translate(-620.000000, -3708.000000)" fill-rule="nonzero">
            <g id="Invoice-Payment" transform="translate(620.000000, 3708.000000)">
                <g transform="translate(0.000000, 2.500000)">
                    <path d="M7.26345,38.72185 C11.12795,38.72185 14.2608,35.58905 14.2608,31.72455 C14.2608,27.86 11.12795,24.7272 7.26345,24.7272 C3.39895,24.7272 0.2661,27.86 0.2661,31.72455 C0.2661,35.58905 3.39895,38.72185 7.26345,38.72185 Z" id="Vector" fill="#ED2891" opacity="0.4"></path>
                    <path d="M38.7131,0.43065 C36.5302,0.44005 34.3985,1.0926 32.58445,2.3068 C30.7704,3.52095 29.35445,5.2429 28.5136,7.25735 L10.9307,7.25735 C10.5522,7.2678 10.1925,7.42455 9.92715,7.6947 C9.6618,7.9648 9.51145,8.32725 9.50775,8.70585 L9.34135,33.53785 L4.8827,33.53785 C4.6966,33.53245 4.5113,33.56425 4.33765,33.63135 C4.164,33.69845 4.00545,33.79955 3.87135,33.9287 C3.73725,34.0578 3.6303,34.2124 3.55665,34.3834 C3.48305,34.5544 3.4443,34.73835 3.4427,34.92455 L3.4427,38.16505 C3.44535,39.69715 3.99755,41.1775 4.99895,42.337 C6.0003,43.4965 7.3844,44.2585 8.89975,44.484 L8.89975,44.565 L32.7483,44.565 C34.39045,44.482 35.93805,43.7715 37.07175,42.581 C38.20545,41.39 38.8388,39.8093 38.8411,38.16505 L38.8411,22.5 C41.74275,22.4465 44.5065,21.2519 46.5335,19.1751 C48.5605,17.09825 49.688,14.30635 49.6711895,11.40425 C49.654,8.5022 48.4945,5.72355 46.4435,3.6704 C44.3925,1.6172 41.61515,0.45475 38.7131,0.43495 L38.7131,0.43065 Z M28.4368,33.94105 C28.3059,33.8113 28.15025,33.70915 27.9791,33.64065 C27.808,33.5721 27.62485,33.5386 27.44055,33.54215 L12.18295,33.54215 L12.3408,10.1032 L27.77335,10.1032 C27.72,10.54355 27.69225,10.9866 27.69015,11.43015 C27.68655,12.6098 27.8753,13.78215 28.2491,14.90105 L22.3888,14.90105 C22.012,14.90105 21.6506,15.05075 21.38415,15.3172 C21.1177,15.58365 20.968,15.94505 20.968,16.32185 C20.968,16.6987 21.1177,17.06005 21.38415,17.3265 C21.6506,17.59295 22.012,17.74265 22.3888,17.74265 L29.6784,17.74265 C31.18505,19.92725 33.4296,21.4946 35.9995,22.15655 L35.9995,38.15655 C35.97665,39.0911 35.5894,39.9797 34.92035,40.6325 C34.2513,41.2855 33.3535,41.651 32.4187,41.651 C31.48385,41.651 30.58605,41.2855 29.917,40.6325 C29.24795,39.9797 28.8607,39.0911 28.8379,38.15655 L28.8379,34.93945 C28.84215,34.75455 28.8088,34.5707 28.73985,34.3991 C28.6709,34.22745 28.5678,34.07165 28.4368,33.94105 Z M27.09495,41.7275 L9.8704,41.7275 L9.8704,42.421 L9.8704,41.7275 C8.9239,41.725 8.0167,41.3485 7.346,40.681 C6.6753,40.0129 6.2953,39.1073 6.28855,38.1608 L6.28855,36.38375 L26.00055,36.38375 L26.00055,38.15015 C26.00305,39.4247 26.38395,40.67 27.09495,41.7275 Z M46.8925035,11.4728 C46.894,13.09135 46.4155,14.67405 45.5175,16.02065 C44.6195,17.36725 43.342,18.4172 41.84725,19.03765 C40.3523,19.6581 38.70695,19.82125 37.1193,19.50635 C35.53165,19.19145 34.0731,18.41275 32.92815,17.26865 C31.7832,16.1246 31.0033,14.66665 30.6872,13.07925 C30.37105,11.49185 30.5329,9.84635 31.1522,8.35095 C31.7715,6.85555 32.82045,5.57745 34.1663,4.67835 C35.5122,3.77925 37.0945,3.2996 38.7131,3.29999975 C40.87935,3.3062 42.9552,4.169 44.4875,5.7002 C46.02,7.2314 46.8845,9.30655 46.8925035,11.4728 Z" id="Vector_2" fill="#6861AB"></path>
                    <path d="M17.71895,20.4349 C17.27585,20.44915 16.8467,20.5936 16.48515,20.8502 C16.1236,21.1068 15.84565,21.4642 15.68595,21.8778 C15.52625,22.2914 15.4919,22.7429 15.58715,23.1759 C15.68245,23.6089 15.90315,24.00425 16.2217,24.3126 C16.54025,24.62095 16.9426,24.82865 17.37845,24.9098 C17.81435,24.9909 18.26445,24.94185 18.67265,24.7688 C19.0808,24.5957 19.42895,24.30625 19.67365,23.93655 C19.91835,23.5668 20.04875,23.1332 20.0485502,22.68985 C20.03845,22.08195 19.7874,21.503 19.35055,21.08015 C18.9137,20.6573 18.32685,20.42525 17.71895,20.4349 Z M17.71895,23.48985 C17.5641,23.4758 17.41665,23.417 17.29455,23.3207 C17.1725,23.22435 17.08105,23.0946 17.0314,22.94725 C16.9817,22.7999 16.97595,22.64125 17.01475,22.4907 C17.0536,22.3401 17.1354,22.20405 17.25015,22.0991 C17.36485,21.99415 17.50765,21.92485 17.6611,21.89955 C17.81455,21.87425 17.972,21.89415 18.11435,21.9567 C18.2567,22.0193 18.3778,22.12195 18.4629,22.2521 C18.548,22.38225 18.5934,22.53435 18.59365,22.68985 C18.58365,22.9119 18.48595,23.1209 18.3219,23.27095 C18.1579,23.42095 17.941,23.4997 17.71895,23.48985 Z" id="Vector_3" fill="#6861AB"></path>
                    <path d="M17.71895,14.11175 C17.27585,14.126 16.8467,14.27045 16.48515,14.52705 C16.1236,14.78365 15.84565,15.14105 15.68595,15.55465 C15.52625,15.96825 15.4919,16.4197 15.58715,16.8527 C15.68245,17.2857 15.90315,17.68105 16.2217,17.9894 C16.54025,18.29775 16.9426,18.50545 17.37845,18.5866 C17.81435,18.66775 18.26445,18.6187 18.67265,18.4456 C19.0808,18.27255 19.42895,17.98305 19.67365,17.61335 C19.91835,17.24365 20.04875,16.81005 20.0485502,16.36665 C20.03845,15.7588 19.7874,15.1798 19.35055,14.75695 C18.9137,14.3341 18.32685,14.10205 17.71895,14.11175 Z M17.71895,17.16665 C17.5641,17.1526 17.41665,17.09385 17.29455,16.9975 C17.1725,16.90115 17.08105,16.77145 17.0314,16.62405 C16.9817,16.4767 16.97595,16.3181 17.01475,16.1675 C17.0536,16.01695 17.1354,15.8809 17.25015,15.77595 C17.36485,15.671 17.50765,15.60165 17.6611,15.57635 C17.81455,15.5511 17.972,15.57095 18.11435,15.63355 C18.2567,15.69615 18.3778,15.79875 18.4629,15.9289 C18.548,16.0591 18.5934,16.21115 18.59365,16.36665 C18.58365,16.58875 18.48595,16.79775 18.3219,16.94775 C18.1579,17.09775 17.941,17.1765 17.71895,17.16665 Z" id="Vector_4" fill="#6861AB"></path>
                    <path d="M17.71895,26.76665 C17.27585,26.7809 16.8467,26.92535 16.48515,27.18195 C16.1236,27.43855 15.84565,27.79595 15.68595,28.20955 C15.52625,28.62315 15.4919,29.0746 15.58715,29.5076 C15.68245,29.9406 15.90315,30.33595 16.2217,30.6443 C16.54025,30.9527 16.9426,31.1604 17.37845,31.2415 C17.81435,31.32265 18.26445,31.2736 18.67265,31.1005 C19.0808,30.92745 19.42895,30.638 19.67365,30.26825 C19.91835,29.89855 20.04875,29.46495 20.0485502,29.0216 C20.03845,28.4137 19.7874,27.8347 19.35055,27.41185 C18.9137,26.98905 18.32685,26.75695 17.71895,26.76665 Z M17.71895,29.8216 C17.5641,29.80755 17.41665,29.74875 17.29455,29.6524 C17.1725,29.5561 17.08105,29.42635 17.0314,29.279 C16.9817,29.1316 16.97595,28.973 17.01475,28.8224 C17.0536,28.67185 17.1354,28.5358 17.25015,28.43085 C17.36485,28.3259 17.50765,28.25655 17.6611,28.23125 C17.81455,28.206 17.972,28.22585 18.11435,28.28845 C18.2567,28.35105 18.3778,28.45365 18.4629,28.58385 C18.548,28.714 18.5934,28.8661 18.59365,29.0216 C18.5815,29.24215 18.4828,29.44895 18.31905,29.59715 C18.15525,29.74535 17.9396,29.82295 17.71895,29.81305 L17.71895,29.8216 Z" id="Vector_5" fill="#6861AB"></path>
                    <path d="M22.38875,24.0552 L32.089,24.0552 C32.4517,24.0552 32.7995,23.91115 33.05595,23.6547 C33.3124,23.39825 33.4565,23.0504 33.4565,22.68775 C33.4565,22.32505 33.3124,21.97725 33.05595,21.7208 C32.7995,21.46435 32.4517,21.3203 32.089,21.3203 L22.38875,21.3203 C22.0261,21.3203 21.67825,21.46435 21.4218,21.7208 C21.16535,21.97725 21.0213,22.32505 21.0213,22.68775 C21.0213,23.0504 21.16535,23.39825 21.4218,23.6547 C21.67825,23.91115 22.0261,24.0552 22.38875,24.0552 Z" id="Vector_6" fill="#6861AB"></path>
                    <path d="M32.089,27.68615 L22.38875,27.68615 C22.0261,27.68615 21.67825,27.8302 21.4218,28.08665 C21.16535,28.3431 21.0213,28.6909 21.0213,29.0536 C21.0213,29.41625 21.16535,29.7641 21.4218,30.02055 C21.67825,30.277 22.0261,30.42105 22.38875,30.42105 L32.089,30.42105 C32.4517,30.42105 32.7995,30.277 33.05595,30.02055 C33.3124,29.7641 33.4565,29.41625 33.4565,29.0536 C33.4565,28.6909 33.3124,28.3431 33.05595,28.08665 C32.7995,27.8302 32.4517,27.68615 32.089,27.68615 Z" id="Vector_7" fill="#6861AB"></path>
                    <path d="M41.9131,8.84665 L40.86775,8.84665 C40.7683,8.47285 40.61905,8.1141 40.42405,7.78 L41.91735,7.78 L41.98135,7.78 L42.00055,7.78 C42.2051,7.7588 42.3937,7.6599 42.5274,7.50365 C42.6611,7.34745 42.72965,7.1458 42.719,6.94045 C42.7083,6.7351 42.6192,6.5417 42.47,6.4002 C42.3208,6.25865 42.123,6.17985 41.91735,6.17999979 L35.75845,6.17999979 C35.5457,6.17999979 35.34165,6.2645 35.19125,6.41495 C35.0408,6.56535 34.9563,6.7694 34.9563,6.98215 C34.9563,7.19485 35.0408,7.3989 35.19125,7.5493 C35.34165,7.69975 35.5457,7.78425 35.75845,7.78425 L37.5227,7.78425 C37.8707,7.7909 38.21005,7.8942 38.50275,8.08255 C38.79545,8.2709 39.03005,8.53695 39.1803,8.85095 L35.76695,8.85095 C35.55425,8.85095 35.3502,8.93545 35.19975,9.08585 C35.04935,9.2363 34.96485,9.4403 34.96485,9.65305 C34.96485,9.8658 35.04935,10.0698 35.19975,10.22025 C35.3502,10.3707 35.55425,10.4552 35.76695,10.4552 L39.1803,10.4552 C39.0831,10.64435 38.9627,10.8206 38.8219,10.98 C38.65305,11.1543 38.45125,11.29325 38.2282,11.38885 C38.00515,11.48445 37.76535,11.53475 37.5227,11.5368 L35.7435,11.5368 C35.58605,11.53645 35.43215,11.58345 35.30175,11.6717 C35.17135,11.75995 35.0705,11.8854 35.0123,12.0317 C34.9541,12.178 34.94125,12.3384 34.9754,12.4921 C35.00955,12.6458 35.0891,12.7857 35.20375,12.8936 L39.61125,17.0472 C39.75985,17.18465 39.9549,17.2609 40.15735,17.2605512 C40.26815,17.2605512 40.3777,17.23775 40.47935,17.1937 C40.581,17.1497 40.6725,17.0853 40.7483,17.00455 C40.89185,16.851 40.969,16.647 40.963,16.4369 C40.95705,16.22675 40.86835,16.0275 40.7163,15.8824 L37.76165,13.08985 C38.59045,13.0366 39.3705,12.6796 39.95255,12.0872 C40.4077,11.64125 40.7253,11.0741 40.86775,10.45305 L41.9131,10.45305 C42.12585,10.45305 42.32985,10.36855 42.4803,10.2181 C42.6307,10.0677 42.71525,9.86365 42.71525,9.65095 C42.71525,9.4382 42.6307,9.23415 42.4803,9.08375 C42.32985,8.9333 42.12585,8.8488 41.9131,8.8488 L41.9131,8.84665 Z" id="Vector_8" fill="#6861AB"></path>
                </g>
            </g>
        </g>
    </g>
</svg>