<svg width="48" height="48" viewBox="0 0 48 48" fill="none" xmlns="http://www.w3.org/2000/svg">
<path opacity="0.4" d="M39.633 44.2718C43.6695 44.2718 46.9417 40.9996 46.9417 36.963C46.9417 32.9265 43.6695 29.6543 39.633 29.6543C35.5965 29.6543 32.3242 32.9265 32.3242 36.963C32.3242 40.9996 35.5965 44.2718 39.633 44.2718Z" fill="#FF1391"/>
<path d="M12.1372 29.4211V28.7836C12.1318 28.6891 12.1458 28.5945 12.1783 28.5057C12.2107 28.4168 12.261 28.3354 12.326 28.2666C12.3909 28.1979 12.4693 28.1431 12.5562 28.1056C12.6431 28.0681 12.7367 28.0488 12.8314 28.0488C12.926 28.0488 13.0196 28.0681 13.1065 28.1056C13.1934 28.1431 13.2718 28.1979 13.3368 28.2666C13.4017 28.3354 13.452 28.4168 13.4844 28.5057C13.5169 28.5945 13.5309 28.6891 13.5255 28.7836V29.2809C14.0505 29.0559 14.6175 28.7881 14.889 29.4661C15.189 30.2236 14.514 30.3841 13.9777 30.6046C14.325 31.0636 14.8687 31.4806 14.2605 32.0551C13.9237 32.3806 13.6275 32.2554 12.897 31.5301C12.7852 31.6974 12.672 31.8624 12.5715 32.0206C12.5236 32.0978 12.4608 32.1647 12.3866 32.2172C12.3125 32.2697 12.2285 32.3068 12.1398 32.3263C12.0511 32.3458 11.9593 32.3473 11.87 32.3308C11.7807 32.3142 11.6956 32.2799 11.6197 32.2299C11.5422 32.1824 11.4747 32.1201 11.4214 32.0465C11.368 31.9728 11.3298 31.8894 11.3089 31.8009C11.288 31.7124 11.2848 31.6206 11.2995 31.5309C11.3142 31.4412 11.3466 31.3553 11.3947 31.2781C11.484 31.1154 11.5882 30.9616 11.709 30.7659C11.5155 30.7104 11.3415 30.6631 11.1697 30.6076C11.0726 30.5942 10.9794 30.5603 10.8962 30.5083C10.8131 30.4563 10.7419 30.3873 10.6873 30.3058C10.6328 30.2243 10.596 30.1322 10.5796 30.0356C10.5631 29.9389 10.5673 29.8398 10.5919 29.7449C10.6164 29.6499 10.6608 29.5613 10.722 29.4847C10.7833 29.4081 10.86 29.3453 10.9473 29.3005C11.0345 29.2557 11.1302 29.2298 11.2281 29.2246C11.3261 29.2194 11.424 29.235 11.5155 29.2704C11.7255 29.3086 11.9331 29.3589 12.1372 29.4211V29.4211Z" fill="#6861AB"/>
<path d="M19.8841 30.6103C20.4788 31.4571 20.5306 31.7488 20.1623 32.0563C19.7941 32.3638 19.5248 32.2611 18.7831 31.5313C18.6826 31.6851 18.5873 31.8388 18.4831 31.9768C18.435 32.0572 18.3713 32.1271 18.2956 32.1823C18.2199 32.2374 18.1338 32.2767 18.0426 32.2978C17.9513 32.3188 17.8568 32.3213 17.7645 32.3049C17.6723 32.2885 17.5844 32.2536 17.506 32.2024C17.4276 32.1512 17.3603 32.0847 17.3083 32.0068C17.2562 31.929 17.2204 31.8414 17.203 31.7494C17.1856 31.6574 17.187 31.5628 17.2071 31.4713C17.2271 31.3799 17.2655 31.2934 17.3198 31.2171C17.4023 31.0768 17.4938 30.9411 17.6116 30.7558L17.1016 30.6058C17.0068 30.5887 16.9165 30.5525 16.8361 30.4994C16.7557 30.4464 16.687 30.3775 16.6341 30.2971C16.5811 30.2166 16.545 30.1263 16.5281 30.0315C16.5111 29.9367 16.5136 29.8394 16.5353 29.7456C16.5629 29.6509 16.6093 29.5628 16.6719 29.4866C16.7345 29.4105 16.8118 29.3477 16.8993 29.3023C16.9868 29.2569 17.0826 29.2297 17.1809 29.2223C17.2792 29.215 17.378 29.2277 17.4713 29.2596L18.0263 29.3998V28.7556C18.0364 28.5789 18.1137 28.4128 18.2423 28.2913C18.371 28.1698 18.5412 28.1021 18.7182 28.1021C18.8951 28.1021 19.0654 28.1698 19.194 28.2913C19.3227 28.4128 19.4 28.5789 19.4101 28.7556V29.2678C19.9538 29.0608 20.5666 28.7661 20.8051 29.5506C21.0338 30.2803 20.3521 30.3808 19.8841 30.6103Z" fill="#6861AB"/>
<path d="M23.8298 29.4211V28.7836C23.8244 28.6891 23.8384 28.5945 23.8708 28.5057C23.9033 28.4168 23.9535 28.3354 24.0185 28.2666C24.0835 28.1979 24.1618 28.1431 24.2487 28.1056C24.3356 28.0681 24.4293 28.0488 24.5239 28.0488C24.6185 28.0488 24.7122 28.0681 24.7991 28.1056C24.886 28.1431 24.9643 28.1979 25.0293 28.2666C25.0943 28.3354 25.1445 28.4168 25.177 28.5057C25.2094 28.5945 25.2234 28.6891 25.218 28.7836C25.2293 28.9336 25.218 29.0836 25.218 29.2809C25.743 29.0559 26.31 28.7881 26.5815 29.4661C26.8815 30.2236 26.2065 30.3841 25.6703 30.6046C26.0175 31.0636 26.5508 31.4806 25.953 32.0551C25.614 32.3806 25.32 32.2554 24.5873 31.5301C24.4778 31.6974 24.3758 31.8624 24.2618 32.0206C24.2139 32.0978 24.151 32.1647 24.0769 32.2172C24.0028 32.2697 23.9188 32.3068 23.8301 32.3263C23.7414 32.3458 23.6496 32.3473 23.5603 32.3308C23.471 32.3142 23.3859 32.2799 23.31 32.2299C23.1543 32.1332 23.0432 31.9788 23.001 31.8004C22.9588 31.6221 22.989 31.4343 23.085 31.2781C23.1765 31.1154 23.2785 30.9616 23.4015 30.7659C23.208 30.7104 23.034 30.6631 22.86 30.6076C22.7631 30.5939 22.6701 30.5598 22.5872 30.5076C22.5044 30.4554 22.4334 30.3863 22.3791 30.3049C22.3248 30.2234 22.2883 30.1313 22.2721 30.0348C22.2558 29.9382 22.2601 29.8393 22.2847 29.7445C22.3093 29.6497 22.3537 29.5612 22.4149 29.4848C22.4761 29.4083 22.5527 29.3456 22.6398 29.3009C22.7269 29.2561 22.8225 29.2303 22.9203 29.225C23.0181 29.2197 23.1159 29.2352 23.2073 29.2704C23.4173 29.3093 23.6252 29.3597 23.8298 29.4211V29.4211Z" fill="#6861AB"/>
<path d="M31.578 30.6106C32.1705 31.4573 32.2245 31.749 31.8562 32.0565C31.488 32.364 31.2187 32.2613 30.477 31.5316C30.3742 31.6853 30.2812 31.839 30.177 31.977C30.13 32.0596 30.0666 32.1317 29.9908 32.1889C29.9149 32.246 29.8281 32.287 29.7358 32.3094C29.6434 32.3317 29.5475 32.335 29.4539 32.3188C29.3603 32.3027 29.271 32.2676 29.1914 32.2156C29.1119 32.1637 29.0438 32.096 28.9914 32.0168C28.939 31.9375 28.9034 31.8484 28.8868 31.7549C28.8701 31.6614 28.8728 31.5654 28.8946 31.473C28.9165 31.3805 28.957 31.2935 29.0137 31.2173C29.0962 31.077 29.1877 30.9413 29.3032 30.7561L28.7955 30.606C28.7001 30.59 28.6091 30.5545 28.528 30.5018C28.4469 30.449 28.3776 30.3802 28.3242 30.2995C28.2709 30.2188 28.2348 30.128 28.218 30.0328C28.2013 29.9375 28.2043 29.8398 28.227 29.7458C28.2545 29.6511 28.301 29.5631 28.3636 29.4869C28.4261 29.4107 28.5035 29.348 28.591 29.3025C28.6785 29.2571 28.7743 29.2299 28.8726 29.2226C28.9709 29.2152 29.0697 29.2279 29.163 29.2598L29.718 29.4001V28.7558C29.7174 28.5732 29.7889 28.3977 29.917 28.2675C30.0451 28.1373 30.2194 28.0629 30.402 28.0605C30.5851 28.0611 30.7607 28.1331 30.8914 28.2613C31.0222 28.3895 31.0976 28.5638 31.1017 28.7468V29.2591C31.6477 29.0521 32.2582 28.7573 32.499 29.5418C32.7255 30.2806 32.0422 30.3811 31.578 30.6106Z" fill="#6861AB"/>
<path d="M14.154 15.2033L13.548 14.3783C14.3014 13.4955 14.763 12.4012 14.8695 11.2455L15.8812 11.1008C16.2284 11.0511 16.5417 10.8654 16.752 10.5848C16.9624 10.3041 17.0526 9.95136 17.0029 9.60416C16.9531 9.25696 16.7675 8.94374 16.4868 8.73339C16.2062 8.52305 15.8534 8.43281 15.5062 8.48254L14.4742 8.63254C14.0874 7.67613 13.4434 6.84547 12.6135 6.23254L13.0597 5.17504C13.1951 4.8529 13.1969 4.49018 13.0649 4.16668C12.9328 3.84318 12.6776 3.5854 12.3555 3.45004C12.0333 3.31468 11.6706 3.31283 11.3471 3.4449C11.0236 3.57698 10.7658 3.83215 10.6305 4.15429L10.185 5.21029C9.14366 5.04232 8.07606 5.17232 7.10548 5.58529L6.43723 4.66504C6.33621 4.52188 6.20767 4.40028 6.05912 4.30737C5.91056 4.21445 5.74498 4.15208 5.57205 4.12389C5.39911 4.0957 5.22229 4.10227 5.05192 4.1432C4.88155 4.18413 4.72105 4.25861 4.5798 4.36228C4.43854 4.46595 4.31937 4.59674 4.22924 4.747C4.13911 4.89726 4.07983 5.06398 4.05488 5.23741C4.02992 5.41084 4.03978 5.5875 4.08388 5.75708C4.12798 5.92666 4.20544 6.08574 4.31173 6.22504L4.98673 7.15204C4.27196 8.00932 3.83024 9.06098 3.71848 10.1715L2.57548 10.3343C2.24126 10.3971 1.94421 10.5865 1.7463 10.8631C1.5484 11.1396 1.46492 11.4819 1.5133 11.8185C1.56168 12.1551 1.73817 12.4601 2.00595 12.6697C2.27372 12.8793 2.6121 12.9774 2.95048 12.9435L4.07548 12.7808C4.46135 13.7586 5.11479 14.6081 5.96098 15.2318L5.51548 16.2878C5.38012 16.6099 5.37827 16.9726 5.51035 17.2961C5.64242 17.6196 5.89759 17.8774 6.21973 18.0128C6.54187 18.1482 6.90459 18.15 7.22809 18.0179C7.55159 17.8859 7.80937 17.6307 7.94473 17.3085L8.39023 16.2525C9.40738 16.4221 10.4516 16.3072 11.4075 15.9203L12.0225 16.7603C12.1235 16.9035 12.252 17.025 12.4006 17.118C12.5491 17.2109 12.7147 17.2733 12.8877 17.3014C13.0606 17.3296 13.2374 17.3231 13.4078 17.2821C13.5782 17.2412 13.7387 17.1667 13.8799 17.063C14.0212 16.9594 14.1403 16.8286 14.2305 16.6783C14.3206 16.5281 14.3799 16.3614 14.4048 16.1879C14.4298 16.0145 14.4199 15.8378 14.3758 15.6682C14.3317 15.4987 14.2543 15.3396 14.148 15.2003L14.154 15.2033ZM8.14198 13.4738C7.60168 13.2465 7.14091 12.8641 6.81793 12.3749C6.49494 11.8858 6.32424 11.3119 6.3274 10.7257C6.33057 10.1395 6.50746 9.56749 6.83572 9.08186C7.16397 8.59623 7.62885 8.21883 8.17157 7.99738C8.71429 7.77593 9.31049 7.72037 9.88478 7.83773C10.4591 7.95508 10.9857 8.24009 11.398 8.6567C11.8104 9.07332 12.0899 9.60284 12.2013 10.1783C12.3127 10.7538 12.251 11.3494 12.024 11.8898C11.8732 12.2488 11.6532 12.5746 11.3765 12.8486C11.0998 13.1226 10.7718 13.3393 10.4113 13.4865C10.0508 13.6337 9.66485 13.7084 9.27547 13.7063C8.88608 13.7043 8.50092 13.6255 8.14198 13.4745V13.4738Z" fill="#6861AB"/>
<path d="M33.2228 10.7529H17.4683C17.4345 10.8062 17.3933 10.8602 17.3588 10.9134C17.1977 11.1293 16.9954 11.3111 16.7637 11.4485C16.532 11.5858 16.2755 11.6759 16.0088 11.7137L15.5273 11.7827C15.4452 12.2416 15.3129 12.69 15.1328 13.1199C15.0435 13.3292 14.943 13.5347 14.8328 13.7349H33.2228C34.6547 13.7371 36.038 14.2543 37.1202 15.192C38.2023 16.1297 38.9111 17.4254 39.117 18.8424H7.07552C6.73093 18.8936 6.379 18.8567 6.05252 18.7352C5.99272 18.7166 5.9339 18.6951 5.87627 18.6707C5.4508 18.4915 5.09818 18.1741 4.8754 17.7698C4.65261 17.3654 4.57268 16.8978 4.64852 16.4424C4.2429 17.4755 4.03504 18.5756 4.03577 19.6854V30.4104C4.03875 32.7794 4.98112 35.0504 6.6562 36.7255C8.33129 38.4006 10.6023 39.343 12.9713 39.3459H33.2213C35.5903 39.3434 37.8615 38.4011 39.5365 36.7259C41.2116 35.0507 42.1536 32.7794 42.156 30.4104V19.6854C42.1534 17.317 41.2114 15.0464 39.5366 13.3718C37.8619 11.6972 35.5912 10.7553 33.2228 10.7529ZM39.1793 30.4104C39.1775 31.9896 38.5494 33.5037 37.4327 34.6203C36.316 35.737 34.802 36.3651 33.2228 36.3669H12.9728C11.3933 36.3655 9.87889 35.7376 8.76189 34.6209C7.64489 33.5042 7.01656 31.9899 7.01477 30.4104V21.8147H39.1785L39.1793 30.4104Z" fill="#6861AB"/>
</svg>
