<?xml version="1.0" encoding="UTF-8"?>
<svg width="50px" height="50px" viewBox="0 0 50 50" version="1.1" xmlns="http://www.w3.org/2000/svg" xmlns:xlink="http://www.w3.org/1999/xlink">
    <title>2A88F198-2103-4062-928C-EBAD7008E0C7</title>
    <g id="Page-1" stroke="none" stroke-width="1" fill="none" fill-rule="evenodd">
        <g id="open-copy-24" transform="translate(-115.000000, -6349.000000)">
            <g id="Multiple-Cards" transform="translate(115.000000, 6349.000000)">
                <rect id="Rectangle_2184" fill-opacity="0" fill="#FFFFFF" fill-rule="nonzero" x="0" y="0" width="50" height="50"></rect>
                <g id="Multiple_Cards-2" transform="translate(0.781250, 5.468750)">
                    <path d="M26.7390625,-6.9388939e-16 L8.184375,-6.9388939e-16 C3.66592829,0.00473742947 0.00430613592,3.66670911 3.46944695e-16,8.18515625 L3.46944695e-16,18.0101563 C0.00430537512,22.5291617 3.6661517,26.1917071 8.18515625,26.196875 L8.18515625,23.4625 C5.17427127,23.4590607 2.73372028,21.0202567 2.728125,18.009375 L2.728125,10.134375 L34.9265625,10.134375 L34.9265625,8.18125 C34.919242,3.66346641 31.2568504,0.00387052105 26.7390625,-6.9388939e-16 Z M26.7390625,2.72734375 L8.184375,2.72734375 C5.47202178,2.72988503 3.17222985,4.72199581 2.7828125,7.40625 L32.1414063,7.40625 C31.7497517,4.72290357 29.450837,2.73184066 26.7390625,2.72734375 Z" id="Path_301" fill="#6861AB"></path>
                    <path d="M7.5,16.9210937 L7.5,16.26875 C7.49377025,15.8818843 7.79774283,15.5609086 8.184375,15.5460784 C8.37766143,15.5448359 8.5633959,15.6210625 8.70007294,15.7577396 C8.83674997,15.8944166 8.91297662,16.0801511 8.91171875,16.2734375 L8.91171875,16.7820312 C9.45234375,16.5539062 10.028125,16.278125 10.3070312,16.9710937 C10.6195312,17.7460937 9.92421875,17.9085937 9.37421875,18.1382812 C9.7296875,18.6070312 10.2859375,19.0320312 9.665625,19.6226562 C9.3171875,19.9554687 9.015625,19.8257812 8.2703125,19.0796875 C8.15625,19.2507812 8.0421875,19.4195312 7.9375,19.58125 C7.83809722,19.7411361 7.67829464,19.854061 7.49439385,19.894372 C7.31049307,19.9346831 7.11810642,19.8989581 6.9609375,19.7953125 C6.62839381,19.58855 6.52628481,19.1514396 6.7328125,18.81875 C6.8265625,18.6523437 6.93125,18.4953125 7.0546875,18.2945312 C6.85625,18.2375 6.67890625,18.1898437 6.503125,18.1382812 C6.22699499,18.1054687 5.99510672,17.9151752 5.90903778,17.6507577 C5.82296884,17.3863403 5.89841183,17.0960091 6.10231929,16.9069425 C6.30622675,16.7178759 6.60142108,16.6645455 6.85859375,16.7703125 C7.0754319,16.8066477 7.28968402,16.8570139 7.5,16.9210937 L7.5,16.9210937 Z" id="Path_302" fill="#6861AB" fill-rule="nonzero"></path>
                    <path d="M41.0867188,24.7195312 C45.2924765,24.6091928 48.6139384,21.1129171 48.5085937,16.9070312 C48.6463858,14.1664457 47.2626926,11.5729626 44.909585,10.1613392 C42.5564774,8.74971587 39.6169601,8.74971587 37.2638525,10.1613392 C34.9107449,11.5729626 33.5270517,14.1664457 33.6648438,16.9070312 C33.5594991,21.1129171 36.880961,24.6091928 41.0867188,24.7195312 L41.0867188,24.7195312 Z" id="Path_303" fill="#ED2891" fill-rule="nonzero" opacity="0.4"></path>
                    <path d="M37.734375,12.5 L19.1773437,12.5 C14.6592017,12.5047367 10.9977054,16.166233 10.9929687,20.684375 L10.9929687,30.509375 C10.9972741,35.0283805 14.6591205,38.6909258 19.178125,38.6960937 L37.734375,38.6960937 C42.2528448,38.6896373 45.9139373,35.027846 45.9195312,30.509375 L45.9195312,20.684375 C45.9139345,16.1662848 42.2524657,12.5051655 37.734375,12.5 Z M19.1773437,15.2265625 L37.734375,15.2265625 C40.4461495,15.2310594 42.7450642,17.2221223 43.1367187,19.9054687 L13.7757812,19.9054687 C14.1651986,17.2212146 16.4649905,15.2291038 19.1773437,15.2265625 L19.1773437,15.2265625 Z M37.734375,35.9632812 L19.1773437,35.9632812 C16.1664588,35.959842 13.7259078,33.521038 13.7203125,30.5101562 L13.7203125,22.6335937 L43.1890625,22.6335937 L43.1890625,30.509375 C43.1839006,33.5196484 40.7446491,35.9585505 37.734375,35.9632812 Z" id="Path_304" fill="#6861AB" fill-rule="nonzero"></path>
                    <path d="M18.4960938,29.4203125 L18.4960938,28.7679687 C18.489864,28.381103 18.7938366,28.0601274 19.1804687,28.0452972 C19.3737552,28.0440546 19.5594897,28.1202813 19.6961667,28.2569583 C19.8328437,28.3936353 19.9090704,28.5793698 19.9078125,28.7726562 L19.9078125,29.28125 C20.4484375,29.053125 21.0242187,28.7773437 21.303125,29.4703125 C21.615625,30.2453125 20.9203125,30.4078125 20.3703125,30.6375 C20.7257813,31.10625 21.2820313,31.53125 20.6617188,32.121875 C20.3132812,32.4546875 20.0117188,32.325 19.2664062,31.5789062 C19.1523438,31.75 19.0382812,31.91875 18.9335938,32.0804687 C18.834191,32.2403549 18.6743884,32.3532797 18.4904876,32.3935908 C18.3065868,32.4339018 18.1142002,32.3981768 17.9570312,32.2945312 C17.6244876,32.0877688 17.5223786,31.6506583 17.7289062,31.3179687 C17.8226563,31.1515625 17.9273438,30.9945312 18.0507812,30.79375 C17.8523437,30.7367187 17.675,30.6890625 17.4992188,30.6375 C17.2230887,30.6046875 16.9912005,30.4143939 16.9051315,30.1499765 C16.8190626,29.885559 16.8945056,29.5952279 17.098413,29.4061613 C17.3023205,29.2170946 17.5975148,29.1637642 17.8546875,29.2695312 C18.0715256,29.3058665 18.2857778,29.3562327 18.4960938,29.4203125 L18.4960938,29.4203125 Z" id="Path_305" fill="#6861AB" fill-rule="nonzero"></path>
                    <path d="M25.703125,30.6414062 C26.309375,31.5054688 26.3640625,31.8039063 25.9859375,32.1210938 C25.6078125,32.4382813 25.3335938,32.3304688 24.5796875,31.5851563 C24.475,31.7414063 24.3765625,31.8976563 24.271875,32.0414063 C24.1382907,32.2674911 23.8911754,32.4017698 23.6288021,32.3908422 C23.3664289,32.3799146 23.1313352,32.2255524 23.0170134,31.9891425 C22.9026916,31.7527325 22.9276762,31.472603 23.0820313,31.2601563 C23.16875,31.1164063 23.2617188,30.9773437 23.3804688,30.7914063 L22.8585938,30.640625 C22.6626342,30.6051596 22.4897864,30.490898 22.3803802,30.3245002 C22.2709741,30.1581023 22.2345792,29.9541232 22.2796875,29.7601563 C22.3368096,29.5644999 22.4714134,29.4006885 22.6522812,29.306714 C22.8331489,29.2127394 23.0445661,29.1967666 23.2375,29.2625 L23.8054688,29.40625 L23.8054688,28.75 C23.8031772,28.5629794 23.8754934,28.3827527 24.0064207,28.2491863 C24.137348,28.1156198 24.3160959,28.0397219 24.503125,28.0382813 C24.8926109,28.0394975 25.2096049,28.3519778 25.2164063,28.7414063 L25.2164063,29.2679688 C25.7742188,29.0539063 26.4023438,28.7554688 26.6453125,29.5554688 C26.8820313,30.3015625 26.18125,30.4039063 25.703125,30.6414062 Z" id="Path_306" fill="#6861AB" fill-rule="nonzero"></path>
                    <path d="M29.0445313,29.4203125 L29.0445313,28.7679688 C29.0383015,28.381103 29.3422741,28.0601274 29.7289062,28.0452972 C29.9221927,28.0440546 30.1079272,28.1202813 30.2446042,28.2569583 C30.3812812,28.3936353 30.4575079,28.5793698 30.45625,28.7726562 L30.45625,29.28125 C30.996875,29.053125 31.5726562,28.7773437 31.8515625,29.4703125 C32.1640625,30.2453125 31.46875,30.4078125 30.91875,30.6375 C31.2742187,31.10625 31.8304687,31.53125 31.2101562,32.121875 C30.8617187,32.4546875 30.5601562,32.325 29.8148437,31.5789062 C29.7007812,31.75 29.5867187,31.91875 29.4820312,32.0804687 C29.3458237,32.2956654 29.1051567,32.4218496 28.8506872,32.4114887 C28.5962176,32.4011279 28.3666055,32.2557962 28.2483434,32.0302387 C28.1300814,31.8046812 28.1411362,31.5331654 28.2773437,31.3179687 C28.36875,31.1515625 28.4757812,30.9945312 28.5992187,30.79375 C28.4007812,30.7367187 28.2234375,30.6890625 28.0476562,30.6375 C27.7715262,30.6046875 27.539638,30.4143939 27.453569,30.1499765 C27.3675001,29.885559 27.4429431,29.5952279 27.6468505,29.4061613 C27.850758,29.2170946 28.1459523,29.1637642 28.403125,29.2695312 C28.6199898,29.3081235 28.8342143,29.3603098 29.0445312,29.4257812 L29.0445313,29.4203125 Z" id="Path_307" fill="#6861AB" fill-rule="nonzero"></path>
                    <path d="M36.25,30.640625 C36.8585937,31.5046875 36.9109375,31.803125 36.5351562,32.1203125 C36.159375,32.4375 35.8828125,32.3296875 35.1242187,31.584375 C35.021875,31.740625 34.9234375,31.896875 34.81875,32.040625 C34.6851657,32.2667099 34.4380504,32.4009886 34.1756771,32.390061 C33.9133039,32.3791334 33.6782102,32.2247711 33.5638884,31.9883612 C33.4495666,31.7519513 33.4745512,31.4718218 33.6289062,31.259375 C33.715625,31.115625 33.8070313,30.9765625 33.9273437,30.790625 L33.4046875,30.6398438 C33.2087279,30.6043784 33.0358802,30.4901167 32.926474,30.3237189 C32.8170678,30.1573211 32.7806729,29.953342 32.8257813,29.759375 C32.8829033,29.5637186 33.0175072,29.3999072 33.1983749,29.3059327 C33.3792427,29.2119582 33.5906599,29.1959854 33.7835938,29.2617188 L34.3585938,29.4078125 L34.3585938,28.75 C34.3685041,28.3677574 34.6798968,28.0623181 35.0622595,28.0597714 C35.4446221,28.0572565 35.7600307,28.3585471 35.775,28.740625 L35.775,29.2671875 C36.3328125,29.053125 36.9609375,28.7546875 37.2039063,29.5546875 C37.4273437,30.3007813 36.73125,30.403125 36.25,30.640625 Z" id="Path_308" fill="#6861AB" fill-rule="nonzero"></path>
                </g>
            </g>
        </g>
    </g>
</svg>