<svg width="49" height="48" viewBox="0 0 49 48" fill="none" xmlns="http://www.w3.org/2000/svg">
<g clip-path="url(#clip0)">
<path opacity="0.4" d="M8 41.2501C12.1421 41.2501 15.5 37.8922 15.5 33.75C15.5 29.6079 12.1421 26.25 8 26.25C3.85786 26.25 0.5 29.6079 0.5 33.75C0.5 37.8922 3.85786 41.2501 8 41.2501Z" fill="#FF1391"/>
<path d="M12.1722 29.507V28.8388C12.1684 28.6467 12.2406 28.461 12.373 28.3219C12.5055 28.1828 12.6875 28.1017 12.8795 28.0962C12.9777 28.0953 13.0752 28.114 13.1661 28.1512C13.2571 28.1884 13.3397 28.2433 13.4092 28.3128C13.4786 28.3823 13.5336 28.4649 13.5708 28.5559C13.6079 28.6468 13.6266 28.7443 13.6257 28.8425V29.3675C14.1807 29.1425 14.7755 28.8515 15.0402 29.5618C15.3582 30.3576 14.648 30.5271 14.0817 30.7618C14.4357 31.2426 15.0117 31.6814 14.3817 32.2859C14.0277 32.6399 13.7135 32.4982 12.9462 31.7309C12.8292 31.9079 12.7212 32.0849 12.5922 32.2469C12.5425 32.3288 12.4767 32.3997 12.3988 32.4554C12.3209 32.511 12.2324 32.5503 12.1389 32.5708C12.0453 32.5912 11.9486 32.5925 11.8545 32.5745C11.7605 32.5565 11.6711 32.5195 11.5917 32.4659C11.4292 32.363 11.3143 32.1998 11.2721 32.0122C11.2299 31.8246 11.2639 31.6279 11.3667 31.4654C11.459 31.2959 11.5685 31.1331 11.696 30.9276C11.4942 30.8676 11.3105 30.8181 11.1305 30.7611C11.0301 30.7453 10.934 30.7088 10.8485 30.6539C10.7629 30.599 10.6898 30.5269 10.6336 30.4421C10.5775 30.3574 10.5396 30.2618 10.5224 30.1617C10.5053 30.0615 10.5091 29.9588 10.5338 29.8602C10.5585 29.7616 10.6034 29.6692 10.6658 29.5889C10.7281 29.5086 10.8065 29.4422 10.896 29.3939C10.9854 29.3455 11.0839 29.3164 11.1852 29.3082C11.2866 29.3001 11.3885 29.3131 11.4845 29.3465C11.723 29.3833 11.9067 29.4403 12.1722 29.507Z" fill="#6861AB"/>
<path d="M20.3204 30.7615C20.9466 31.6495 20.9991 31.957 20.6136 32.2825C20.2281 32.608 19.9386 32.4947 19.1639 31.7305C19.0544 31.8932 18.9554 32.056 18.8489 32.2082C18.799 32.2942 18.7321 32.369 18.6524 32.4283C18.5726 32.4875 18.4816 32.5299 18.3849 32.5529C18.2882 32.5758 18.1879 32.5788 18.09 32.5618C17.9921 32.5447 17.8987 32.5079 17.8155 32.4535C17.7324 32.3992 17.6611 32.3285 17.6061 32.2457C17.5511 32.1629 17.5136 32.0698 17.4957 31.9721C17.4779 31.8744 17.4802 31.774 17.5024 31.6771C17.5246 31.5803 17.5662 31.489 17.6249 31.4088C17.7096 31.264 17.8086 31.1185 17.9294 30.9243L17.3954 30.7743C17.2951 30.756 17.1997 30.7171 17.1153 30.66C17.0308 30.6029 16.9592 30.5289 16.9048 30.4427C16.8505 30.3564 16.8147 30.2598 16.7996 30.159C16.7846 30.0582 16.7907 29.9554 16.8175 29.857C16.8443 29.7587 16.8912 29.667 16.9553 29.5878C17.0194 29.5085 17.0993 29.4435 17.1899 29.3967C17.2805 29.35 17.3798 29.3225 17.4815 29.3162C17.5833 29.3099 17.6852 29.3247 17.7809 29.3598L18.3681 29.5046V28.8296C18.3663 28.6392 18.4394 28.4557 18.5718 28.3187C18.7041 28.1818 18.885 28.1024 19.0754 28.0977C19.265 28.0985 19.447 28.1725 19.5834 28.3043C19.7198 28.436 19.8 28.6154 19.8074 28.8049V29.3456C20.3804 29.1206 21.0239 28.8154 21.2751 29.6388C21.5264 30.412 20.8124 30.5178 20.3204 30.7615Z" fill="#6861AB"/>
<path d="M24.473 29.5073V28.8391C24.4658 28.7388 24.4793 28.6381 24.5128 28.5433C24.5462 28.4485 24.5988 28.3615 24.6673 28.2879C24.7358 28.2144 24.8188 28.1557 24.9109 28.1155C25.0031 28.0754 25.1026 28.0547 25.2031 28.0547C25.3037 28.0547 25.4031 28.0754 25.4953 28.1155C25.5875 28.1557 25.6704 28.2144 25.7389 28.2879C25.8074 28.3615 25.86 28.4485 25.8935 28.5433C25.9269 28.6381 25.9404 28.7388 25.9332 28.8391V29.3641C26.4882 29.1391 27.0792 28.8481 27.3477 29.5583C27.6657 30.3541 26.9517 30.5236 26.3892 30.7583C26.7432 31.2391 27.3155 31.6778 26.6892 32.2823C26.3352 32.6363 26.024 32.4946 25.253 31.7273C25.136 31.9043 25.028 32.0813 24.899 32.2433C24.8493 32.3253 24.7835 32.3963 24.7055 32.452C24.6275 32.5078 24.539 32.5471 24.4453 32.5676C24.3517 32.588 24.2549 32.5893 24.1607 32.5712C24.0666 32.5531 23.9771 32.516 23.8977 32.4623C23.735 32.3598 23.6195 32.197 23.5763 32.0095C23.5332 31.8221 23.566 31.6252 23.6675 31.4618C23.7627 31.2923 23.8722 31.1296 23.9997 30.9241L23.4305 30.7576C23.3301 30.7418 23.234 30.7053 23.1485 30.6504C23.063 30.5955 22.9898 30.5233 22.9337 30.4386C22.8775 30.3539 22.8397 30.2583 22.8225 30.1582C22.8053 30.058 22.8092 29.9553 22.8338 29.8567C22.8585 29.7581 22.9035 29.6657 22.9658 29.5854C23.0282 29.5051 23.1066 29.4387 23.196 29.3904C23.2854 29.3421 23.3839 29.3129 23.4853 29.3048C23.5866 29.2966 23.6885 29.3096 23.7845 29.3431C24.038 29.3836 24.2075 29.4406 24.473 29.5073Z" fill="#6861AB"/>
<path d="M32.6173 30.7626C33.2436 31.6507 33.2998 31.9582 32.9106 32.2837C32.5213 32.6092 32.2423 32.4959 31.4608 31.7317C31.3551 31.8944 31.2561 32.0572 31.1458 32.2094C31.0996 32.297 31.0355 32.374 30.9577 32.4352C30.8798 32.4965 30.79 32.5407 30.694 32.565C30.598 32.5893 30.4979 32.5932 30.4003 32.5764C30.3027 32.5596 30.2097 32.5225 30.1273 32.4674C30.0398 32.4151 29.9642 32.3449 29.9056 32.2614C29.847 32.1778 29.8067 32.0829 29.7873 31.9827C29.7679 31.8826 29.7699 31.7794 29.7931 31.6801C29.8162 31.5807 29.8601 31.4874 29.9218 31.4061C30.0103 31.2614 30.1056 31.1159 30.2293 30.9216L29.6916 30.7716C29.5876 30.7568 29.488 30.72 29.3993 30.6637C29.3107 30.6074 29.235 30.5328 29.1775 30.445C29.1199 30.3572 29.0817 30.2581 29.0653 30.1543C29.049 30.0505 29.055 29.9445 29.0829 29.8433C29.1107 29.742 29.1598 29.6478 29.2269 29.567C29.294 29.4862 29.3776 29.4206 29.472 29.3746C29.5664 29.3286 29.6695 29.3033 29.7745 29.3002C29.8795 29.2972 29.9839 29.3166 30.0808 29.357L30.6643 29.5018V28.8268C30.661 28.7318 30.6768 28.6372 30.7109 28.5485C30.7449 28.4598 30.7965 28.3789 30.8625 28.3106C30.9285 28.2422 31.0076 28.1879 31.0951 28.1508C31.1826 28.1138 31.2766 28.0947 31.3716 28.0947C31.5616 28.0955 31.744 28.1694 31.881 28.3011C32.018 28.4328 32.0991 28.6122 32.1073 28.802C32.1073 28.961 32.1073 29.1238 32.1073 29.3428C32.6841 29.1178 33.3238 28.8125 33.5788 29.6361C33.8271 30.4123 33.1131 30.5188 32.6173 30.7626Z" fill="#6861AB"/>
<path d="M40.6138 26.038V30.5381C40.612 32.1996 39.9512 33.7926 38.7763 34.9675C37.6014 36.1424 36.0084 36.8033 34.3468 36.8051H13.0468C11.3857 36.8031 9.79316 36.1421 8.61889 34.9671C7.44463 33.7921 6.78456 32.1992 6.78356 30.5381V21.511H30.1716L30.0411 21.313C29.4847 20.4028 29.0709 19.4129 28.8141 18.3775H6.84956C7.06598 16.887 7.81139 15.5241 8.94962 14.5377C10.0878 13.5514 11.5429 13.0074 13.0491 13.0052H28.9641C29.3007 11.8797 29.8295 10.8208 30.5271 9.87549H13.0521C10.5601 9.87747 8.17072 10.8681 6.40842 12.63C4.64612 14.3919 3.6549 16.781 3.65231 19.273V30.5411C3.65509 33.0324 4.646 35.4209 6.40763 37.1825C8.16926 38.9441 10.5577 39.9351 13.0491 39.9378H34.3491C36.8406 39.9359 39.2296 38.9452 40.9914 37.1834C42.7532 35.4216 43.7438 33.0326 43.7458 30.5411V24.916C42.7709 25.4603 41.7126 25.8394 40.6138 26.038V26.038Z" fill="#6861AB"/>
<path d="M36.5 15.75L38 17.25L41 14.25" stroke="#6861AB" stroke-width="2.4" stroke-linecap="round" stroke-linejoin="round"/>
<path d="M45.5 15.762C45.4975 17.1647 45.0581 18.5317 44.2429 19.6732C43.4277 20.8146 42.2771 21.6737 40.9511 22.1311C39.6251 22.5884 38.1896 22.6214 36.844 22.2253C35.4984 21.8292 34.3097 21.0238 33.4429 19.921C32.5762 18.8181 32.0745 17.4727 32.0077 16.0716C31.9409 14.6706 32.3122 13.2835 33.07 12.1031C33.8278 10.9228 34.9345 10.0079 36.2363 9.48554C37.538 8.96318 38.9702 8.85932 40.3337 9.18841C41.8082 9.54429 43.1199 10.3864 44.0572 11.579C44.9945 12.7716 45.5027 14.2452 45.5 15.762Z" stroke="#6861AB" stroke-width="2.4"/>
</g>
<defs>
<clipPath id="clip0">
<rect width="48" height="48" fill="white" transform="translate(0.5)"/>
</clipPath>
</defs>
</svg>
