<?xml version="1.0" encoding="UTF-8"?>
<svg width="20px" height="16px" viewBox="0 0 20 16" version="1.1" xmlns="http://www.w3.org/2000/svg" xmlns:xlink="http://www.w3.org/1999/xlink">
    <!-- Generator: sketchtool 63.1 (101010) - https://sketch.com -->
    <title>22E155AE-5CF2-430F-B0C0-F2030C7D1A2C@1.5x</title>
    <desc>Created with sketchtool.</desc>
    <g id="Home+Pricing+About-Us" stroke="none" stroke-width="1" fill="none" fill-rule="evenodd">
        <g id="top_tab_dropdown" transform="translate(-735.000000, -593.000000)" fill-rule="nonzero">
            <g id="partners_menu_icon" transform="translate(735.000000, 593.000000)">
                <path d="M4.33380282,4.15633803 C4.3357117,2.64732709 5.30834398,1.31088145 6.74366197,0.845070423 C5.3074473,0.378696576 3.73426174,0.890060468 2.84675517,2.11175979 C1.95924861,3.33345912 1.95924861,4.98766764 2.84675517,6.20936697 C3.73426174,7.43106629 5.3074473,7.94243018 6.74366197,7.47605634 C5.30538182,7.00928377 4.33204981,5.66846347 4.33380282,4.15633803 L4.33380282,4.15633803 Z" id="Path" fill="#C69DEE" opacity="0.2"></path>
                <path d="M12.1253521,4.18732394 C12.1247898,2.6769886 13.0972877,1.33824005 14.5338028,0.871830986 C13.0986039,0.407764847 11.5277666,0.919809881 10.6417535,2.1405203 C9.75574036,3.36123073 9.75574036,5.01341716 10.6417535,6.23412758 C11.5277666,7.45483801 13.0986039,7.96688304 14.5338028,7.5028169 C13.0972877,7.03640784 12.1247898,5.69765929 12.1253521,4.18732394 L12.1253521,4.18732394 Z" id="Path" fill="#C69DEE" opacity="0.2"></path>
                <path d="M13.8140845,15.6126762 C13.7072458,15.6127566 13.6022871,15.5845732 13.5098592,15.5309859 L11.056338,14.1070423 C10.9136079,14.0254544 10.8101793,13.8893467 10.7698059,13.7299778 C10.7294324,13.5706089 10.7555836,13.4016744 10.8422535,13.2619718 L11.7521127,11.7760563 C11.8653306,11.5913852 12.0684692,11.4811432 12.2850081,11.4868573 C12.5015469,11.4925714 12.6985886,11.6133735 12.8019095,11.8037587 C12.9052303,11.9941439 12.8991335,12.2251881 12.7859155,12.4098592 L12.2014085,13.3647887 L13.8183099,14.3042254 L15.4774648,13.3633803 L14.8788732,12.4169014 C14.6999641,12.1341472 14.7841472,11.7598951 15.0669014,11.5809859 C15.3496556,11.4020768 15.7239078,11.4862598 15.9028169,11.7690141 L16.8422535,13.2535211 C16.931252,13.3937874 16.9587286,13.5644528 16.918251,13.7255643 C16.8777734,13.8866758 16.7728954,14.0240885 16.628169,14.1056338 L14.1126761,15.5338028 C14.0216831,15.585576 13.9187754,15.6127591 13.8140845,15.6126762 L13.8140845,15.6126762 Z" id="Path" fill="#C69DEE"></path>
                <path d="M8.52112676,11.0070423 C8.77201829,10.8907301 8.92901166,10.6356339 8.91979873,10.3592461 C8.91058581,10.0828584 8.73695339,9.83878306 8.47887324,9.73943662 C7.84877031,9.50145028 7.18058887,9.38022308 6.50704225,9.38167698 L5.6,9.38167698 C2.51068833,9.38478874 0.00620812087,11.8867494 0,14.9760563 C0,15.3572106 0.308986581,15.6661972 0.690140845,15.6661972 C1.07129511,15.6661972 1.38028169,15.3572106 1.38028169,14.9760563 C1.38028169,12.6424588 3.27203627,10.7507042 5.6056338,10.7507042 L6.51408451,10.7507042 C7.02114301,10.7495687 7.52417491,10.8407254 7.99859155,11.0197183 C8.16764276,11.0844708 8.35541419,11.0799157 8.52112676,11.0070423 Z" id="Path" fill="#663399"></path>
                <path d="M14.3,9.40703942 L13.3901408,9.40703942 C10.2986335,9.41014774 7.79324633,11.9155349 7.79014085,15.0070423 C7.79014085,15.3881965 8.09912743,15.6971831 8.48028169,15.6971831 C8.86143595,15.6971831 9.17042254,15.3881965 9.17042254,15.0070423 C9.17042254,12.6734447 11.0621771,10.7816901 13.3957746,10.7816901 L14.3056338,10.7816901 C16.6392313,10.7816901 18.5309859,12.6734447 18.5309859,15.0070423 C18.5309859,15.3881965 18.8399725,15.6971831 19.2211268,15.6971831 C19.602281,15.6971831 19.9112676,15.3881965 19.9112676,15.0070423 C19.9097742,13.5203355 19.3177496,12.0951137 18.2654326,11.0449099 C17.2131156,9.99470597 15.7867067,9.40554733 14.3,9.40703942 L14.3,9.40703942 Z" id="Path" fill="#663399"></path>
                <path d="M13.784507,8.36197207 C15.4738204,8.36254149 16.9970833,7.34528687 17.6438187,5.78467379 C18.2905541,4.22406072 17.933358,2.42752295 16.738833,1.23299798 C15.544308,0.0384729978 13.7477703,-0.318723139 12.1871572,0.328012258 C10.6265441,0.974747654 9.6092895,2.49801062 9.60985892,4.18732394 C9.61218824,6.49195288 11.4798781,8.35964274 13.784507,8.36197207 Z M13.784507,1.3915493 C15.3282031,1.39310466 16.5785008,2.64550349 16.5774648,4.18919999 C16.5764275,5.73289648 15.3244489,6.98361495 13.7807521,6.98309718 C12.2370554,6.98257908 10.9859155,5.73102078 10.9859155,4.18732394 C10.9874701,2.64280469 12.239987,1.3915493 13.784507,1.3915493 Z" id="Shape" fill="#663399"></path>
                <path d="M5.6943662,8.30985915 C5.79859155,8.31830986 5.90704225,8.32253869 6.01267606,8.32253869 C7.00577979,8.32381908 7.96654306,7.96959071 8.72112676,7.32394366 C8.85481832,7.20875334 8.98090414,7.08501986 9.09859155,6.95352113 C9.34284141,6.68126808 9.32014035,6.26255975 9.04788731,6.01830988 C8.77563427,5.77406001 8.35692593,5.79676105 8.11267606,6.06901408 C8.0312309,6.15842735 7.94470259,6.24307461 7.85352113,6.32253521 C6.66227477,7.33988902 4.87215287,7.20026763 3.85305067,6.01051666 C2.83394848,4.8207657 2.9709407,3.03044068 4.15919371,2.00959229 C5.34744672,0.988743896 7.137971,1.12310667 8.16056338,2.30985915 C8.23697888,2.3994552 8.30799636,2.49351808 8.37323944,2.5915493 C8.47069683,2.73822321 8.62289973,2.83969181 8.79577465,2.87323944 C8.96756596,2.90869319 9.14639315,2.87313096 9.2915493,2.77464789 C9.43745038,2.67770539 9.53876341,2.52667472 9.57311732,2.35490515 C9.60747124,2.18313559 9.57204024,2.00475611 9.47464789,1.85915493 C9.37895489,1.71740756 9.27551118,1.58104994 9.16478873,1.45070423 C7.65563053,-0.249723755 5.06141678,-0.425041377 3.33719501,1.05687397 C1.61297324,2.53878931 1.39640683,5.12988564 2.85070423,6.87746479 C3.56950537,7.715222 4.59332873,8.23093688 5.6943662,8.30985915 Z" id="Path" fill="#663399"></path>
            </g>
        </g>
    </g>
</svg>