<svg width="48" height="48" viewBox="0 0 48 48" fill="none" xmlns="http://www.w3.org/2000/svg">
<path opacity="0.4" d="M6.843 18.935C10.6223 18.935 13.686 15.8713 13.686 12.092C13.686 8.31274 10.6223 5.24902 6.843 5.24902C3.06371 5.24902 0 8.31274 0 12.092C0 15.8713 3.06371 18.935 6.843 18.935Z" fill="#FF1391"/>
<path d="M37.5 11.25L39 12.75L42 9.75" stroke="#6861AB" stroke-width="2.4" stroke-linecap="round" stroke-linejoin="round"/>
<path d="M46.5 11.262C46.4975 12.6647 46.0581 14.0317 45.2429 15.1732C44.4276 16.3146 43.277 17.1737 41.9511 17.6311C40.6251 18.0884 39.1895 18.1214 37.844 17.7253C36.4984 17.3292 35.3096 16.5238 34.4429 15.421C33.5761 14.3181 33.0745 12.9727 33.0077 11.5716C32.9408 10.1706 33.3121 8.78347 34.0699 7.60315C34.8278 6.42283 35.9345 5.5079 37.2362 4.98554C38.538 4.46318 39.9702 4.35932 41.3337 4.68841C42.8082 5.04429 44.1198 5.88644 45.0571 7.07905C45.9944 8.27165 46.5027 9.74519 46.5 11.262Z" stroke="#6861AB" stroke-width="2.4"/>
<path d="M27.75 9H13.5C9.35786 9 6 12.3579 6 16.5V30C6 34.1421 9.35786 37.5 13.5 37.5H39C43.1421 37.5 46.5 34.1421 46.5 30V21.75" stroke="#6861AB" stroke-width="3" stroke-linecap="round" stroke-linejoin="round"/>
<path d="M24 18.75H28.5" stroke="#6861AB" stroke-width="3" stroke-linecap="round"/>
<path d="M24 24.75H36" stroke="#6861AB" stroke-width="3" stroke-linecap="round"/>
<path d="M24 30.75H36" stroke="#6861AB" stroke-width="3" stroke-linecap="round"/>
<path d="M19.2842 20.3326H18.0722C17.9554 19.899 17.7805 19.483 17.5522 19.0959H19.37C19.4917 19.0896 19.611 19.0595 19.7211 19.0073C19.8311 18.9551 19.9298 18.8819 20.0114 18.7918C20.093 18.7017 20.1559 18.5965 20.1967 18.4821C20.2374 18.3678 20.2551 18.2466 20.2487 18.1255C20.2424 18.0044 20.2121 17.8857 20.1597 17.7762C20.1073 17.6667 20.0336 17.5686 19.9431 17.4874C19.8525 17.4062 19.7468 17.3436 19.6319 17.3031C19.517 17.2626 19.3952 17.2449 19.2734 17.2513H12.177C11.9312 17.2513 11.6954 17.3484 11.5215 17.5214C11.3477 17.6944 11.25 17.929 11.25 18.1736C11.25 18.4182 11.3477 18.6528 11.5215 18.8257C11.6954 18.9987 11.9312 19.0959 12.177 19.0959H14.2165C14.6195 19.1042 15.0121 19.2244 15.35 19.443C15.688 19.6615 15.9579 19.9696 16.1293 20.3326H12.177C11.9312 20.3326 11.6954 20.4297 11.5215 20.6027C11.3477 20.7757 11.25 21.0103 11.25 21.2549C11.25 21.4995 11.3477 21.7341 11.5215 21.907C11.6954 22.08 11.9312 22.1772 12.177 22.1772H16.13C16.0183 22.3926 15.8803 22.5934 15.7191 22.7751C15.5241 22.9752 15.2912 23.1346 15.0338 23.2443C14.7763 23.3539 14.4996 23.4116 14.2196 23.4138H12.1631C11.9263 23.4108 11.6979 23.501 11.5277 23.6649C11.3575 23.8287 11.2593 24.0529 11.2546 24.2885C11.2502 24.4175 11.2735 24.546 11.323 24.6653C11.3726 24.7846 11.4473 24.892 11.542 24.9802L16.6306 29.754C16.8028 29.912 17.0284 29.9998 17.2626 29.9999C17.3925 30.0014 17.5213 29.9761 17.6409 29.9257C17.7605 29.8753 17.8684 29.8009 17.9578 29.7071C18.1227 29.5301 18.2112 29.2958 18.2044 29.0545C18.1976 28.8132 18.0961 28.5842 17.9215 28.4166L14.5054 25.2078C15.3494 25.1461 16.1519 24.8194 16.7973 24.2748C17.4426 23.7301 17.8974 22.9956 18.0961 22.1772H19.3082C19.5541 22.1772 19.7899 22.08 19.9637 21.907C20.1376 21.7341 20.2352 21.4995 20.2352 21.2549C20.2352 21.0103 20.1376 20.7757 19.9637 20.6027C19.7899 20.4297 19.5541 20.3326 19.3082 20.3326H19.2842Z" fill="#6861AB"/>
<path d="M15.7538 42.5142H39.009" stroke="#6861AB" stroke-width="3" stroke-linecap="round"/>
</svg>
