<?xml version="1.0" encoding="UTF-8"?>
<svg width="50px" height="50px" viewBox="0 0 50 50" version="1.1" xmlns="http://www.w3.org/2000/svg" xmlns:xlink="http://www.w3.org/1999/xlink">
    <title>CA6271E6-E412-4C33-BEAE-C7D3CCFDCD33</title>
    <g id="Page-1" stroke="none" stroke-width="1" fill="none" fill-rule="evenodd">
        <g id="open-copy-24" transform="translate(-481.000000, -5551.000000)" fill-rule="nonzero">
            <g id="Plugin" transform="translate(481.000000, 5551.000000)">
                <rect id="Rectangle_2183" fill-opacity="0" fill="#FFFFFF" x="0" y="0" width="50" height="50"></rect>
                <g id="Group_1180" transform="translate(7.031250, 7.623437)">
                    <circle id="Ellipse_1130" fill="#ED2891" opacity="0.4" cx="28.125" cy="8.0015625" r="7.8125"></circle>
                    <path d="M13.9734375,0.00078125 C10.9861,0.00078125 9.1486856,1.65714392 8.45486107,4.19405687 L8.37009616,4.53190619 C8.2669182,4.98287857 8.2025017,5.43519391 8.16957227,5.8806503 L8.1578125,6.0859375 L-2.22044605e-16,6.08671875 C-0.862944922,6.08671875 -1.5625,6.78627383 -1.5625,7.64921875 L-1.5625,17.5492188 C-1.5625,18.4910041 -0.739066996,19.2091332 0.179207862,19.1015225 L0.427389536,19.0629784 L0.581473448,19.0436482 C1.22521931,18.9698773 1.91995384,18.9734071 2.53162751,19.0990831 C3.63911247,19.3266298 4.1296875,19.8172721 4.1296875,20.9804688 C4.1296875,22.7532261 2.69348755,23.467162 0.506200928,23.4862062 L0.358408872,23.4859954 L0.12823734,23.4779275 C-0.782199348,23.4029533 -1.5625,24.1216377 -1.5625,25.0351563 L-1.5625,35.128125 C-1.5625,35.9910211 -0.863021092,36.690556 -0.000124980003,36.690625 L9.76706252,36.6914062 L9.88405811,36.6871462 C10.7713075,36.6221619 11.4273336,35.8231571 11.3183713,34.9402292 L11.3077064,34.8775568 C11.1745274,33.8953618 11.1899746,32.9070785 11.4427205,32.1414902 C11.7337471,31.2599463 12.2579141,30.85 13.4164062,30.85 C14.7488469,30.85 15.3825839,31.4281419 15.7109982,32.6224773 C15.9006924,33.312333 15.939884,34.0861819 15.887673,34.7605777 L15.872767,34.9189285 C15.7455855,35.8567354 16.4747022,36.6914062 17.4210937,36.6914062 L27.3484375,36.6914062 L27.4650487,36.6871205 C28.273533,36.6274728 28.9109375,35.9526264 28.9109375,35.1289062 L28.9101562,26.6835938 L29.1635942,26.6743562 C29.7140434,26.6457061 30.2723204,26.5708493 30.8243477,26.4368847 C33.4187271,25.807287 35.1257812,23.9941187 35.1257812,20.98125 C35.1257812,17.9089439 33.3361062,16.1875487 30.6760816,15.8088589 L30.3489318,15.7692598 C29.9116373,15.7254524 29.4704285,15.7170663 29.0308849,15.7375656 L28.9101562,15.7453125 L28.9109375,7.64921875 L28.9066518,7.53260754 C28.847004,6.72412327 28.1721577,6.08671875 27.3484375,6.08671875 L19.2210938,6.0859375 L19.2262557,6.00481201 C19.2506774,5.46156067 19.2294527,4.91537692 19.1495933,4.37699088 C18.760952,1.75689934 17.0326748,0.00078125 13.9734375,0.00078125 Z M13.9734375,3.12578125 C15.3650791,3.12578125 15.8828469,3.65188973 16.0584145,4.83550912 C16.1473475,5.43506556 16.1155229,6.11958545 16.0046694,6.78076722 L15.9675305,6.98651447 L15.9217782,7.19969906 L15.8852888,7.35273158 C15.6990068,8.30642449 16.4292499,9.21171875 17.4195312,9.21171875 L25.7851562,9.2109375 L25.7859375,17.55 C25.7859375,18.5390032 26.6890458,19.2689942 27.6419199,19.0848192 L27.8579297,19.0340325 L28.0212846,19.0002749 L28.2363107,18.961709 C28.9158145,18.8485184 29.6184513,18.8148 30.2356372,18.9026646 C31.4598899,19.0769532 32.0007812,19.5972084 32.0007812,20.98125 C32.0007812,22.4247289 31.377269,23.0870001 30.087371,23.4000294 C29.3760417,23.572653 28.57617,23.5949676 27.8536059,23.524389 L27.4920579,23.4799467 C26.5853304,23.3947857 25.7859375,24.1087931 25.7859375,25.0359375 L25.7851562,33.565625 L19.0132812,33.565625 L19.0055944,33.4315392 C18.9636588,32.891616 18.874443,32.3404661 18.7241581,31.7939289 C18.0486661,29.3373854 16.2812312,27.725 13.4164062,27.725 C10.8594491,27.725 9.17492503,29.042451 8.4752483,31.1618301 L8.38857104,31.4447004 C8.20068366,32.1080504 8.11213427,32.7940585 8.09816655,33.4906243 L8.096875,33.5664062 L1.5625,33.565625 L1.5625,26.553125 L1.72960005,26.535487 C2.63209252,26.4267357 3.51416468,26.1938897 4.32833686,25.7891642 C6.14772605,24.8847447 7.2546875,23.2532072 7.2546875,20.9804688 C7.2546875,18.1856576 5.61069222,16.5414366 3.16055999,16.0380263 L2.83183833,15.9778163 C2.50252133,15.9246756 2.17176458,15.8923977 1.84268471,15.8778822 L1.5625,15.8703125 L1.5625,9.2109375 L9.765625,9.21171875 C10.6777855,9.21171875 11.3868541,8.43678311 11.3246201,7.54307591 L11.2996979,7.31193744 L11.2938055,7.24493039 C11.2353059,6.53880697 11.2731147,5.73527551 11.4691624,5.01844313 C11.815621,3.75164515 12.5098961,3.12578125 13.9734375,3.12578125 Z" id="Path_260" fill="#6861AB"></path>
                </g>
            </g>
        </g>
    </g>
</svg>