<?xml version="1.0" encoding="UTF-8"?>
<svg width="64px" height="64px" viewBox="0 0 64 64" version="1.1" xmlns="http://www.w3.org/2000/svg" xmlns:xlink="http://www.w3.org/1999/xlink">
    <title>5B15D95A-387D-4048-9F53-B67158C96285</title>
    <g id="Page-1" stroke="none" stroke-width="1" fill="none" fill-rule="evenodd">
        <g id="open-copy-24" transform="translate(-770.000000, -4547.000000)" fill-rule="nonzero">
            <g id="Refunds" transform="translate(770.000000, 4547.000000)">
                <rect id="Rectangle_2176" fill-opacity="0" fill="#FFFFFF" x="0" y="0" width="64" height="64"></rect>
                <g id="Group_1168" transform="translate(10.000000, 3.000000)">
                    <circle id="Ellipse_1133" fill="#ED2891" opacity="0.4" cx="33.946" cy="46.908" r="9.124"></circle>
                    <path d="M24,2.559 L24,6.559 L8,6.559 C4.76160306,6.559 2.12242824,9.12457489 2.00413847,12.3340617 L2,12.559 L2,48.559 C2,51.7973969 4.56557489,54.4365718 7.77506174,54.5548615 L8,54.559 L28,54.559 C31.2383969,54.559 33.8775718,51.9934251 33.9958615,48.7839383 L34,48.559 L34,16.559 L38,16.559 L38,48.559 C38,53.9882399 33.6733292,58.4069317 28.2799048,58.5551582 L28,58.559 L8,58.559 C2.57076009,58.559 -1.84793172,54.2323292 -1.9961582,48.8389048 L-2,48.559 L-2,12.559 C-2,7.12976009 2.32667079,2.71106828 7.72009516,2.5628418 L8,2.559 L24,2.559 Z" id="Rectangle_2158" fill="#6861AB"></path>
                    <path d="M21.725,45.991 C22.8295695,45.991 23.725,46.8864305 23.725,47.991 C23.725,49.0453618 22.9091222,49.9091651 21.8742623,49.9855143 L21.725,49.991 L13.725,49.991 C12.6204305,49.991 11.725,49.0955695 11.725,47.991 C11.725,46.9366382 12.5408778,46.0728349 13.5757377,45.9964857 L13.725,45.991 L21.725,45.991 Z" id="Path_151" fill="#6861AB"></path>
                    <path d="M19.292,38.5590079 C18.9247505,38.5590079 18.5711313,38.4198811 18.302,38.17 L8.502,28.928 C8.20682292,28.6527759 8.04342042,28.2644675 8.053,27.861 C8.06723864,27.090916 8.70084977,26.4769656 9.471,26.487 L13.434,26.487 C14.6132739,26.4774106 15.7396726,25.9963145 16.562,25.151 C16.8969762,24.7765698 17.183248,24.3612741 17.414,23.915 L17.675,23.426 L9.501,23.426 C8.97012089,23.4457198 8.47090714,23.1737453 8.1996111,22.7169959 C7.92831506,22.2602466 7.92831506,21.6917534 8.1996111,21.2350041 C8.47090714,20.7782547 8.97012089,20.5062802 9.501,20.526 L17.652,20.526 L17.417,20.045 C16.6833331,18.4996485 15.1402714,17.5007415 13.43,17.464 L9.501,17.464 C8.97012089,17.4837198 8.47090714,17.2117453 8.1996111,16.7549959 C7.92831506,16.2982466 7.92831506,15.7297534 8.1996111,15.2730041 C8.47090714,14.8162547 8.97012089,14.5442802 9.501,14.564 L23.195,14.564 C23.9667287,14.5640839 24.6033677,15.1682284 24.643845,15.9388948 C24.6843223,16.7095612 24.1144738,17.3770734 23.347,17.458 L23.335,17.458 L23.206,17.446 L19.325,17.446 L19.589,17.946 C20.0124828,18.6705706 20.335443,19.4493759 20.549,20.261 L20.611,20.517 L23.199,20.517 C23.7298791,20.4972802 24.2290929,20.7692547 24.5003889,21.2260041 C24.7716849,21.6827534 24.7716849,22.2512466 24.5003889,22.7079959 C24.2290929,23.1647453 23.7298791,23.4367198 23.199,23.417 L20.609,23.417 L20.549,23.676 C20.244079,24.9966562 19.5686349,26.2028807 18.602,27.153 C17.361473,28.4134469 15.7007487,29.1736927 13.936,29.289 L13.173,29.341 L20.309,36.079 C20.8760382,36.6278459 20.9004723,37.5292412 20.364,38.108 C20.0826452,38.3975349 19.6957193,38.5603181 19.292,38.5590079 L19.292,38.5590079 Z" id="Path_266" fill="#6861AB"></path>
                    <polygon id="Path_267" fill="#6861AB" points="36.301 11.506 34.358 9.096 42.858 2.716 40.508 0.001 32.508 6.533 30.621 4.285 25.873 13.526"></polygon>
                </g>
            </g>
        </g>
    </g>
</svg>