<?xml version="1.0" encoding="UTF-8"?>
<svg width="20px" height="20px" viewBox="0 0 20 20" version="1.1" xmlns="http://www.w3.org/2000/svg" xmlns:xlink="http://www.w3.org/1999/xlink">
    <!-- Generator: sketchtool 63.1 (101010) - https://sketch.com -->
    <title>0E48CC13-037D-4A87-8707-0ED69647C1E8@1.5x</title>
    <desc>Created with sketchtool.</desc>
    <g id="Home+Pricing+About-Us" stroke="none" stroke-width="1" fill="none" fill-rule="evenodd">
        <g id="top_tab_dropdown" transform="translate(-735.000000, -455.000000)" fill-rule="nonzero">
            <g id="smes_menu_icon" transform="translate(735.000000, 455.000000)">
                <path d="M16.3549296,12.5352113 C15.2917981,13.0899427 13.9851893,12.8210231 13.2275302,11.8915456 C12.469871,10.9620682 12.469871,9.62807262 13.2275302,8.6985952 C13.9851893,7.76911777 15.2917981,7.50019813 16.3549296,8.05492958 C15.5194927,8.48971561 14.9954129,9.35326699 14.9954129,10.2950704 C14.9954129,11.2368739 15.5194927,12.1004252 16.3549296,12.5352113 L16.3549296,12.5352113 Z M3.1084507,15.2295775 L3.1084507,4.66619718 C3.10545819,3.63661049 3.51207412,2.64810622 4.23865032,1.91862372 C4.96522653,1.18914121 5.95209971,0.778582406 6.98169014,0.777464789 L4.62253521,0.777464789 C2.47718121,0.777464789 0.738027146,2.51661783 0.738027146,4.66197183 L0.738027146,15.2253521 C0.737280726,16.2560754 1.14621012,17.2448388 1.87477754,17.9739345 C2.60334495,18.7030303 3.59181164,19.1126761 4.62253521,19.1126761 L6.98169014,19.1126761 C5.95307801,19.1115562 4.96706079,18.7017709 4.24064686,17.9735079 C3.51423293,17.2452449 3.10695556,16.2581891 3.1084507,15.2295775 L3.1084507,15.2295775 Z" id="Shape" fill="#C89FF0" opacity="0.2"></path>
                <path d="M9.47887427,4.8943662 C9.47944309,5.28756281 9.24302571,5.64235969 8.87992284,5.79322453 C8.51681996,5.94408938 8.09858733,5.86129166 7.8203535,5.58346107 C7.54211967,5.30563048 7.45871546,4.88751837 7.60905354,4.52419707 C7.75939161,4.16087578 8.11384523,3.92394366 8.50704225,3.92394366 C9.04322013,3.92394366 9.47809617,4.35818888 9.47887427,4.8943662 L9.47887427,4.8943662 Z M18.4929577,10.2943662 C18.4929577,8.95837331 17.6880996,7.75395741 16.4537486,7.24282675 C15.2193976,6.73169608 13.7986867,7.01452932 12.8541986,7.95942039 C11.9097105,8.90431147 11.6274832,10.3251429 12.1391403,11.5592757 C12.6507974,12.7934086 13.8555565,13.5977528 15.1915493,13.5971834 C17.0139008,13.5940779 18.489999,12.1167197 18.4915493,10.2943662 L18.4929577,10.2943662 Z M16.9436625,10.2943662 C16.9442316,11.0021463 16.5182383,11.6405242 15.8644436,11.9116431 C15.2106489,12.1827621 14.4579041,12.0331893 13.9574279,11.532713 C13.4569516,11.0322367 13.3073788,10.279492 13.5784977,9.62569727 C13.8496166,8.97190254 14.4879945,8.54590923 15.1957746,8.5464783 C16.1585834,8.55035464 16.9372608,9.33154994 16.9380282,10.2943662 L16.9436625,10.2943662 Z M8.23521127,19.8901408 L4.66056338,19.8901408 C2.08821338,19.8862627 0.00387811606,17.8019275 0,15.2295775 L0,4.66619718 C0.000773940757,2.09164732 2.08601633,0.00388423789 4.66056338,-2.18257756e-07 L11.8112676,-2.18257756e-07 C14.3866885,-0.000779245241 16.4757639,2.08514425 16.4788732,4.66056338 C16.5038427,4.95309016 16.3618979,5.23473451 16.1119095,5.38868644 C15.8619211,5.54263838 15.5465296,5.54263838 15.2965412,5.38868644 C15.0465528,5.23473451 14.904608,4.95309016 14.9295775,4.66056338 C14.9295796,3.83418231 14.6008197,3.04175012 14.0158199,2.4580714 C13.43082,1.87439268 12.6376466,1.54742529 11.8112676,1.54929577 L4.66056338,1.54929577 C3.83540391,1.54929577 3.04404082,1.8770891 2.46056496,2.46056496 C1.8770891,3.04404082 1.54929577,3.83540391 1.54929577,4.66056338 L1.54929577,15.2239437 C1.55162332,16.9389507 2.941331,18.3286584 4.65633803,18.3309859 L8.23521127,18.3309859 C8.52773805,18.3060165 8.80938239,18.4479612 8.96333433,18.6979496 C9.11728626,18.947938 9.11728626,19.2633296 8.96333433,19.513318 C8.80938239,19.7633064 8.52773805,19.9052511 8.23521127,19.8802817 L8.23521127,19.8901408 Z M12.8169024,4.8943662 C12.817471,5.2876909 12.580901,5.64257675 12.2176251,5.79335885 C11.8543492,5.94414095 11.436006,5.86108476 11.1578832,5.58296191 C10.8797603,5.30483905 10.7967041,4.88649589 10.9474862,4.52321996 C11.0982683,4.15994403 11.4531542,3.92337404 11.8464789,3.92394264 C12.3821068,3.92471937 12.8161257,4.35873827 12.8169024,4.8943662 L12.8169024,4.8943662 Z M6.1380292,8.23521127 C6.13859802,8.62840788 5.90218064,8.98320476 5.53907777,9.1340696 C5.17597489,9.28493445 4.75774226,9.20213673 4.47950843,8.92430614 C4.2012746,8.64647555 4.11787039,8.22836344 4.26820847,7.86504214 C4.41854654,7.50172085 4.77300016,7.26478873 5.16619718,7.26478873 C5.70237506,7.26478873 6.1372511,7.69903395 6.1380292,8.23521127 Z M6.1380292,11.5760563 C6.13859802,11.9692529 5.90218064,12.3240498 5.53907777,12.4749147 C5.17597489,12.6257795 4.75774226,12.5429818 4.47950843,12.2651512 C4.2012746,11.9873206 4.11787039,11.5692085 4.26820847,11.2058872 C4.41854654,10.8425659 4.77300016,10.6056338 5.16619718,10.6056338 C5.70237506,10.6056338 6.1372511,11.039879 6.1380292,11.5760563 Z M6.13802817,14.9183099 C6.13802817,15.4550373 5.70292462,15.8901408 5.16619718,15.8901408 C4.62946975,15.8901408 4.1943662,15.4550373 4.1943662,14.9183099 C4.1943662,14.3815824 4.62946975,13.9464789 5.16619718,13.9464789 C5.70292462,13.9464789 6.13802817,14.3815824 6.13802817,14.9183099 L6.13802817,14.9183099 Z M9.47887427,8.23521127 C9.47944309,8.62840788 9.24302571,8.98320476 8.87992284,9.1340696 C8.51681996,9.28493445 8.09858733,9.20213673 7.8203535,8.92430614 C7.54211967,8.64647555 7.45871546,8.22836344 7.60905354,7.86504214 C7.75939161,7.50172085 8.11384523,7.26478873 8.50704225,7.26478873 C9.04322013,7.26478873 9.47809617,7.69903395 9.47887427,8.23521127 Z M9.47887427,11.5760563 C9.47944309,11.9692529 9.24302571,12.3240498 8.87992284,12.4749147 C8.51681996,12.6257795 8.09858733,12.5429818 7.8203535,12.2651512 C7.54211967,11.9873206 7.45871546,11.5692085 7.60905354,11.2058872 C7.75939161,10.8425659 8.11384523,10.6056338 8.50704225,10.6056338 C9.04322013,10.6056338 9.47809617,11.039879 9.47887427,11.5760563 Z M9.47887733,14.9183099 C9.47731857,15.4546679 9.04152901,15.8883578 8.50516976,15.887324 C7.96881051,15.8862864 7.53469908,15.4509167 7.53521534,14.9145567 C7.53573252,14.3781967 7.97068201,13.943662 8.50704225,13.943662 C8.76527666,13.943662 9.01289352,14.0464365 9.19522838,14.2292999 C9.37756323,14.4121632 9.47962174,14.6600765 9.47887733,14.9183099 L9.47887733,14.9183099 Z" id="Shape" fill="#663399"></path>
                <path d="M19.1126761,19.8901408 C18.6838442,19.889364 18.336619,19.5415086 18.3366197,19.1126761 C18.3397415,17.5736851 17.0967247,16.3224782 15.5577465,16.315493 L14.8985915,16.315493 C13.3601641,16.3232519 12.1180024,17.5742322 12.1211268,19.1126761 C12.1460962,19.4052028 12.0041514,19.6868472 11.7541631,19.8407991 C11.5041747,19.9947511 11.1887831,19.9947511 10.9387947,19.8407991 C10.6888063,19.6868472 10.5468615,19.4052028 10.571831,19.1126761 C10.5694885,16.7160228 12.5075836,14.7697369 14.9042254,14.7619718 L15.5633803,14.7619718 C17.9600221,14.7697369 19.8981171,16.7160228 19.8957768,19.1126761 C19.8957768,19.3198524 19.8130959,19.5184622 19.6660723,19.6644282 C19.5190486,19.8103941 19.3198469,19.8916421 19.1126761,19.8901408 Z M5.16901408,3.92393957 C4.77581706,3.92393957 4.42136344,4.16087578 4.27102537,4.52419707 C4.12068729,4.88751837 4.2040915,5.30563048 4.48232533,5.58346107 C4.76055916,5.86129166 5.17879179,5.94408938 5.54189467,5.79322453 C5.90499754,5.64235969 6.14141492,5.28756281 6.1408461,4.8943662 C6.14047226,4.63637594 6.03753167,4.38912123 5.85470896,4.2070911 C5.67188624,4.02506097 5.42418662,3.92319559 5.16619718,3.92393957 L5.16901408,3.92393957 Z" id="Shape" fill="#C89FF0"></path>
            </g>
        </g>
    </g>
</svg>