<?xml version="1.0" encoding="UTF-8"?>
<svg width="20px" height="20px" viewBox="0 0 20 20" version="1.1" xmlns="http://www.w3.org/2000/svg" xmlns:xlink="http://www.w3.org/1999/xlink">
    <!-- Generator: sketchtool 63.1 (101010) - https://sketch.com -->
    <title>0F91BFE2-A2D3-4444-A185-07CF9C405728@1.5x</title>
    <desc>Created with sketchtool.</desc>
    <g id="Home+Pricing+About-Us" stroke="none" stroke-width="1" fill="none" fill-rule="evenodd">
        <g id="top_tab_dropdown" transform="translate(-735.000000, -387.000000)" fill-rule="nonzero">
            <g id="startups_menu_icon" transform="translate(735.000000, 387.000000)">
                <path d="M5.71830986,7.14647887 C5.71830986,3.8028169 8.02816901,1.35774648 11.0535211,0.866197183 C10.6860317,0.807247813 10.314441,0.777464789 9.94225352,0.777464789 C6.38028169,0.785915493 3.49577465,3.40985915 3.49577465,7.14647887 C3.49577465,11.7873239 8.05352113,15.2239437 8.05352113,15.2239437 L11.5352113,15.2239437 C11.5352113,15.2239437 5.71830986,11.5352113 5.71830986,7.14647887 Z" id="Path" fill="#C89FF0" opacity="0.2"></path>
                <path d="M11.4957746,19.8859386 L8.35070423,19.8859386 C8.01106077,19.8885236 7.70918419,19.6699627 7.6056338,19.3464789 L7.21690141,18.1422535 C7.11831778,17.8744071 7.17441993,17.5740778 7.36304981,17.3598835 C7.55167968,17.1456892 7.84250722,17.0520704 8.12066741,17.1160028 C8.39882759,17.1799352 8.61959467,17.3911389 8.69577465,17.6661972 L8.90985915,18.3323944 L10.9309859,18.3323944 L11.1450704,17.6661972 C11.2212504,17.3911389 11.4420175,17.1799352 11.7201777,17.1160028 C11.9983378,17.0520704 12.2891654,17.1456892 12.4777953,17.3598835 C12.6664251,17.5740778 12.7225273,17.8744071 12.6239437,18.1422535 L12.2352113,19.3464789 C12.1322867,19.6679736 11.8333429,19.8860602 11.4957746,19.8859386 L11.4957746,19.8859386 Z M12.2605634,15.8464789 C13.1653098,15.1314647 13.983941,14.3137788 14.7,13.4098592 C16.3140845,11.3873239 17.1661972,9.22112676 17.1661972,7.14647887 C17.192412,5.21009809 16.4213374,3.34811078 15.0338028,1.9971831 C13.6679587,0.705906814 11.8570489,-0.00937734455 9.97746479,-9.10496184e-05 L9.90704225,-9.10496184e-05 C8.02751268,-0.00908680479 6.216707,0.706156217 4.85070423,1.9971831 C3.46373136,3.34849144 2.69276142,5.21022599 2.71830986,7.14647887 C2.71830986,9.22112676 3.56338028,11.3859155 5.16478873,13.4084507 C5.87450366,14.3114243 6.68649527,15.1290876 7.58450704,15.8450704 C7.71981461,15.9465511 7.88438666,16.0014085 8.05352113,16.0014085 L11.7957746,16.0014085 C11.9633525,16.0012061 12.1263797,15.9468637 12.2605634,15.8464789 L12.2605634,15.8464789 Z M4.27183099,7.14647887 C4.27183099,3.96338028 6.7084507,1.56197183 9.94225352,1.55349905 C13.1760563,1.54507042 15.6126761,3.96338028 15.6126761,7.14647887 C15.6126761,10.815493 12.356338,13.7549296 11.528169,14.4478873 L8.32816901,14.4478873 C7.49577465,13.743662 4.27183099,10.8126761 4.27183099,7.14647887 Z" id="Shape" fill="#663399"></path>
                <path d="M9.24225352,11.7295775 C8.95052363,11.7285696 8.68390989,11.5643303 8.55178347,11.3042342 C8.41965706,11.0441382 8.44425744,10.7319647 8.61549296,10.4957746 L10.0084507,8.58309859 L8.30985915,8.58309859 C8.01909099,8.58268679 7.75285502,8.42005818 7.61974539,8.16154682 C7.48663576,7.90303546 7.50890307,7.59185413 7.67746479,7.35492958 L10.0098592,4.09295775 C10.2591652,3.74291812 10.7450308,3.66125738 11.0950704,3.91056338 C11.4451101,4.15986938 11.5267708,4.64573502 11.2774648,4.99577465 L9.82112676,7.02957746 L11.5352113,7.02957746 C11.8271946,7.0300582 12.0942909,7.19409502 12.2267675,7.45429577 C12.3592442,7.71449652 12.3347624,8.02698517 12.1633803,8.26338028 L9.87183099,11.4084507 C9.72526143,11.6096722 9.49119647,11.7285374 9.24225352,11.728169 L9.24225352,11.7295775 Z M17.9436609,4.85492958 C17.9430923,5.24825428 18.1796623,5.60314013 18.5429383,5.75392223 C18.9062142,5.90470433 19.3245574,5.82164814 19.6026802,5.54352529 C19.8808031,5.26540243 19.9638593,4.84705927 19.8130772,4.48378334 C19.6622951,4.12050741 19.3074092,3.88393742 18.9140845,3.88450602 C18.6565978,3.88413252 18.4095494,3.98625289 18.2274786,4.16832367 C18.0454078,4.35039445 17.9432874,4.59744289 17.9436609,4.85492958 L17.9436609,4.85492958 Z M17.8267595,9.24366197 C17.8261909,9.63698667 18.0627609,9.99187253 18.4260369,10.1426546 C18.7893128,10.2934367 19.207656,10.2103805 19.4857788,9.93225768 C19.7639017,9.65413483 19.8469578,9.23579167 19.6961758,8.87251573 C19.5453937,8.5092398 19.1905078,8.27266981 18.7971831,8.27323841 C18.2612335,8.27323841 17.8267595,8.7077124 17.8267595,9.24366197 L17.8267595,9.24366197 Z M-1.02639516e-06,4.85492958 C-0.000569623924,5.24825428 0.236000364,5.60314013 0.599276298,5.75392223 C0.962552232,5.90470433 1.38089539,5.82164814 1.65901825,5.54352529 C1.9371411,5.26540243 2.02019728,4.84705927 1.86941519,4.48378334 C1.71863309,4.12050741 1.36374724,3.88393742 0.970422535,3.88450602 C0.434472968,3.88450602 -1.02639516e-06,4.31898001 -1.02639516e-06,4.85492958 L-1.02639516e-06,4.85492958 Z M0.15492855,9.24366197 C0.154359727,9.63685858 0.390777106,9.99165546 0.75387998,10.1425203 C1.11698285,10.2933852 1.53521549,10.2105874 1.81344932,9.93275685 C2.09168315,9.65492626 2.17508735,9.23681414 2.02474928,8.87349285 C1.87441121,8.51017155 1.51995759,8.27323841 1.12676056,8.27323841 C0.869144561,8.27286554 0.621951803,8.3749411 0.439657539,8.55697117 C0.257363275,8.73900124 0.15492855,8.9860457 0.15492855,9.24366197 Z M1.94225249,0.970422535 C1.9416839,1.36374724 2.17825389,1.71863309 2.54152982,1.86941519 C2.90480575,2.02019728 3.32314891,1.9371411 3.60127177,1.65901825 C3.87939462,1.38089539 3.96245081,0.962552232 3.81166871,0.599276298 C3.66088661,0.236000364 3.30600076,-0.000569623924 2.91267606,-1.02639516e-06 C2.655304,-1.02639516e-06 2.40847323,0.102240652 2.2264837,0.28423018 C2.04449417,0.466219708 1.94225249,0.713050477 1.94225249,0.970422535 L1.94225249,0.970422535 Z M16.0788722,0.970422535 C16.0783034,1.36361915 16.3147208,1.71841602 16.6778236,1.86928087 C17.0409265,2.02014572 17.4591592,1.937348 17.737393,1.65951741 C18.0156268,1.38168682 18.099031,0.963574706 17.9486929,0.60025341 C17.7983549,0.236932115 17.4439012,2.79901614e-16 17.0507042,2.79901614e-16 C16.5145263,2.79901614e-16 16.0796503,0.434245219 16.0788722,0.970422535 L16.0788722,0.970422535 Z" id="Shape" fill="#C89FF0"></path>
            </g>
        </g>
    </g>
</svg>