<svg width="48" height="48" viewBox="0 0 48 48" fill="none" xmlns="http://www.w3.org/2000/svg">
<path d="M14.2499 36H10.6799C9.08901 35.9988 7.56358 35.3663 6.43862 34.2413C5.31366 33.1164 4.68114 31.5909 4.67995 30L4.67995 9C4.67995 7.4087 5.31209 5.88258 6.43731 4.75736C7.56252 3.63214 9.08865 3 10.6799 3L25.6799 3C27.2672 3.01294 28.7859 3.64923 29.9083 4.77166C31.0307 5.89408 31.487 7.4127 31.4999 9V9.75" stroke="#6861AB" stroke-width="3" stroke-linecap="round" stroke-linejoin="round"/>
<path d="M11.9737 10.0737H23.9737" stroke="#6861AB" stroke-width="3" stroke-linecap="round"/>
<path d="M11.9737 22.0737H14.9737" stroke="#6861AB" stroke-width="3" stroke-linecap="round"/>
<path d="M11.9737 16.0737H14.9737" stroke="#6861AB" stroke-width="3" stroke-linecap="round"/>
<path d="M11.9737 28.0737H14.9737" stroke="#6861AB" stroke-width="3" stroke-linecap="round"/>
<path opacity="0.4" d="M36.2483 46.9809C40.3901 46.9809 43.7476 43.6234 43.7476 39.4817C43.7476 35.34 40.3901 31.9824 36.2483 31.9824C32.1066 31.9824 28.7491 35.34 28.7491 39.4817C28.7491 43.6234 32.1066 46.9809 36.2483 46.9809Z" fill="#FF1391"/>
<path d="M36.75 15H24.75C22.2647 15 20.25 17.0147 20.25 19.5V37.5C20.25 39.9853 22.2647 42 24.75 42H36.75C39.2353 42 41.25 39.9853 41.25 37.5V19.5C41.25 17.0147 39.2353 15 36.75 15Z" stroke="#6861AB" stroke-width="3"/>
<path d="M26.7937 32.3926H34.2937" stroke="#6861AB" stroke-width="2.25" stroke-linecap="round"/>
<path d="M26.7937 36.8926H34.2937" stroke="#6861AB" stroke-width="2.25" stroke-linecap="round"/>
<path d="M32.4054 21.4288H31.4118C31.3162 21.0716 31.173 20.7288 30.986 20.4097H32.4762C32.5777 20.4071 32.6776 20.3842 32.7701 20.3424C32.8626 20.3006 32.9458 20.2406 33.0147 20.1661C33.0837 20.0916 33.137 20.004 33.1715 19.9086C33.206 19.8131 33.2211 19.7117 33.2158 19.6103C33.2105 19.509 33.1849 19.4097 33.1406 19.3183C33.0963 19.227 33.0341 19.1455 32.9578 19.0786C32.8815 19.0117 32.7925 18.9607 32.6962 18.9288C32.5998 18.8968 32.498 18.8845 32.3968 18.8925H26.5748C26.3791 18.9007 26.1941 18.9841 26.0585 19.1255C25.9229 19.2669 25.8471 19.4552 25.8471 19.6511C25.8471 19.847 25.9229 20.0353 26.0585 20.1767C26.1941 20.3181 26.3791 20.4016 26.5748 20.4097H28.2449C28.5754 20.4164 28.8974 20.5154 29.1745 20.6954C29.4517 20.8755 29.6729 21.1296 29.8133 21.4288H26.5722C26.3765 21.437 26.1915 21.5204 26.0558 21.6618C25.9202 21.8032 25.8445 21.9915 25.8445 22.1874C25.8445 22.3833 25.9202 22.5716 26.0558 22.713C26.1915 22.8544 26.3765 22.9379 26.5722 22.946H29.8133C29.7216 23.1236 29.6083 23.2891 29.476 23.4388C29.316 23.6035 29.1249 23.7347 28.9138 23.8248C28.7027 23.9149 28.4758 23.9622 28.2462 23.9638H26.5604C26.3659 23.961 26.1782 24.0354 26.0385 24.1707C25.8988 24.306 25.8184 24.4912 25.8149 24.6857C25.8115 24.7916 25.8308 24.897 25.8714 24.9949C25.9121 25.0928 25.9731 25.1809 26.0505 25.2533L30.2228 29.1873C30.364 29.3176 30.5491 29.39 30.7412 29.3901C30.8473 29.391 30.9524 29.3701 31.05 29.3287C31.1477 29.2873 31.2358 29.2262 31.3088 29.1493C31.4436 29.0033 31.516 28.8104 31.5105 28.6117C31.505 28.4131 31.422 28.2245 31.2793 28.0862L28.4785 25.4416C29.1708 25.3907 29.8289 25.1211 30.358 24.6719C30.8871 24.2226 31.2598 23.6169 31.4224 22.9421H32.4159C32.5181 22.9463 32.6202 22.9299 32.716 22.8936C32.8117 22.8574 32.8991 22.8023 32.973 22.7314C33.0469 22.6605 33.1057 22.5755 33.1458 22.4813C33.186 22.3871 33.2067 22.2858 33.2067 22.1835C33.2067 22.0811 33.186 21.9798 33.1458 21.8856C33.1057 21.7915 33.0469 21.7064 32.973 21.6356C32.8991 21.5647 32.8117 21.5095 32.716 21.4733C32.6202 21.4371 32.5181 21.4206 32.4159 21.4249L32.4054 21.4288Z" fill="#6861AB"/>
</svg>
