<?xml version="1.0" encoding="UTF-8"?>
<svg width="52px" height="50px" viewBox="0 0 52 50" version="1.1" xmlns="http://www.w3.org/2000/svg" xmlns:xlink="http://www.w3.org/1999/xlink">
    <title>604CDD34-8158-4630-A48C-2A326641E44B</title>
    <g id="Page-1" stroke="none" stroke-width="1" fill="none" fill-rule="evenodd">
        <g id="open-copy-24" transform="translate(-481.000000, -5413.000000)" fill-rule="nonzero">
            <g id="Track" transform="translate(481.000000, 5413.000000)">
                <g transform="translate(0.000000, 5.645161)">
                    <path d="M6.85,38.6701613 C10.6331452,38.6701613 13.7,35.6033065 13.7,31.8201613 C13.7,28.0370161 10.6331452,24.9701613 6.85,24.9701613 C3.06684677,24.9701613 0,28.0370161 0,31.8201613 C0,35.6033065 3.06684677,38.6701613 6.85,38.6701613 Z" id="Ellipse-1101" fill="#ED2891" opacity="0.4"></path>
                    <path d="M12.7870968,12.0516129 C13.3443548,12.8427419 13.3927419,13.1169355 13.0483871,13.4072581 C12.7040323,13.6975806 12.4508065,13.5975806 11.7580645,12.916129 C11.6637097,13.0604839 11.5741935,13.2040323 11.4782258,13.333871 C11.4342742,13.4114516 11.3748387,13.4791129 11.3037097,13.5328226 C11.2325806,13.5865323 11.1512097,13.6250806 11.0645968,13.646129 C10.9779839,13.6671774 10.8879839,13.6702419 10.8001613,13.6551613 C10.7123387,13.6400806 10.6284677,13.6070968 10.553871,13.5583871 C10.4792742,13.5096774 10.4154032,13.446129 10.3662903,13.3717742 C10.3171774,13.2974194 10.2837903,13.2137903 10.2682258,13.1259677 C10.2526613,13.0382258 10.2552419,12.9482258 10.2758065,12.8615323 C10.2964516,12.7747581 10.3345161,12.6932258 10.3879032,12.6217742 C10.4685484,12.4903226 10.5491935,12.3629032 10.6612903,12.1895161 L10.1830645,12.0516129 C10.0941935,12.0356452 10.0095161,12.0016935 9.93419355,11.9519355 C9.85879032,11.9021774 9.79435484,11.8376613 9.74475806,11.7621774 C9.69508065,11.6867742 9.66137097,11.6020968 9.64548387,11.5131452 C9.62959677,11.4242742 9.63193548,11.3331452 9.65241935,11.2451613 C9.67830645,11.1564516 9.72185484,11.0739516 9.78056452,11.0025806 C9.83919355,10.931129 9.91169355,10.8724194 9.99370968,10.8298387 C10.0757258,10.7872581 10.1654839,10.7616935 10.2576613,10.7547581 C10.3497581,10.7478226 10.4424194,10.7596774 10.5298387,10.7895161 L11.0564516,10.9233871 L11.0564516,10.3217742 C11.0554032,10.1498387 11.1226613,9.98451613 11.2434677,9.86209677 C11.3643548,9.73975806 11.5287903,9.67040323 11.7008065,9.66934276 C11.8727419,9.66830645 12.0380645,9.73556452 12.1604839,9.85645161 C12.2828226,9.97725806 12.3520968,10.1417742 12.3532258,10.3137097 L12.3532258,10.7975806 C12.8645161,10.6016129 13.4370968,10.3274194 13.6629032,11.0604839 C13.8620968,11.7403226 13.2274194,11.8346774 12.7870968,12.0516129 Z" id="Path-88" fill="#6861AB"></path>
                    <path d="M12.7870968,18.2177419 C13.3443548,19.008871 13.3927419,19.2830645 13.0483871,19.5733871 C12.7040323,19.8637097 12.4508065,19.7637097 11.7580645,19.0822581 C11.6637097,19.2266129 11.5741935,19.3701613 11.4782258,19.5 C11.4342742,19.5775806 11.3748387,19.6452419 11.3037097,19.6989516 C11.2325806,19.7526613 11.1512097,19.7912097 11.0645968,19.8122581 C10.9779839,19.8333065 10.8879839,19.836371 10.8001613,19.8212903 C10.7123387,19.8062097 10.6284677,19.7732258 10.553871,19.7245161 C10.4792742,19.6758065 10.4154032,19.6122581 10.3662903,19.5379032 C10.3171774,19.4635484 10.2837903,19.3799194 10.2682258,19.2920968 C10.2526613,19.2043548 10.2552419,19.1143548 10.2758065,19.0276613 C10.2964516,18.9408871 10.3345161,18.8593548 10.3879032,18.7879032 C10.4685484,18.6564516 10.5491935,18.5290323 10.6612903,18.3556452 L10.1830645,18.2177419 C10.0941935,18.2017742 10.0095161,18.1678226 9.93419355,18.1180645 C9.85879032,18.0683065 9.79435484,18.0037903 9.74475806,17.9283065 C9.69508065,17.8529032 9.66137097,17.7681452 9.64548387,17.6792742 C9.62959677,17.5904032 9.63193548,17.4992742 9.65241935,17.4112903 C9.67830645,17.3225806 9.72185484,17.2400806 9.78056452,17.1687097 C9.83919355,17.0972581 9.91169355,17.0385484 9.99370968,16.9959677 C10.0757258,16.9533871 10.1654839,16.9278226 10.2576613,16.9208871 C10.3497581,16.9139516 10.4424194,16.9258065 10.5298387,16.9556452 L11.0564516,17.0895161 L11.0564516,16.4879032 C11.0554032,16.3159677 11.1226613,16.1505645 11.2434677,16.0282258 C11.3643548,15.9058871 11.5287903,15.8365323 11.7008065,15.8354718 C11.8727419,15.8344355 12.0380645,15.9016935 12.1604839,16.0225806 C12.2828226,16.1433871 12.3520968,16.3079032 12.3532258,16.4798387 L12.3532258,16.9637097 C12.8645161,16.7677419 13.4370968,16.4935484 13.6629032,17.2266129 C13.8620968,17.9064516 13.2274194,18.0008065 12.7870968,18.2177419 Z" id="Path-143" fill="#6861AB"></path>
                    <path d="M12.7870968,24.383871 C13.3443548,25.175 13.3927419,25.4491935 13.0483871,25.7395161 C12.7040323,26.0298387 12.4508065,25.9298387 11.7580645,25.2483871 C11.6637097,25.3927419 11.5741935,25.5362903 11.4782258,25.666129 C11.4342742,25.7437097 11.3748387,25.811371 11.3037097,25.8650806 C11.2325806,25.9187903 11.1512097,25.9573387 11.0645968,25.9783871 C10.9779839,25.9994355 10.8879839,26.0025 10.8001613,25.9874194 C10.7123387,25.9723387 10.6284677,25.9393548 10.553871,25.8906452 C10.4792742,25.8419355 10.4154032,25.7783871 10.3662903,25.7040323 C10.3171774,25.6296774 10.2837903,25.5460484 10.2682258,25.4582258 C10.2526613,25.3704839 10.2552419,25.2804839 10.2758065,25.1937097 C10.2964516,25.1070161 10.3345161,25.0254032 10.3879032,24.9540323 C10.4685484,24.8225806 10.5491935,24.6951613 10.6612903,24.5217742 L10.1830645,24.383871 C10.0941935,24.3678226 10.0095161,24.3339516 9.93419355,24.2841935 C9.85879032,24.2344355 9.79435484,24.1699194 9.74475806,24.0944355 C9.69508065,24.0190323 9.66137097,23.9342742 9.64548387,23.8454032 C9.62959677,23.7565323 9.63193548,23.6654032 9.65241935,23.5774194 C9.67830645,23.4887097 9.72185484,23.4062097 9.78056452,23.3348387 C9.83919355,23.2633871 9.91169355,23.2046774 9.99370968,23.1620968 C10.0757258,23.1195161 10.1654839,23.0939516 10.2576613,23.0870161 C10.3497581,23.0800806 10.4424194,23.0919355 10.5298387,23.1217742 L11.0564516,23.2556452 L11.0564516,22.6540323 C11.0554032,22.4820968 11.1226613,22.3166935 11.2434677,22.1943548 C11.3643548,22.0720161 11.5287903,22.0026613 11.7008065,22.0016008 C11.8727419,22.0005645 12.0380645,22.0678226 12.1604839,22.188629 C12.2828226,22.3095161 12.3520968,22.4740323 12.3532258,22.6459677 L12.3532258,23.1298387 C12.8645161,22.933871 13.4370968,22.6596774 13.6629032,23.3927419 C13.8620968,24.0725806 13.2274194,24.1669355 12.7870968,24.383871 Z" id="Path-145" fill="#6861AB"></path>
                    <path d="M38.7096745,0 C43.0881128,0 46.6515584,3.76469929 46.7710953,8.45763703 L46.7741935,8.70118846 L43.5483859,8.70118846 C43.5483859,5.88337954 41.4793901,3.58700165 38.8910775,3.48407632 L38.7096745,3.48047538 L10.4838578,3.48047538 C7.87225269,3.48047538 5.74389451,5.71282047 5.64849993,8.50546475 L5.64516246,8.70118846 L5.64516246,24.3633277 C5.64516246,27.1811281 7.71416598,29.4775141 10.3024563,29.5804398 L10.4838578,29.5840407 L38.7096745,29.5840407 C41.3213032,29.5840407 43.4496542,27.351704 43.5450485,24.5590519 L43.5483859,24.3633277 L46.7741935,24.3633277 C46.7741935,29.0874305 43.2849588,32.9321993 38.9354052,33.0611733 L38.7096745,33.0645161 L10.4838578,33.0645161 C6.10544324,33.0645161 2.54199027,29.2998084 2.42245306,24.6068787 L2.41935484,24.3633277 L2.41935484,8.70118846 C2.41935484,3.97709422 5.90859739,0.13231713 10.2581283,0.00334281159 L10.4838578,0 L38.7096745,0 Z" id="Rectangle-2158" fill="#6861AB"></path>
                    <path d="M23.8298387,10.1951613 C24.7206206,10.1951613 25.4427419,10.9172827 25.4427419,11.8080645 C25.4427419,12.6583563 24.784776,13.3549719 23.9502116,13.4165438 L23.8298387,13.4209677 L17.4403226,13.4209677 C16.5495407,13.4209677 15.8274194,12.6988464 15.8274194,11.8080645 C15.8274194,10.9577727 16.4853853,10.2611572 17.3199497,10.1995853 L17.4403226,10.1951613 L23.8298387,10.1951613 Z" id="Path-129" fill="#6861AB"></path>
                    <path d="M23.8298387,16.3612903 C24.7206206,16.3612903 25.4427419,17.0834117 25.4427419,17.9741935 C25.4427419,18.8244853 24.784776,19.5211009 23.9502116,19.5826728 L23.8298387,19.5870968 L17.4403226,19.5870968 C16.5495407,19.5870968 15.8274194,18.8649754 15.8274194,17.9741935 C15.8274194,17.1239018 16.4853853,16.4272862 17.3199497,16.3657143 L17.4403226,16.3612903 L23.8298387,16.3612903 Z" id="Path-144" fill="#6861AB"></path>
                    <path d="M23.8298387,22.5274194 C24.7206206,22.5274194 25.4427419,23.2495407 25.4427419,24.1403226 C25.4427419,24.9906144 24.784776,25.6872299 23.9502116,25.7488018 L23.8298387,25.7532258 L17.4403226,25.7532258 C16.5495407,25.7532258 15.8274194,25.0311044 15.8274194,24.1403226 C15.8274194,23.2900308 16.4853853,22.5934152 17.3199497,22.5318433 L17.4403226,22.5274194 L23.8298387,22.5274194 Z" id="Path-146" fill="#6861AB"></path>
                    <g id="Group-1167" transform="translate(31.451613, 8.064516)" fill="#6861AB">
                        <path d="M10.7245174,8.93657118 C11.1963213,8.14236682 12.213967,7.84538925 13.0510331,8.23480861 L13.1751479,8.29839314 L18.4575426,11.2623802 C19.3155943,11.7438388 19.6095864,12.8101594 19.1141923,13.644074 C18.6423884,14.4382783 17.6247427,14.7352559 16.7876766,14.3458365 L16.6635618,14.282252 L11.3811671,11.318265 C10.5231154,10.8368064 10.2291233,9.77048576 10.7245174,8.93657118 Z" id="Path-142"></path>
                        <g id="Ellipse-1109">
                            <path d="M6.42129032,-1.61290323 C1.99403226,-1.61290323 -1.58946237,2.0007048 -1.58946237,6.4516129 C-1.58946237,10.902521 1.99403226,14.516129 6.42129032,14.516129 C10.8485484,14.516129 14.432043,10.902521 14.432043,6.4516129 C14.432043,2.0007048 10.8485484,-1.61290323 6.42129032,-1.61290323 Z M6.42129032,1.61290323 C9.06091398,1.61290323 11.2062366,3.77625373 11.2062366,6.4516129 C11.2062366,9.12697208 9.06091398,11.2903226 6.42129032,11.2903226 C3.78166667,11.2903226 1.63634409,9.12697208 1.63634409,6.4516129 C1.63634409,3.77625373 3.78166667,1.61290323 6.42129032,1.61290323 Z" id="Vector"></path>
                        </g>
                    </g>
                </g>
            </g>
        </g>
    </g>
</svg>