<?xml version="1.0" encoding="UTF-8"?>
<svg width="50px" height="50px" viewBox="0 0 50 50" version="1.1" xmlns="http://www.w3.org/2000/svg" xmlns:xlink="http://www.w3.org/1999/xlink">
    <title>2D99AE22-822A-4F10-A496-CF34E8C696CC</title>
    <defs>
        <rect id="path-1" x="0.757692308" y="0" width="49.2307692" height="35.3846154"></rect>
    </defs>
    <g id="Page-1" stroke="none" stroke-width="1" fill="none" fill-rule="evenodd">
        <g id="open-copy-24" transform="translate(-998.000000, -3849.000000)">
            <g id="Track" transform="translate(998.000000, 3849.000000)">
                <g transform="translate(0.000000, 7.692308)">
                    <mask id="mask-2" fill="white">
                        <use xlink:href="#path-1"></use>
                    </mask>
                    <g id="Rectangle_2191"></g>
                    <g id="Track-2" mask="url(#mask-2)">
                        <g transform="translate(0.780769, 2.307692)" id="Group_1203">
                            <path d="M6.59307692,33.0392308 C10.2016205,33.0392308 13.1269231,30.1139282 13.1269231,26.5053846 C13.1269231,22.896841 10.2016205,19.9715385 6.59307692,19.9715385 C2.98453333,19.9715385 0.0592307692,22.896841 0.0592307692,26.5053846 C0.0592307692,30.1139282 2.98453333,33.0392308 6.59307692,33.0392308 Z" id="Path_280" fill="#ED2891" fill-rule="nonzero" opacity="0.4"></path>
                            <path d="M13.0253846,7.64923077 C13.5569231,8.40384615 13.6030769,8.66538462 13.2746154,8.94230769 C12.9461538,9.21923077 12.7046154,9.12384615 12.0438462,8.47384615 C11.9538462,8.61153846 11.8684615,8.74846154 11.7769231,8.87230769 C11.662676,9.07385151 11.4459288,9.19524712 11.2143898,9.18737091 C10.9828509,9.17949471 10.7748542,9.04365069 10.674567,8.83480912 C10.5742799,8.62596754 10.598306,8.37870457 10.7369231,8.19307692 C10.8138462,8.06769231 10.8907692,7.94615385 10.9976923,7.78076923 L10.5415385,7.64923077 C10.3702559,7.61835595 10.2191363,7.51857216 10.1234687,7.37318069 C10.0278011,7.22778921 9.99596135,7.04951924 10.0353846,6.88 C10.0852717,6.70903021 10.2028959,6.56589266 10.3609538,6.48381294 C10.5190118,6.40173322 10.7037577,6.38784953 10.8723077,6.44538462 L11.3746154,6.57307692 L11.3746154,6 C11.3724912,5.65843312 11.6476639,5.37981648 11.9892308,5.37768009 C12.3307976,5.37556814 12.6094143,5.65074082 12.6115385,5.99230769 L12.6115385,6.45384615 C13.0992308,6.26692308 13.6453846,6.00538462 13.8607692,6.70461538 C14.0507692,7.35230769 13.4453846,7.44230769 13.0253846,7.64923077 Z" id="Path_281" fill="#6861AB" fill-rule="nonzero"></path>
                            <path d="M13.0253846,13.5307692 C13.5569231,14.2853846 13.6030769,14.5469231 13.2746154,14.8238462 C12.9461538,15.1007692 12.7046154,15.0053846 12.0438462,14.3553846 C11.9538462,14.4930769 11.8684615,14.63 11.7769231,14.7538462 C11.662676,14.95539 11.4459288,15.0767856 11.2143898,15.0689094 C10.9828509,15.0610332 10.7748542,14.9251892 10.674567,14.7163476 C10.5742799,14.507506 10.598306,14.260243 10.7369231,14.0746154 C10.8138462,13.9492308 10.8907692,13.8276923 10.9976923,13.6623077 L10.5384615,13.5307692 C10.367179,13.4998944 10.2160593,13.4001106 10.1203918,13.2547191 C10.0247242,13.1093277 9.99288443,12.9310577 10.0323077,12.7615385 C10.0821948,12.5905687 10.199819,12.4474311 10.3578769,12.3653514 C10.5159348,12.2832717 10.7006808,12.269388 10.8692308,12.3269231 L11.3715385,12.4546154 L11.3715385,11.8807692 C11.3694143,11.5392024 11.644587,11.2605857 11.9861538,11.2584493 C12.3277207,11.2563374 12.6063374,11.5315101 12.6084615,11.8730769 L12.6084615,12.3346154 C13.0961538,12.1476923 13.6423077,11.8861538 13.8576923,12.5853846 C14.0507692,13.2307692 13.4453846,13.3238462 13.0253846,13.5307692 Z" id="Path_282" fill="#6861AB" fill-rule="nonzero"></path>
                            <path d="M13.0253846,19.4123077 C13.5569231,20.1669231 13.6030769,20.4284615 13.2746154,20.7053846 C12.9461538,20.9823077 12.7046154,20.8869231 12.0438462,20.2369231 C11.9538462,20.3746154 11.8684615,20.5115385 11.7769231,20.6353846 C11.662676,20.8369284 11.4459288,20.958324 11.2143898,20.9504478 C10.9828509,20.9425716 10.7748542,20.8067276 10.674567,20.597886 C10.5742799,20.3890445 10.598306,20.1417815 10.7369231,19.9561538 C10.8138462,19.8307692 10.8907692,19.7092308 10.9976923,19.5438462 L10.5415385,19.4123077 C10.3702559,19.3814329 10.2191363,19.2816491 10.1234687,19.1362576 C10.0278011,18.9908661 9.99596135,18.8125962 10.0353846,18.6430769 C10.0852717,18.4721071 10.2028959,18.3289696 10.3609538,18.2468899 C10.5190118,18.1648101 10.7037577,18.1509265 10.8723077,18.2084615 L11.3746154,18.3361538 L11.3746154,17.7623077 C11.3724912,17.4207408 11.6476639,17.1421242 11.9892308,17.1399878 C12.3307976,17.1378758 12.6094143,17.4130485 12.6115385,17.7546154 L12.6115385,18.2161538 C13.0992308,18.0292308 13.6453846,17.7676923 13.8607692,18.4669231 C14.0507692,19.1153846 13.4453846,19.2053846 13.0253846,19.4123077 Z" id="Path_283" fill="#6861AB" fill-rule="nonzero"></path>
                            <path d="M10.7576923,-1.53846154 L37.6645211,-1.53837574 C40.3036955,-1.56625033 42.7643834,-0.231909592 44.1827836,1.98019726 L44.2884615,2.15153846 L44.4003191,2.32329446 C44.714936,2.83248039 44.9422076,3.3907162 45.0727118,3.97485892 L45.1226902,4.22672447 L42.091156,4.75327553 C42.0441944,4.48290164 41.9491472,4.22360447 41.8109619,3.98753661 L41.6703982,3.766784 C40.8701888,2.42572254 39.4436233,1.58996464 37.8772578,1.54052567 L37.6807692,1.53846154 L10.7576923,1.53846154 C8.26661774,1.53846154 6.23648326,3.51198068 6.14549113,5.98081672 L6.14230769,6.15384615 L6.14230769,20 C6.14230769,22.4910746 8.11582684,24.521209 10.5846629,24.6122012 L10.7576923,24.6153846 L37.6807692,24.6153846 C40.1718438,24.6153846 42.2019783,22.6418655 42.2929704,20.1730294 L42.2961538,20 L45.3730769,20 C45.3730769,24.1763384 42.0448686,27.5753321 37.8960806,27.6893525 L37.6807692,27.6923077 L10.7576923,27.6923077 C6.58135391,27.6923077 3.18236022,24.3640994 3.06833984,20.2153114 L3.06538462,20 L3.06538462,6.15384615 C3.06538462,1.97750776 6.39359291,-1.42148594 10.5423809,-1.53550631 L10.7576923,-1.53846154 Z" id="Path_284" fill="#6861AB" fill-rule="nonzero"></path>
                            <path d="M23.5561538,5.87846154 C24.4058227,5.87846154 25.0946154,6.56725423 25.0946154,7.41692308 C25.0946154,8.22797061 24.4670171,8.89243471 23.670971,8.95116482 L23.5561538,8.95538462 L17.4615385,8.95538462 C16.6118696,8.95538462 15.9230769,8.26659192 15.9230769,7.41692308 C15.9230769,6.60587554 16.5506752,5.94141144 17.3467213,5.88268134 L17.4615385,5.87846154 L23.5561538,5.87846154 Z" id="Path_285" fill="#6861AB" fill-rule="nonzero"></path>
                            <path d="M23.5561538,11.76 C24.4058227,11.76 25.0946154,12.4487927 25.0946154,13.2984615 C25.0946154,14.1095091 24.4670171,14.7739732 23.670971,14.8327033 L23.5561538,14.8369231 L17.4615385,14.8369231 C16.6118696,14.8369231 15.9230769,14.1481304 15.9230769,13.2984615 C15.9230769,12.487414 16.5506752,11.8229499 17.3467213,11.7642198 L17.4615385,11.76 L23.5561538,11.76 Z" id="Path_286" fill="#6861AB" fill-rule="nonzero"></path>
                            <path d="M23.5561538,17.6415385 C24.4058227,17.6415385 25.0946154,18.3303312 25.0946154,19.18 C25.0946154,19.9910475 24.4670171,20.6555116 23.670971,20.7142417 L23.5561538,20.7184615 L17.4615385,20.7184615 C16.6118696,20.7184615 15.9230769,20.0296688 15.9230769,19.18 C15.9230769,18.3689525 16.5506752,17.7044884 17.3467213,17.6457583 L17.4615385,17.6415385 L23.5561538,17.6415385 Z" id="Path_287" fill="#6861AB" fill-rule="nonzero"></path>
                            <g id="Group_1202" transform="translate(31.538462, 6.153846)" fill="#6861AB" fill-rule="nonzero">
                                <path d="M9.71919014,7.69769498 C10.123793,6.99689911 10.9964909,6.73484987 11.71433,7.07846858 L11.8207666,7.13457476 L16.3507666,9.74995938 C17.0866022,10.1747923 17.3387197,11.1157001 16.9138868,11.8515358 C16.509284,12.5523317 15.636586,12.8143809 14.9187469,12.4707622 L14.8123104,12.414656 L10.2823104,9.79927139 C9.54647471,9.37443845 9.2943572,8.43353063 9.71919014,7.69769498 Z" id="Path_288"></path>
                                <path d="M6.14230769,-1.53846154 C2.31879789,-1.53846154 -0.780769231,1.56110558 -0.780769231,5.38461538 C-0.780769231,7.22072955 -0.0513757205,8.98164125 1.24695305,10.27997 C2.54528183,11.5782988 4.30619353,12.3076923 6.14230769,12.3076923 C9.9658175,12.3076923 13.0653846,9.20812519 13.0653846,5.38461538 C13.0653846,1.56110558 9.9658175,-1.53846154 6.14230769,-1.53846154 Z M6.14230769,1.53846154 C8.26647981,1.53846154 9.98846154,3.26044327 9.98846154,5.38461538 C9.98846154,7.5087875 8.26647981,9.23076923 6.14230769,9.23076923 C5.12224427,9.23076923 4.14395999,8.82555061 3.42266623,8.10425685 C2.70137246,7.38296309 2.29615385,6.40467881 2.29615385,5.38461538 C2.29615385,3.26044327 4.01813558,1.53846154 6.14230769,1.53846154 Z" id="Path_289"></path>
                            </g>
                        </g>
                    </g>
                </g>
            </g>
        </g>
    </g>
</svg>